Inter-LightItalic.ufo
<glyph name="exclam" format="2">
  <advance width="768"/>
  <unicode hex="0021"/>
  <outline>
    <contour>
      <point x="697" y="2048" type="line"/>
      <point x="495" y="2048" type="line"/>
      <point x="265" y="587" type="line"/>
      <point x="441" y="587" type="line"/>
    </contour>
    <component base="period" xOffset="7"/>
  </outline>
</glyph>
<glyph name="numbersign" format="2">
  <advance width="1779"/>
  <unicode hex="0023"/>
  <note>
1. outline
2. slant 9.4 deg
3. remove extra shapes created by outlining
</note>
  <outline>
    <contour>
      <point x="1028" y="0" type="line"/>
      <point x="1183" y="0" type="line"/>
      <point x="1555" y="2048" type="line"/>
      <point x="1400" y="2048" type="line"/>
    </contour>
    <contour>
      <point x="88" y="591" type="line"/>
      <point x="1616" y="591" type="line"/>
      <point x="1644" y="745" type="line"/>
      <point x="116" y="745" type="line"/>
    </contour>
    <contour>
      <point x="308" y="0" type="line"/>
      <point x="463" y="0" type="line"/>
      <point x="835" y="2048" type="line"/>
      <point x="680" y="2048" type="line"/>
    </contour>
    <contour>
      <point x="219" y="1303" type="line"/>
      <point x="1747" y="1303" type="line"/>
      <point x="1775" y="1457" type="line"/>
      <point x="247" y="1457" type="line"/>
    </contour>
  </outline>
</glyph>
<glyph name="dollar" format="2">
  <advance width="1772"/>
  <unicode hex="0024"/>
  <outline>
    <contour>
      <point x="653" y="-256" type="line"/>
      <point x="784" y="-256" type="line"/>
      <point x="1208" y="2304" type="line"/>
      <point x="1077" y="2304" type="line"/>
    </contour>
    <component base="S"/>
  </outline>
</glyph>
<glyph name="percent" format="2">
  <advance width="2251"/>
  <unicode hex="0025"/>
  <outline>
    <contour>
      <point x="1200" y="380" type="line" smooth="yes"/>
      <point x="1163" y="151"/>
      <point x="1275" y="-28"/>
      <point x="1511" y="-28" type="curve" smooth="yes"/>
      <point x="1745" y="-28"/>
      <point x="1917" y="151"/>
      <point x="1955" y="380" type="curve" smooth="yes"/>
      <point x="1971" y="473" type="line" smooth="yes"/>
      <point x="2008" y="703"/>
      <point x="1899" y="881"/>
      <point x="1663" y="881" type="curve" smooth="yes"/>
      <point x="1428" y="881"/>
      <point x="1253" y="703"/>
      <point x="1216" y="473" type="curve" smooth="yes"/>
    </contour>
    <contour>
      <point x="1373" y="473" type="line" smooth="yes"/>
      <point x="1399" y="624"/>
      <point x="1496" y="745"/>
      <point x="1640" y="745" type="curve" smooth="yes"/>
      <point x="1787" y="745"/>
      <point x="1839" y="624"/>
      <point x="1813" y="473" type="curve" smooth="yes"/>
      <point x="1797" y="380" type="line" smooth="yes"/>
      <point x="1772" y="229"/>
      <point x="1677" y="108"/>
      <point x="1533" y="108" type="curve" smooth="yes"/>
      <point x="1385" y="108"/>
      <point x="1332" y="229"/>
      <point x="1357" y="380" type="curve" smooth="yes"/>
    </contour>
    <contour>
      <point x="367" y="1575" type="line" smooth="yes"/>
      <point x="327" y="1345"/>
      <point x="441" y="1167"/>
      <point x="677" y="1167" type="curve" smooth="yes"/>
      <point x="912" y="1167"/>
      <point x="1081" y="1345"/>
      <point x="1121" y="1575" type="curve" smooth="yes"/>
      <point x="1136" y="1668" type="line" smooth="yes"/>
      <point x="1172" y="1897"/>
      <point x="1064" y="2076"/>
      <point x="827" y="2076" type="curve" smooth="yes"/>
      <point x="593" y="2076"/>
      <point x="417" y="1897"/>
      <point x="381" y="1668" type="curve" smooth="yes"/>
    </contour>
    <contour>
      <point x="539" y="1668" type="line" smooth="yes"/>
      <point x="563" y="1819"/>
      <point x="660" y="1940"/>
      <point x="804" y="1940" type="curve" smooth="yes"/>
      <point x="952" y="1940"/>
      <point x="1003" y="1819"/>
      <point x="979" y="1668" type="curve" smooth="yes"/>
      <point x="964" y="1575" type="line" smooth="yes"/>
      <point x="936" y="1424"/>
      <point x="844" y="1303"/>
      <point x="700" y="1303" type="curve" smooth="yes"/>
      <point x="553" y="1303"/>
      <point x="496" y="1424"/>
      <point x="524" y="1575" type="curve" smooth="yes"/>
    </contour>
    <component base="fraction" xOffset="717"/>
  </outline>
</glyph>
<glyph name="ampersand" format="2">
  <advance width="1748"/>
  <unicode hex="0026"/>
  <outline>
    <contour>
      <point x="651" y="-28" type="curve" smooth="yes"/>
      <point x="849" y="-28"/>
      <point x="1075" y="51"/>
      <point x="1234" y="196" type="curve" smooth="yes"/>
      <point x="1254" y="215"/>
      <point x="1276" y="235"/>
      <point x="1295" y="256" type="curve" smooth="yes"/>
      <point x="1386" y="352"/>
      <point x="1549" y="513"/>
      <point x="1614" y="843" type="curve"/>
      <point x="1441" y="845" type="line"/>
      <point x="1347" y="414"/>
      <point x="1007" y="135"/>
      <point x="669" y="132" type="curve" smooth="yes"/>
      <point x="410" y="130"/>
      <point x="264" y="317"/>
      <point x="299" y="533" type="curve" smooth="yes"/>
      <point x="313" y="625"/>
      <point x="399" y="760"/>
      <point x="630" y="913" type="curve" smooth="yes"/>
      <point x="1046" y="1191" type="line" smooth="yes"/>
      <point x="1250" y="1327"/>
      <point x="1370" y="1461"/>
      <point x="1401" y="1647" type="curve" smooth="yes"/>
      <point x="1440" y="1879"/>
      <point x="1289" y="2071"/>
      <point x="1006" y="2071" type="curve" smooth="yes"/>
      <point x="728" y="2071"/>
      <point x="498" y="1879"/>
      <point x="455" y="1617" type="curve" smooth="yes"/>
      <point x="421" y="1405"/>
      <point x="543" y="1254"/>
      <point x="707" y="1001" type="curve" smooth="yes"/>
      <point x="1357" y="0" type="line"/>
      <point x="1573" y="0" type="line"/>
      <point x="830" y="1156" type="line" smooth="yes"/>
      <point x="711" y="1343"/>
      <point x="611" y="1475"/>
      <point x="634" y="1615" type="curve" smooth="yes"/>
      <point x="658" y="1765"/>
      <point x="819" y="1913"/>
      <point x="989" y="1913" type="curve" smooth="yes"/>
      <point x="1153" y="1913"/>
      <point x="1241" y="1784"/>
      <point x="1219" y="1647" type="curve" smooth="yes"/>
      <point x="1196" y="1505"/>
      <point x="1106" y="1417"/>
      <point x="947" y="1317" type="curve" smooth="yes"/>
      <point x="614" y="1096" type="line" smooth="yes"/>
      <point x="329" y="916"/>
      <point x="155" y="765"/>
      <point x="118" y="533" type="curve" smooth="yes"/>
      <point x="63" y="212"/>
      <point x="274" y="-28"/>
    </contour>
  </outline>
</glyph>
<glyph name="quotesingle" format="2">
  <advance width="608"/>
  <unicode hex="0027"/>
  <outline>
    <contour>
      <point x="599" y="2048" type="line"/>
      <point x="431" y="2048" type="line"/>
      <point x="317" y="1365" type="line"/>
      <point x="485" y="1365" type="line"/>
    </contour>
  </outline>
</glyph>
<glyph name="parenleft" format="2">
  <advance width="976"/>
  <unicode hex="0028"/>
  <outline>
    <contour>
      <point x="325" y="864" type="curve" smooth="yes"/>
      <point x="245" y="385"/>
      <point x="301" y="-41"/>
      <point x="465" y="-416" type="curve"/>
      <point x="627" y="-416" type="line"/>
      <point x="485" y="-103"/>
      <point x="432" y="403"/>
      <point x="509" y="864" type="curve" smooth="yes"/>
      <point x="587" y="1324"/>
      <point x="804" y="1831"/>
      <point x="1051" y="2144" type="curve"/>
      <point x="889" y="2144" type="line"/>
      <point x="600" y="1771"/>
      <point x="405" y="1344"/>
    </contour>
  </outline>
</glyph>
<glyph name="asterisk" format="2">
  <advance width="1408"/>
  <unicode hex="002A"/>
  <note>
hexagonal angle: 30 deg
</note>
  <outline>
    <contour>
      <point x="649" y="896" type="line"/>
      <point x="799" y="896" type="line"/>
      <point x="868" y="1364" type="line"/>
      <point x="1229" y="1119" type="line"/>
      <point x="1323" y="1249" type="line"/>
      <point x="948" y="1471" type="line"/>
      <point x="1395" y="1695" type="line"/>
      <point x="1336" y="1825" type="line"/>
      <point x="903" y="1581" type="line"/>
      <point x="991" y="2048" type="line"/>
      <point x="841" y="2048" type="line"/>
      <point x="775" y="1580" type="line"/>
      <point x="413" y="1825" type="line"/>
      <point x="320" y="1695" type="line"/>
      <point x="695" y="1473" type="line"/>
      <point x="248" y="1249" type="line"/>
      <point x="304" y="1119" type="line"/>
      <point x="740" y="1363" type="line"/>
    </contour>
  </outline>
</glyph>
<glyph name="plus" format="2">
  <advance width="1835"/>
  <unicode hex="002B"/>
  <outline>
    <contour>
      <point x="732" y="167" type="line"/>
      <point x="904" y="167" type="line"/>
      <point x="1113" y="1433" type="line"/>
      <point x="941" y="1433" type="line"/>
    </contour>
    <contour>
      <point x="275" y="715" type="line"/>
      <point x="1541" y="715" type="line"/>
      <point x="1571" y="885" type="line"/>
      <point x="304" y="885" type="line"/>
    </contour>
  </outline>
</glyph>
<glyph name="comma" format="2">
  <advance width="767"/>
  <unicode hex="002C"/>
  <outline>
    <contour>
      <point x="447" y="280" type="line"/>
      <point x="253" y="280" type="line"/>
      <point x="219" y="168" type="line" smooth="yes"/>
      <point x="139" y="-103"/>
      <point x="41" y="-364"/>
      <point x="-5" y="-500" type="curve"/>
      <point x="132" y="-500" type="line"/>
      <point x="201" y="-359"/>
      <point x="336" y="-43"/>
      <point x="409" y="173" type="curve" smooth="yes"/>
    </contour>
  </outline>
</glyph>
<glyph name="period" format="2">
  <advance width="755"/>
  <unicode hex="002E"/>
  <outline>
    <contour>
      <point x="269" y="-15" type="curve" smooth="yes"/>
      <point x="348" y="-15"/>
      <point x="413" y="49"/>
      <point x="416" y="129" type="curve" smooth="yes"/>
      <point x="419" y="207"/>
      <point x="353" y="271"/>
      <point x="275" y="271" type="curve" smooth="yes"/>
      <point x="196" y="271"/>
      <point x="128" y="209"/>
      <point x="128" y="129" type="curve" smooth="yes"/>
      <point x="128" y="49"/>
      <point x="188" y="-15"/>
    </contour>
  </outline>
</glyph>
<glyph name="zero" format="2">
  <advance width="1728"/>
  <unicode hex="0030"/>
  <outline>
    <contour>
      <point x="731" y="-28" type="curve" smooth="yes"/>
      <point x="1162" y="-28"/>
      <point x="1480" y="361"/>
      <point x="1591" y="1024" type="curve" smooth="yes"/>
      <point x="1701" y="1683"/>
      <point x="1507" y="2076"/>
      <point x="1079" y="2076" type="curve" smooth="yes"/>
      <point x="650" y="2076"/>
      <point x="331" y="1683"/>
      <point x="223" y="1024" type="curve" smooth="yes"/>
      <point x="114" y="360"/>
      <point x="299" y="-28"/>
    </contour>
    <contour>
      <point x="756" y="140" type="curve" smooth="yes"/>
      <point x="439" y="140"/>
      <point x="312" y="469"/>
      <point x="404" y="1024" type="curve" smooth="yes"/>
      <point x="497" y="1589"/>
      <point x="742" y="1911"/>
      <point x="1055" y="1911" type="curve" smooth="yes"/>
      <point x="1370" y="1911"/>
      <point x="1501" y="1578"/>
      <point x="1409" y="1024" type="curve" smooth="yes"/>
      <point x="1316" y="458"/>
      <point x="1070" y="140"/>
    </contour>
  </outline>
</glyph>
<glyph name="one" format="2">
  <advance width="1255"/>
  <unicode hex="0031"/>
  <outline>
    <contour>
      <point x="1072" y="2048" type="line"/>
      <point x="877" y="2048" type="line"/>
      <point x="340" y="1727" type="line"/>
      <point x="307" y="1533" type="line"/>
      <point x="840" y="1852" type="line"/>
      <point x="852" y="1852" type="line"/>
      <point x="545" y="0" type="line"/>
      <point x="732" y="0" type="line"/>
    </contour>
  </outline>
</glyph>
<glyph name="two" format="2">
  <advance width="1719"/>
  <unicode hex="0032"/>
  <outline>
    <contour>
      <point x="100" y="0" type="line"/>
      <point x="1373" y="0" type="line"/>
      <point x="1401" y="168" type="line"/>
      <point x="388" y="168" type="line"/>
      <point x="391" y="181" type="line"/>
      <point x="992" y="748" type="line" smooth="yes"/>
      <point x="1395" y="1123"/>
      <point x="1524" y="1293"/>
      <point x="1563" y="1521" type="curve" smooth="yes"/>
      <point x="1615" y="1833"/>
      <point x="1412" y="2076"/>
      <point x="1069" y="2076" type="curve" smooth="yes"/>
      <point x="723" y="2076"/>
      <point x="421" y="1832"/>
      <point x="365" y="1493" type="curve"/>
      <point x="544" y="1493" type="line"/>
      <point x="585" y="1735"/>
      <point x="788" y="1911"/>
      <point x="1040" y="1911" type="curve" smooth="yes"/>
      <point x="1280" y="1911"/>
      <point x="1425" y="1755"/>
      <point x="1387" y="1521" type="curve" smooth="yes"/>
      <point x="1355" y="1328"/>
      <point x="1227" y="1184"/>
      <point x="916" y="889" type="curve" smooth="yes"/>
      <point x="124" y="137" type="line"/>
    </contour>
  </outline>
</glyph>
<glyph name="three" format="2">
  <advance width="1771"/>
  <unicode hex="0033"/>
  <outline>
    <contour>
      <point x="769" y="-28" type="curve" smooth="yes"/>
      <point x="1158" y="-28"/>
      <point x="1462" y="199"/>
      <point x="1517" y="537" type="curve" smooth="yes"/>
      <point x="1561" y="797"/>
      <point x="1435" y="999"/>
      <point x="1181" y="1051" type="curve"/>
      <point x="1181" y="1061" type="line"/>
      <point x="1406" y="1127"/>
      <point x="1573" y="1295"/>
      <point x="1609" y="1525" type="curve" smooth="yes"/>
      <point x="1659" y="1823"/>
      <point x="1467" y="2076"/>
      <point x="1103" y="2076" type="curve" smooth="yes"/>
      <point x="764" y="2076"/>
      <point x="459" y="1855"/>
      <point x="400" y="1536" type="curve"/>
      <point x="581" y="1536" type="line"/>
      <point x="621" y="1765"/>
      <point x="857" y="1911"/>
      <point x="1096" y="1911" type="curve" smooth="yes"/>
      <point x="1343" y="1911"/>
      <point x="1467" y="1758"/>
      <point x="1431" y="1539" type="curve" smooth="yes"/>
      <point x="1391" y="1293"/>
      <point x="1169" y="1136"/>
      <point x="904" y="1136" type="curve" smooth="yes"/>
      <point x="789" y="1136" type="line"/>
      <point x="763" y="968" type="line"/>
      <point x="885" y="968" type="line" smooth="yes"/>
      <point x="1210" y="968"/>
      <point x="1373" y="799"/>
      <point x="1336" y="559" type="curve" smooth="yes"/>
      <point x="1297" y="309"/>
      <point x="1052" y="140"/>
      <point x="772" y="140" type="curve" smooth="yes"/>
      <point x="508" y="140"/>
      <point x="345" y="289"/>
      <point x="372" y="512" type="curve"/>
      <point x="185" y="512" type="line"/>
      <point x="140" y="192"/>
      <point x="387" y="-28"/>
    </contour>
  </outline>
</glyph>
<glyph name="four" format="2">
  <advance width="1764"/>
  <unicode hex="0034"/>
  <outline>
    <contour>
      <point x="125" y="440" type="line"/>
      <point x="1532" y="440" type="line"/>
      <point x="1560" y="608" type="line"/>
      <point x="363" y="608" type="line"/>
      <point x="363" y="621" type="line"/>
      <point x="1292" y="1793" type="line"/>
      <point x="1375" y="1793" type="line"/>
      <point x="1416" y="2048" type="line"/>
      <point x="1304" y="2048" type="line"/>
      <point x="149" y="592" type="line"/>
    </contour>
    <contour>
      <point x="1007" y="0" type="line"/>
      <point x="1185" y="0" type="line"/>
      <point x="1525" y="2048" type="line"/>
      <point x="1347" y="2048" type="line"/>
      <point x="1100" y="557" type="line"/>
      <point x="1088" y="489" type="line"/>
    </contour>
  </outline>
</glyph>
<glyph name="five" format="2">
  <advance width="1677"/>
  <unicode hex="0035"/>
  <outline>
    <contour>
      <point x="695" y="-28" type="curve" smooth="yes"/>
      <point x="1074" y="-28"/>
      <point x="1395" y="259"/>
      <point x="1460" y="647" type="curve" smooth="yes"/>
      <point x="1529" y="1042"/>
      <point x="1295" y="1324"/>
      <point x="935" y="1324" type="curve" smooth="yes"/>
      <point x="786" y="1324"/>
      <point x="643" y="1272"/>
      <point x="540" y="1195" type="curve"/>
      <point x="529" y="1195" type="line"/>
      <point x="725" y="1880" type="line"/>
      <point x="1580" y="1880" type="line"/>
      <point x="1608" y="2048" type="line"/>
      <point x="596" y="2048" type="line"/>
      <point x="308" y="1053" type="line"/>
      <point x="491" y="1029" type="line"/>
      <point x="591" y="1101"/>
      <point x="745" y="1153"/>
      <point x="881" y="1153" type="curve" smooth="yes"/>
      <point x="1155" y="1153"/>
      <point x="1327" y="944"/>
      <point x="1279" y="644" type="curve" smooth="yes"/>
      <point x="1231" y="355"/>
      <point x="993" y="140"/>
      <point x="719" y="140" type="curve" smooth="yes"/>
      <point x="485" y="140"/>
      <point x="337" y="296"/>
      <point x="360" y="512" type="curve"/>
      <point x="179" y="512" type="line"/>
      <point x="137" y="199"/>
      <point x="354" y="-28"/>
    </contour>
  </outline>
</glyph>
<glyph name="six" format="2">
  <advance width="1717"/>
  <unicode hex="0036"/>
  <outline>
    <contour>
      <point x="752" y="-28" type="curve" smooth="yes"/>
      <point x="1138" y="-31"/>
      <point x="1437" y="272"/>
      <point x="1500" y="633" type="curve" smooth="yes"/>
      <point x="1565" y="1024"/>
      <point x="1324" y="1311"/>
      <point x="976" y="1311" type="curve" smooth="yes"/>
      <point x="759" y="1311"/>
      <point x="551" y="1197"/>
      <point x="424" y="1017" type="curve"/>
      <point x="411" y="1007" type="line"/>
      <point x="509" y="1596"/>
      <point x="769" y="1911"/>
      <point x="1105" y="1911" type="curve" smooth="yes"/>
      <point x="1340" y="1911"/>
      <point x="1449" y="1757"/>
      <point x="1445" y="1536" type="curve"/>
      <point x="1624" y="1536" type="line"/>
      <point x="1637" y="1859"/>
      <point x="1437" y="2079"/>
      <point x="1109" y="2079" type="curve" smooth="yes"/>
      <point x="640" y="2079"/>
      <point x="336" y="1613"/>
      <point x="227" y="949" type="curve" smooth="yes"/>
      <point x="105" y="225"/>
      <point x="407" y="-26"/>
    </contour>
    <contour>
      <point x="757" y="140" type="curve" smooth="yes"/>
      <point x="504" y="140"/>
      <point x="359" y="344"/>
      <point x="383" y="621" type="curve" smooth="yes"/>
      <point x="408" y="896"/>
      <point x="671" y="1143"/>
      <point x="948" y="1143" type="curve" smooth="yes"/>
      <point x="1209" y="1143"/>
      <point x="1365" y="925"/>
      <point x="1321" y="655" type="curve" smooth="yes"/>
      <point x="1273" y="371"/>
      <point x="1027" y="140"/>
    </contour>
  </outline>
</glyph>
<glyph name="seven" format="2">
  <advance width="1585"/>
  <unicode hex="0037"/>
  <outline>
    <contour>
      <point x="159" y="0" type="line"/>
      <point x="356" y="0" type="line"/>
      <point x="1597" y="1872" type="line"/>
      <point x="1628" y="2048" type="line"/>
      <point x="357" y="2048" type="line"/>
      <point x="329" y="1880" type="line"/>
      <point x="1404" y="1880" type="line"/>
      <point x="1401" y="1867" type="line"/>
    </contour>
  </outline>
</glyph>
<glyph name="eight" format="2">
  <advance width="1723"/>
  <unicode hex="0038"/>
  <note>
essentially two conjoined "three" glyphs
</note>
  <outline>
    <contour>
      <point x="740" y="-28" type="curve" smooth="yes"/>
      <point x="1123" y="-28"/>
      <point x="1443" y="207"/>
      <point x="1497" y="528" type="curve" smooth="yes"/>
      <point x="1541" y="786"/>
      <point x="1397" y="1013"/>
      <point x="1172" y="1061" type="curve"/>
      <point x="1172" y="1069" type="line"/>
      <point x="1379" y="1125"/>
      <point x="1551" y="1303"/>
      <point x="1591" y="1529" type="curve" smooth="yes"/>
      <point x="1643" y="1840"/>
      <point x="1413" y="2076"/>
      <point x="1067" y="2076" type="curve" smooth="yes"/>
      <point x="728" y="2076"/>
      <point x="443" y="1854"/>
      <point x="388" y="1551" type="curve" smooth="yes"/>
      <point x="346" y="1327"/>
      <point x="444" y="1128"/>
      <point x="636" y="1069" type="curve"/>
      <point x="636" y="1061" type="line"/>
      <point x="397" y="1016"/>
      <point x="189" y="799"/>
      <point x="148" y="549" type="curve" smooth="yes"/>
      <point x="93" y="224"/>
      <point x="342" y="-28"/>
    </contour>
    <contour>
      <point x="744" y="140" type="curve" smooth="yes"/>
      <point x="457" y="140"/>
      <point x="295" y="303"/>
      <point x="332" y="537" type="curve" smooth="yes"/>
      <point x="372" y="788"/>
      <point x="627" y="977"/>
      <point x="912" y="977" type="curve" smooth="yes"/>
      <point x="1187" y="977"/>
      <point x="1357" y="801"/>
      <point x="1319" y="559" type="curve" smooth="yes"/>
      <point x="1280" y="316"/>
      <point x="1043" y="140"/>
    </contour>
    <contour>
      <point x="908" y="1137" type="curve" smooth="yes"/>
      <point x="674" y="1137"/>
      <point x="527" y="1293"/>
      <point x="564" y="1519" type="curve" smooth="yes"/>
      <point x="601" y="1748"/>
      <point x="812" y="1911"/>
      <point x="1065" y="1911" type="curve" smooth="yes"/>
      <point x="1307" y="1911"/>
      <point x="1450" y="1764"/>
      <point x="1412" y="1540" type="curve" smooth="yes"/>
      <point x="1372" y="1310"/>
      <point x="1156" y="1137"/>
    </contour>
  </outline>
</glyph>
<glyph name="nine" format="2">
  <advance width="1717"/>
  <unicode hex="0039"/>
  <note>
six mirrored
</note>
  <outline>
    <contour>
      <point x="1053" y="2080" type="curve" smooth="yes"/>
      <point x="667" y="2083"/>
      <point x="368" y="1780"/>
      <point x="305" y="1419" type="curve" smooth="yes"/>
      <point x="239" y="1028"/>
      <point x="481" y="741"/>
      <point x="829" y="741" type="curve" smooth="yes"/>
      <point x="1047" y="741"/>
      <point x="1255" y="855"/>
      <point x="1381" y="1035" type="curve"/>
      <point x="1395" y="1045" type="line"/>
      <point x="1296" y="456"/>
      <point x="1036" y="140"/>
      <point x="700" y="140" type="curve" smooth="yes"/>
      <point x="464" y="140"/>
      <point x="357" y="295"/>
      <point x="360" y="516" type="curve"/>
      <point x="181" y="516" type="line"/>
      <point x="168" y="193"/>
      <point x="368" y="-28"/>
      <point x="696" y="-28" type="curve" smooth="yes"/>
      <point x="1165" y="-28"/>
      <point x="1469" y="439"/>
      <point x="1579" y="1103" type="curve" smooth="yes"/>
      <point x="1698" y="1827"/>
      <point x="1399" y="2077"/>
    </contour>
    <contour>
      <point x="1048" y="1912" type="curve" smooth="yes"/>
      <point x="1301" y="1912"/>
      <point x="1447" y="1708"/>
      <point x="1423" y="1431" type="curve" smooth="yes"/>
      <point x="1398" y="1156"/>
      <point x="1135" y="909"/>
      <point x="857" y="909" type="curve" smooth="yes"/>
      <point x="596" y="909"/>
      <point x="440" y="1127"/>
      <point x="484" y="1397" type="curve" smooth="yes"/>
      <point x="530" y="1682"/>
      <point x="779" y="1912"/>
    </contour>
  </outline>
</glyph>
<glyph name="less" format="2">
  <advance width="1835"/>
  <unicode hex="003C"/>
  <note>
Recipe: Make rect and rotate 63deg (regular) or 69deg (black)
</note>
  <guideline x="275" y="800" angle="0.0"/>
  <outline>
    <contour>
      <point x="299" y="736" type="line"/>
      <point x="1412" y="61" type="line"/>
      <point x="1445" y="257" type="line"/>
      <point x="528" y="799" type="line"/>
      <point x="537" y="781" type="line"/>
      <point x="541" y="819" type="line"/>
      <point x="531" y="801" type="line"/>
      <point x="1625" y="1343" type="line"/>
      <point x="1656" y="1539" type="line"/>
      <point x="321" y="864" type="line"/>
    </contour>
  </outline>
</glyph>
<glyph name="equal" format="2">
  <advance width="1835"/>
  <unicode hex="003D"/>
  <outline>
    <contour>
      <point x="387" y="1004" type="line"/>
      <point x="1525" y="1004" type="line"/>
      <point x="1553" y="1169" type="line"/>
      <point x="415" y="1169" type="line"/>
    </contour>
    <contour>
      <point x="292" y="431" type="line"/>
      <point x="1431" y="431" type="line"/>
      <point x="1459" y="596" type="line"/>
      <point x="320" y="596" type="line"/>
    </contour>
  </outline>
</glyph>
<glyph name="question" format="2">
  <advance width="1401"/>
  <unicode hex="003F"/>
  <outline>
    <contour>
      <point x="515" y="587" type="line"/>
      <point x="696" y="587" type="line"/>
      <point x="707" y="649" type="line" smooth="yes"/>
      <point x="745" y="865"/>
      <point x="823" y="965"/>
      <point x="1021" y="1081" type="curve" smooth="yes"/>
      <point x="1231" y="1203"/>
      <point x="1351" y="1332"/>
      <point x="1385" y="1549" type="curve" smooth="yes"/>
      <point x="1433" y="1849"/>
      <point x="1246" y="2076"/>
      <point x="912" y="2076" type="curve" smooth="yes"/>
      <point x="593" y="2076"/>
      <point x="312" y="1866"/>
      <point x="247" y="1536" type="curve"/>
      <point x="436" y="1536" type="line"/>
      <point x="485" y="1779"/>
      <point x="688" y="1916"/>
      <point x="891" y="1916" type="curve" smooth="yes"/>
      <point x="1101" y="1916"/>
      <point x="1237" y="1774"/>
      <point x="1204" y="1557" type="curve" smooth="yes"/>
      <point x="1180" y="1391"/>
      <point x="1073" y="1293"/>
      <point x="915" y="1199" type="curve" smooth="yes"/>
      <point x="700" y="1074"/>
      <point x="580" y="961"/>
      <point x="525" y="649" type="curve" smooth="yes"/>
    </contour>
    <component base="period" xOffset="264"/>
  </outline>
</glyph>
<glyph name="at" format="2">
  <advance width="2636"/>
  <unicode hex="0040"/>
  <outline>
    <contour>
      <point x="1155" y="-541" type="curve" smooth="yes"/>
      <point x="1368" y="-541"/>
      <point x="1625" y="-477"/>
      <point x="1787" y="-397" type="curve"/>
      <point x="1757" y="-257" type="line"/>
      <point x="1640" y="-316"/>
      <point x="1401" y="-392"/>
      <point x="1181" y="-392" type="curve" smooth="yes"/>
      <point x="520" y="-392"/>
      <point x="185" y="41"/>
      <point x="297" y="715" type="curve" smooth="yes"/>
      <point x="405" y="1380"/>
      <point x="899" y="1824"/>
      <point x="1523" y="1824" type="curve" smooth="yes"/>
      <point x="2151" y="1824"/>
      <point x="2436" y="1348"/>
      <point x="2349" y="829" type="curve" smooth="yes"/>
      <point x="2280" y="416"/>
      <point x="2152" y="199"/>
      <point x="1935" y="199" type="curve" smooth="yes"/>
      <point x="1815" y="199"/>
      <point x="1776" y="281"/>
      <point x="1797" y="421" type="curve" smooth="yes"/>
      <point x="1953" y="1351" type="line"/>
      <point x="1791" y="1351" type="line"/>
      <point x="1759" y="1167" type="line"/>
      <point x="1748" y="1167" type="line"/>
      <point x="1720" y="1293"/>
      <point x="1569" y="1389"/>
      <point x="1363" y="1376" type="curve" smooth="yes"/>
      <point x="1055" y="1355"/>
      <point x="776" y="1091"/>
      <point x="716" y="728" type="curve" smooth="yes"/>
      <point x="652" y="352"/>
      <point x="808" y="59"/>
      <point x="1143" y="51" type="curve" smooth="yes"/>
      <point x="1365" y="45"/>
      <point x="1528" y="165"/>
      <point x="1613" y="309" type="curve"/>
      <point x="1624" y="309" type="line"/>
      <point x="1609" y="119"/>
      <point x="1761" y="52"/>
      <point x="1908" y="52" type="curve" smooth="yes"/>
      <point x="2285" y="52"/>
      <point x="2447" y="447"/>
      <point x="2509" y="827" type="curve" smooth="yes"/>
      <point x="2605" y="1424"/>
      <point x="2267" y="1971"/>
      <point x="1552" y="1971" type="curve" smooth="yes"/>
      <point x="820" y="1971"/>
      <point x="252" y="1472"/>
      <point x="129" y="720" type="curve" smooth="yes"/>
      <point x="3" y="-49"/>
      <point x="393" y="-541"/>
    </contour>
    <contour>
      <point x="1188" y="208" type="curve" smooth="yes"/>
      <point x="923" y="208"/>
      <point x="831" y="455"/>
      <point x="876" y="736" type="curve" smooth="yes"/>
      <point x="920" y="1001"/>
      <point x="1124" y="1224"/>
      <point x="1368" y="1224" type="curve" smooth="yes"/>
      <point x="1620" y="1224"/>
      <point x="1751" y="1071"/>
      <point x="1696" y="736" type="curve" smooth="yes"/>
      <point x="1640" y="404"/>
      <point x="1459" y="208"/>
    </contour>
  </outline>
</glyph>
<glyph name="A" format="2">
  <advance width="1848"/>
  <unicode hex="0041"/>
  <outline>
    <contour>
      <point x="147" y="0" type="line"/>
      <point x="1091" y="1805" type="line"/>
      <point x="1104" y="1805" type="line"/>
      <point x="1445" y="0" type="line"/>
      <point x="1641" y="0" type="line"/>
      <point x="1236" y="2048" type="line"/>
      <point x="1036" y="2048" type="line"/>
      <point x="-49" y="0" type="line"/>
    </contour>
    <contour>
      <point x="419" y="785" type="line"/>
      <point x="391" y="617" type="line"/>
      <point x="1407" y="617" type="line"/>
      <point x="1435" y="785" type="line"/>
    </contour>
  </outline>
</glyph>
<glyph name="B" format="2">
  <advance width="1823"/>
  <unicode hex="0042"/>
  <outline>
    <contour>
      <point x="144" y="0" type="line"/>
      <point x="873" y="0" type="line" smooth="yes"/>
      <point x="1313" y="0"/>
      <point x="1555" y="227"/>
      <point x="1607" y="537" type="curve" smooth="yes"/>
      <point x="1657" y="848"/>
      <point x="1481" y="1035"/>
      <point x="1285" y="1049" type="curve"/>
      <point x="1288" y="1065" type="line"/>
      <point x="1477" y="1115"/>
      <point x="1643" y="1256"/>
      <point x="1685" y="1512" type="curve" smooth="yes"/>
      <point x="1739" y="1820"/>
      <point x="1575" y="2048"/>
      <point x="1175" y="2048" type="curve" smooth="yes"/>
      <point x="484" y="2048" type="line"/>
    </contour>
    <contour>
      <point x="359" y="168" type="line"/>
      <point x="491" y="957" type="line"/>
      <point x="1041" y="957" type="line" smooth="yes"/>
      <point x="1316" y="957"/>
      <point x="1465" y="771"/>
      <point x="1428" y="537" type="curve" smooth="yes"/>
      <point x="1391" y="325"/>
      <point x="1217" y="168"/>
      <point x="901" y="168" type="curve" smooth="yes"/>
    </contour>
    <contour>
      <point x="519" y="1123" type="line"/>
      <point x="643" y="1880" type="line"/>
      <point x="1147" y="1880" type="line" smooth="yes"/>
      <point x="1428" y="1880"/>
      <point x="1544" y="1729"/>
      <point x="1507" y="1512" type="curve" smooth="yes"/>
      <point x="1472" y="1287"/>
      <point x="1281" y="1123"/>
      <point x="1040" y="1123" type="curve" smooth="yes"/>
    </contour>
  </outline>
</glyph>
<glyph name="C" format="2">
  <advance width="2044"/>
  <unicode hex="0043"/>
  <outline>
    <contour>
      <point x="1979" y="1408" type="line"/>
      <point x="1973" y="1785"/>
      <point x="1710" y="2076"/>
      <point x="1272" y="2076" type="curve" smooth="yes"/>
      <point x="758" y="2076"/>
      <point x="329" y="1671"/>
      <point x="223" y="1035" type="curve" smooth="yes"/>
      <point x="115" y="388"/>
      <point x="420" y="-28"/>
      <point x="943" y="-28" type="curve" smooth="yes"/>
      <point x="1373" y="-28"/>
      <point x="1723" y="264"/>
      <point x="1855" y="640" type="curve"/>
      <point x="1667" y="640" type="line"/>
      <point x="1562" y="359"/>
      <point x="1278" y="148"/>
      <point x="952" y="148" type="curve" smooth="yes"/>
      <point x="569" y="148"/>
      <point x="307" y="449"/>
      <point x="401" y="1013" type="curve" smooth="yes"/>
      <point x="495" y="1585"/>
      <point x="867" y="1900"/>
      <point x="1260" y="1900" type="curve" smooth="yes"/>
      <point x="1576" y="1900"/>
      <point x="1784" y="1688"/>
      <point x="1793" y="1408" type="curve"/>
    </contour>
  </outline>
</glyph>
<glyph name="D" format="2">
  <advance width="2020"/>
  <unicode hex="0044"/>
  <note>
!post:RemoveOverlap
</note>
  <outline>
    <contour>
      <point x="749" y="0" type="line" smooth="yes"/>
      <point x="1365" y="0"/>
      <point x="1775" y="380"/>
      <point x="1881" y="1019" type="curve" smooth="yes"/>
      <point x="1989" y="1660"/>
      <point x="1700" y="2048"/>
      <point x="1115" y="2048" type="curve" smooth="yes"/>
      <point x="580" y="2048" type="line"/>
      <point x="552" y="1880" type="line"/>
      <point x="1087" y="1880" type="line" smooth="yes"/>
      <point x="1588" y="1880"/>
      <point x="1791" y="1568"/>
      <point x="1703" y="1040" type="curve" smooth="yes"/>
      <point x="1615" y="503"/>
      <point x="1283" y="168"/>
      <point x="759" y="168" type="curve" smooth="yes"/>
      <point x="276" y="168" type="line"/>
      <point x="248" y="0" type="line"/>
    </contour>
    <contour>
      <point x="671" y="2048" type="line"/>
      <point x="484" y="2048" type="line"/>
      <point x="144" y="0" type="line"/>
      <point x="331" y="0" type="line"/>
    </contour>
  </outline>
</glyph>
<glyph name="E" format="2">
  <advance width="1671"/>
  <unicode hex="0045"/>
  <outline>
    <contour>
      <point x="144" y="0" type="line"/>
      <point x="1352" y="0" type="line"/>
      <point x="1380" y="168" type="line"/>
      <point x="359" y="168" type="line"/>
      <point x="487" y="941" type="line"/>
      <point x="1425" y="941" type="line"/>
      <point x="1453" y="1109" type="line"/>
      <point x="515" y="1109" type="line"/>
      <point x="643" y="1880" type="line"/>
      <point x="1644" y="1880" type="line"/>
      <point x="1672" y="2048" type="line"/>
      <point x="484" y="2048" type="line"/>
    </contour>
  </outline>
</glyph>
<glyph name="F" format="2">
  <advance width="1651"/>
  <unicode hex="0046"/>
  <outline>
    <contour>
      <point x="144" y="0" type="line"/>
      <point x="331" y="0" type="line"/>
      <point x="487" y="941" type="line"/>
      <point x="1392" y="941" type="line"/>
      <point x="1420" y="1109" type="line"/>
      <point x="515" y="1109" type="line"/>
      <point x="643" y="1880" type="line"/>
      <point x="1641" y="1880" type="line"/>
      <point x="1669" y="2048" type="line"/>
      <point x="484" y="2048" type="line"/>
    </contour>
  </outline>
</glyph>
<glyph name="G" format="2">
  <advance width="2088"/>
  <unicode hex="0047"/>
  <outline>
    <contour>
      <point x="1792" y="1408" type="curve"/>
      <point x="1984" y="1408" type="line"/>
      <point x="1979" y="1769"/>
      <point x="1724" y="2076"/>
      <point x="1275" y="2076" type="curve" smooth="yes"/>
      <point x="758" y="2076"/>
      <point x="326" y="1665"/>
      <point x="223" y="1024" type="curve" smooth="yes"/>
      <point x="115" y="383"/>
      <point x="404" y="-28"/>
      <point x="940" y="-28" type="curve" smooth="yes"/>
      <point x="1419" y="-28"/>
      <point x="1817" y="299"/>
      <point x="1901" y="824" type="curve" smooth="yes"/>
      <point x="1932" y="992" type="line"/>
      <point x="1155" y="992" type="line"/>
      <point x="1124" y="824" type="line"/>
      <point x="1780" y="824" type="line"/>
      <point x="1724" y="843" type="line"/>
      <point x="1657" y="416"/>
      <point x="1332" y="148"/>
      <point x="957" y="148" type="curve" smooth="yes"/>
      <point x="539" y="148"/>
      <point x="312" y="471"/>
      <point x="404" y="1024" type="curve" smooth="yes"/>
      <point x="498" y="1590"/>
      <point x="879" y="1900"/>
      <point x="1260" y="1900" type="curve" smooth="yes"/>
      <point x="1603" y="1900"/>
      <point x="1765" y="1683"/>
    </contour>
  </outline>
</glyph>
<glyph name="H" format="2">
  <advance width="2080"/>
  <unicode hex="0048"/>
  <outline>
    <contour>
      <point x="144" y="0" type="line"/>
      <point x="331" y="0" type="line"/>
      <point x="487" y="941" type="line"/>
      <point x="1649" y="941" type="line"/>
      <point x="1493" y="0" type="line"/>
      <point x="1680" y="0" type="line"/>
      <point x="2020" y="2048" type="line"/>
      <point x="1833" y="2048" type="line"/>
      <point x="1677" y="1109" type="line"/>
      <point x="515" y="1109" type="line"/>
      <point x="671" y="2048" type="line"/>
      <point x="484" y="2048" type="line"/>
    </contour>
  </outline>
</glyph>
<glyph name="J" format="2">
  <advance width="1507"/>
  <unicode hex="004A"/>
  <outline>
    <contour>
      <point x="1260" y="2048" type="line"/>
      <point x="1017" y="576" type="line" smooth="yes"/>
      <point x="967" y="279"/>
      <point x="786" y="140"/>
      <point x="565" y="140" type="curve" smooth="yes"/>
      <point x="358" y="140"/>
      <point x="226" y="261"/>
      <point x="253" y="448" type="curve"/>
      <point x="75" y="448" type="line"/>
      <point x="29" y="161"/>
      <point x="236" y="-28"/>
      <point x="559" y="-28" type="curve" smooth="yes"/>
      <point x="887" y="-28"/>
      <point x="1135" y="165"/>
      <point x="1201" y="565" type="curve" smooth="yes"/>
      <point x="1447" y="2048" type="line"/>
    </contour>
  </outline>
</glyph>
<glyph name="K" format="2">
  <advance width="1801"/>
  <unicode hex="004B"/>
  <outline>
    <contour>
      <point x="144" y="0" type="line"/>
      <point x="331" y="0" type="line"/>
      <point x="443" y="665" type="line"/>
      <point x="767" y="971" type="line"/>
      <point x="1363" y="0" type="line"/>
      <point x="1591" y="0" type="line"/>
      <point x="904" y="1101" type="line"/>
      <point x="1935" y="2048" type="line"/>
      <point x="1689" y="2048" type="line"/>
      <point x="507" y="945" type="line"/>
      <point x="488" y="945" type="line"/>
      <point x="671" y="2048" type="line"/>
      <point x="484" y="2048" type="line"/>
    </contour>
  </outline>
</glyph>
<glyph name="L" format="2">
  <advance width="1584"/>
  <unicode hex="004C"/>
  <outline>
    <contour>
      <point x="144" y="0" type="line"/>
      <point x="1307" y="0" type="line"/>
      <point x="1335" y="168" type="line"/>
      <point x="359" y="168" type="line"/>
      <point x="671" y="2048" type="line"/>
      <point x="484" y="2048" type="line"/>
    </contour>
  </outline>
</glyph>
<glyph name="M" format="2">
  <advance width="2480"/>
  <unicode hex="004D"/>
  <outline>
    <contour>
      <point x="484" y="2048" type="line"/>
      <point x="144" y="0" type="line"/>
      <point x="320" y="0" type="line"/>
      <point x="596" y="1653" type="line"/>
      <point x="612" y="1653" type="line"/>
      <point x="1027" y="0" type="line"/>
      <point x="1197" y="0" type="line"/>
      <point x="2164" y="1653" type="line"/>
      <point x="2180" y="1653" type="line"/>
      <point x="1904" y="0" type="line"/>
      <point x="2080" y="0" type="line"/>
      <point x="2420" y="2048" type="line"/>
      <point x="2204" y="2048" type="line"/>
      <point x="1167" y="264" type="line"/>
      <point x="1148" y="264" type="line"/>
      <point x="700" y="2048" type="line"/>
    </contour>
  </outline>
</glyph>
<glyph name="N" format="2">
  <advance width="2139"/>
  <unicode hex="004E"/>
  <outline>
    <contour>
      <point x="2079" y="2048" type="line"/>
      <point x="1895" y="2048" type="line"/>
      <point x="1609" y="331" type="line"/>
      <point x="1593" y="331" type="line"/>
      <point x="665" y="2048" type="line"/>
      <point x="484" y="2048" type="line"/>
      <point x="144" y="0" type="line"/>
      <point x="331" y="0" type="line"/>
      <point x="616" y="1715" type="line"/>
      <point x="632" y="1715" type="line"/>
      <point x="1557" y="0" type="line"/>
      <point x="1739" y="0" type="line"/>
    </contour>
  </outline>
</glyph>
<glyph name="O" format="2">
  <advance width="2131"/>
  <unicode hex="004F"/>
  <outline>
    <contour>
      <point x="1991" y="1013" type="curve" smooth="yes"/>
      <point x="2098" y="1660"/>
      <point x="1793" y="2076"/>
      <point x="1273" y="2076" type="curve" smooth="yes"/>
      <point x="759" y="2076"/>
      <point x="330" y="1670"/>
      <point x="223" y="1035" type="curve" smooth="yes"/>
      <point x="117" y="389"/>
      <point x="418" y="-28"/>
      <point x="944" y="-28" type="curve" smooth="yes"/>
      <point x="1456" y="-28"/>
      <point x="1885" y="378"/>
    </contour>
    <contour>
      <point x="1812" y="1035" type="curve" smooth="yes"/>
      <point x="1722" y="479"/>
      <point x="1360" y="148"/>
      <point x="948" y="148" type="curve" smooth="yes"/>
      <point x="549" y="148"/>
      <point x="310" y="466"/>
      <point x="401" y="1013" type="curve" smooth="yes"/>
      <point x="494" y="1570"/>
      <point x="856" y="1900"/>
      <point x="1267" y="1900" type="curve" smooth="yes"/>
      <point x="1663" y="1900"/>
      <point x="1904" y="1583"/>
    </contour>
  </outline>
</glyph>
<glyph name="P" format="2">
  <advance width="1759"/>
  <unicode hex="0050"/>
  <outline>
    <contour>
      <point x="144" y="0" type="line"/>
      <point x="331" y="0" type="line"/>
      <point x="643" y="1880" type="line"/>
      <point x="1112" y="1880" type="line" smooth="yes"/>
      <point x="1436" y="1880"/>
      <point x="1560" y="1687"/>
      <point x="1516" y="1416" type="curve" smooth="yes"/>
      <point x="1472" y="1149"/>
      <point x="1281" y="951"/>
      <point x="960" y="951" type="curve" smooth="yes"/>
      <point x="445" y="951" type="line"/>
      <point x="417" y="783" type="line"/>
      <point x="937" y="783" type="line" smooth="yes"/>
      <point x="1369" y="783"/>
      <point x="1641" y="1060"/>
      <point x="1700" y="1416" type="curve" smooth="yes"/>
      <point x="1760" y="1776"/>
      <point x="1580" y="2048"/>
      <point x="1145" y="2048" type="curve" smooth="yes"/>
      <point x="484" y="2048" type="line"/>
    </contour>
  </outline>
</glyph>
<glyph name="Q" format="2">
  <advance width="2157"/>
  <unicode hex="0051"/>
  <outline>
    <contour>
      <point x="985" y="640" type="line"/>
      <point x="1336" y="179" type="line"/>
      <point x="1377" y="123" type="line"/>
      <point x="1613" y="-192" type="line"/>
      <point x="1821" y="-192" type="line"/>
      <point x="1500" y="235" type="line"/>
      <point x="1456" y="293" type="line"/>
      <point x="1193" y="640" type="line"/>
    </contour>
    <component base="O"/>
  </outline>
</glyph>
<glyph name="R" format="2">
  <advance width="1777"/>
  <unicode hex="0052"/>
  <outline>
    <contour>
      <point x="144" y="0" type="line"/>
      <point x="331" y="0" type="line"/>
      <point x="643" y="1880" type="line"/>
      <point x="1112" y="1880" type="line" smooth="yes"/>
      <point x="1436" y="1880"/>
      <point x="1564" y="1705"/>
      <point x="1520" y="1435" type="curve" smooth="yes"/>
      <point x="1476" y="1168"/>
      <point x="1291" y="999"/>
      <point x="969" y="999" type="curve" smooth="yes"/>
      <point x="412" y="999" type="line"/>
      <point x="383" y="828" type="line"/>
      <point x="945" y="828" type="line" smooth="yes"/>
      <point x="1377" y="828"/>
      <point x="1644" y="1079"/>
      <point x="1704" y="1435" type="curve" smooth="yes"/>
      <point x="1763" y="1795"/>
      <point x="1580" y="2048"/>
      <point x="1145" y="2048" type="curve" smooth="yes"/>
      <point x="484" y="2048" type="line"/>
    </contour>
    <contour>
      <point x="1200" y="924" type="line"/>
      <point x="992" y="924" type="line"/>
      <point x="1337" y="0" type="line"/>
      <point x="1551" y="0" type="line"/>
    </contour>
  </outline>
</glyph>
<glyph name="S" format="2">
  <advance width="1772"/>
  <unicode hex="0053"/>
  <note>
recipe: use stroke + offset curve filter with 32, no autostroke
</note>
  <outline>
    <contour>
      <point x="1509" y="1525" type="curve"/>
      <point x="1691" y="1525" type="line"/>
      <point x="1725" y="1847"/>
      <point x="1499" y="2077"/>
      <point x="1117" y="2077" type="curve" smooth="yes"/>
      <point x="738" y="2077"/>
      <point x="412" y="1853"/>
      <point x="355" y="1520" type="curve" smooth="yes"/>
      <point x="312" y="1257"/>
      <point x="470" y="1093"/>
      <point x="775" y="999" type="curve" smooth="yes"/>
      <point x="1009" y="927" type="line" smooth="yes"/>
      <point x="1252" y="853"/>
      <point x="1411" y="756"/>
      <point x="1375" y="547" type="curve" smooth="yes"/>
      <point x="1335" y="301"/>
      <point x="1086" y="136"/>
      <point x="779" y="136" type="curve" smooth="yes"/>
      <point x="503" y="136"/>
      <point x="307" y="269"/>
      <point x="328" y="512" type="curve"/>
      <point x="136" y="512" type="line"/>
      <point x="105" y="188"/>
      <point x="333" y="-35"/>
      <point x="751" y="-35" type="curve" smooth="yes"/>
      <point x="1200" y="-35"/>
      <point x="1500" y="212"/>
      <point x="1556" y="544" type="curve" smooth="yes"/>
      <point x="1613" y="884"/>
      <point x="1338" y="1020"/>
      <point x="1092" y="1093" type="curve" smooth="yes"/>
      <point x="885" y="1155" type="line" smooth="yes"/>
      <point x="697" y="1211"/>
      <point x="503" y="1312"/>
      <point x="539" y="1528" type="curve" smooth="yes"/>
      <point x="575" y="1748"/>
      <point x="800" y="1909"/>
      <point x="1085" y="1909" type="curve" smooth="yes"/>
      <point x="1357" y="1909"/>
      <point x="1518" y="1765"/>
    </contour>
  </outline>
</glyph>
<glyph name="T" format="2">
  <advance width="1781"/>
  <unicode hex="0054"/>
  <outline>
    <contour>
      <point x="332" y="1880" type="line"/>
      <point x="981" y="1880" type="line"/>
      <point x="669" y="0" type="line"/>
      <point x="856" y="0" type="line"/>
      <point x="1168" y="1880" type="line"/>
      <point x="1817" y="1880" type="line"/>
      <point x="1845" y="2048" type="line"/>
      <point x="360" y="2048" type="line"/>
    </contour>
  </outline>
</glyph>
<glyph name="U" format="2">
  <advance width="2096"/>
  <unicode hex="0055"/>
  <outline>
    <contour>
      <point x="1849" y="2048" type="line"/>
      <point x="1625" y="692" type="line" smooth="yes"/>
      <point x="1568" y="352"/>
      <point x="1262" y="141"/>
      <point x="940" y="141" type="curve" smooth="yes"/>
      <point x="615" y="141"/>
      <point x="390" y="352"/>
      <point x="447" y="692" type="curve" smooth="yes"/>
      <point x="671" y="2048" type="line"/>
      <point x="484" y="2048" type="line"/>
      <point x="260" y="692" type="line" smooth="yes"/>
      <point x="185" y="247"/>
      <point x="488" y="-35"/>
      <point x="916" y="-35" type="curve" smooth="yes"/>
      <point x="1344" y="-35"/>
      <point x="1737" y="247"/>
      <point x="1812" y="692" type="curve" smooth="yes"/>
      <point x="2036" y="2048" type="line"/>
    </contour>
  </outline>
</glyph>
<glyph name="V" format="2">
  <advance width="1848"/>
  <unicode hex="0056"/>
  <outline>
    <contour>
      <point x="487" y="2048" type="line"/>
      <point x="291" y="2048" type="line"/>
      <point x="696" y="0" type="line"/>
      <point x="896" y="0" type="line"/>
      <point x="1981" y="2048" type="line"/>
      <point x="1785" y="2048" type="line"/>
      <point x="847" y="243" type="line"/>
      <point x="828" y="243" type="line"/>
    </contour>
  </outline>
</glyph>
<glyph name="W" format="2">
  <advance width="2619"/>
  <unicode hex="0057"/>
  <outline>
    <contour>
      <point x="500" y="0" type="line"/>
      <point x="700" y="0" type="line"/>
      <point x="1464" y="1737" type="line"/>
      <point x="1477" y="1737" type="line"/>
      <point x="1663" y="0" type="line"/>
      <point x="1864" y="0" type="line"/>
      <point x="2765" y="2048" type="line"/>
      <point x="2573" y="2048" type="line"/>
      <point x="1817" y="287" type="line"/>
      <point x="1801" y="287" type="line"/>
      <point x="1629" y="2048" type="line"/>
      <point x="1413" y="2048" type="line"/>
      <point x="656" y="287" type="line"/>
      <point x="640" y="287" type="line"/>
      <point x="469" y="2048" type="line"/>
      <point x="279" y="2048" type="line"/>
    </contour>
  </outline>
</glyph>
<glyph name="X" format="2">
  <advance width="1755"/>
  <unicode hex="0058"/>
  <note>
recipe: offset curve 32, no auto
</note>
  <outline>
    <contour>
      <point x="515" y="2048" type="line"/>
      <point x="295" y="2048" type="line"/>
      <point x="796" y="1024" type="line"/>
      <point x="-45" y="0" type="line"/>
      <point x="179" y="0" type="line"/>
      <point x="892" y="879" type="line"/>
      <point x="905" y="879" type="line"/>
      <point x="1325" y="0" type="line"/>
      <point x="1544" y="0" type="line"/>
      <point x="1057" y="1024" type="line"/>
      <point x="1884" y="2048" type="line"/>
      <point x="1661" y="2048" type="line"/>
      <point x="948" y="1159" type="line"/>
      <point x="935" y="1159" type="line"/>
    </contour>
  </outline>
</glyph>
<glyph name="Y" format="2">
  <advance width="1824"/>
  <unicode hex="0059"/>
  <outline>
    <contour>
      <point x="292" y="2048" type="line"/>
      <point x="837" y="887" type="line"/>
      <point x="691" y="0" type="line"/>
      <point x="877" y="0" type="line"/>
      <point x="1024" y="887" type="line"/>
      <point x="1956" y="2048" type="line"/>
      <point x="1739" y="2048" type="line"/>
      <point x="972" y="1076" type="line"/>
      <point x="952" y="1076" type="line"/>
      <point x="505" y="2048" type="line"/>
    </contour>
  </outline>
</glyph>
<glyph name="Z" format="2">
  <advance width="1741"/>
  <unicode hex="005A"/>
  <outline>
    <contour>
      <point x="63" y="0" type="line"/>
      <point x="1433" y="0" type="line"/>
      <point x="1461" y="168" type="line"/>
      <point x="315" y="168" type="line"/>
      <point x="1741" y="1907" type="line"/>
      <point x="1763" y="2048" type="line"/>
      <point x="397" y="2048" type="line"/>
      <point x="371" y="1880" type="line"/>
      <point x="1511" y="1880" type="line"/>
      <point x="88" y="141" type="line"/>
    </contour>
  </outline>
</glyph>
<glyph name="bracketleft" format="2">
  <advance width="976"/>
  <unicode hex="005B"/>
  <outline>
    <contour>
      <point x="143" y="-416" type="line"/>
      <point x="655" y="-416" type="line"/>
      <point x="680" y="-264" type="line"/>
      <point x="339" y="-264" type="line"/>
      <point x="712" y="1992" type="line"/>
      <point x="1053" y="1992" type="line"/>
      <point x="1079" y="2144" type="line"/>
      <point x="567" y="2144" type="line"/>
    </contour>
  </outline>
</glyph>
<glyph name="backslash" format="2">
  <advance width="945"/>
  <unicode hex="005C"/>
  <outline>
    <contour>
      <point x="199" y="2048" type="line"/>
      <point x="608" y="-308" type="line"/>
      <point x="793" y="-308" type="line"/>
      <point x="384" y="2048" type="line"/>
    </contour>
  </outline>
</glyph>
<glyph name="asciicircum" format="2">
  <advance width="1256"/>
  <unicode hex="005E"/>
  <outline>
    <contour>
      <point x="792" y="1896" type="line"/>
      <point x="779" y="1808" type="line"/>
      <point x="840" y="1808" type="line"/>
      <point x="853" y="1896" type="line"/>
    </contour>
    <contour>
      <point x="177" y="1120" type="line"/>
      <point x="367" y="1120" type="line"/>
      <point x="827" y="1848" type="line"/>
      <point x="800" y="1848" type="line"/>
      <point x="1020" y="1120" type="line"/>
      <point x="1196" y="1120" type="line"/>
      <point x="927" y="1984" type="line"/>
      <point x="729" y="1984" type="line"/>
    </contour>
  </outline>
</glyph>
<glyph name="underscore" format="2">
  <advance width="1249"/>
  <unicode hex="005F"/>
  <outline>
    <contour>
      <point x="1125" y="0" type="line"/>
      <point x="-133" y="0" type="line"/>
      <point x="-164" y="-185" type="line"/>
      <point x="1096" y="-185" type="line"/>
    </contour>
  </outline>
</glyph>
<glyph name="grave" format="2">
  <advance width="1400"/>
  <unicode hex="0060"/>
  <note>
mirrored version of acute
</note>
  <outline>
    <contour>
      <point x="931" y="1749" type="line"/>
      <point x="1089" y="1749" type="line"/>
      <point x="911" y="2203" type="line"/>
      <point x="701" y="2203" type="line"/>
    </contour>
  </outline>
</glyph>
<glyph name="a" format="2">
  <advance width="1567"/>
  <unicode hex="0061"/>
  <outline>
    <contour>
      <point x="532" y="-35" type="curve" smooth="yes"/>
      <point x="788" y="-35"/>
      <point x="968" y="107"/>
      <point x="1053" y="243" type="curve"/>
      <point x="1064" y="243" type="line"/>
      <point x="1023" y="0" type="line"/>
      <point x="1201" y="0" type="line"/>
      <point x="1375" y="1043" type="line" smooth="yes"/>
      <point x="1443" y="1455"/>
      <point x="1151" y="1557"/>
      <point x="916" y="1557" type="curve" smooth="yes"/>
      <point x="681" y="1557"/>
      <point x="421" y="1464"/>
      <point x="277" y="1213" type="curve"/>
      <point x="435" y="1152" type="line"/>
      <point x="513" y="1283"/>
      <point x="681" y="1397"/>
      <point x="903" y="1397" type="curve" smooth="yes"/>
      <point x="1135" y="1397"/>
      <point x="1233" y="1268"/>
      <point x="1199" y="1059" type="curve" smooth="yes"/>
      <point x="1193" y="1023" type="line" smooth="yes"/>
      <point x="1173" y="908"/>
      <point x="1028" y="905"/>
      <point x="767" y="873" type="curve" smooth="yes"/>
      <point x="412" y="831"/>
      <point x="153" y="733"/>
      <point x="101" y="429" type="curve" smooth="yes"/>
      <point x="55" y="133"/>
      <point x="253" y="-35"/>
    </contour>
    <contour>
      <point x="577" y="128" type="curve" smooth="yes"/>
      <point x="376" y="128"/>
      <point x="249" y="235"/>
      <point x="280" y="421" type="curve" smooth="yes"/>
      <point x="311" y="607"/>
      <point x="477" y="685"/>
      <point x="743" y="717" type="curve" smooth="yes"/>
      <point x="868" y="732"/>
      <point x="1097" y="760"/>
      <point x="1157" y="811" type="curve"/>
      <point x="1120" y="589" type="line" smooth="yes"/>
      <point x="1079" y="337"/>
      <point x="861" y="128"/>
    </contour>
  </outline>
</glyph>
<glyph name="b" format="2">
  <advance width="1727"/>
  <unicode hex="0062"/>
  <note>
top anchor should match top anchor of i
</note>
  <outline>
    <contour>
      <point x="144" y="0" type="line"/>
      <point x="317" y="0" type="line"/>
      <point x="365" y="285" type="line"/>
      <point x="387" y="285" type="line"/>
      <point x="427" y="144"/>
      <point x="527" y="-32"/>
      <point x="807" y="-32" type="curve" smooth="yes"/>
      <point x="1184" y="-32"/>
      <point x="1492" y="288"/>
      <point x="1571" y="764" type="curve" smooth="yes"/>
      <point x="1649" y="1237"/>
      <point x="1447" y="1557"/>
      <point x="1068" y="1557" type="curve" smooth="yes"/>
      <point x="787" y="1557"/>
      <point x="629" y="1381"/>
      <point x="547" y="1243" type="curve"/>
      <point x="531" y="1243" type="line"/>
      <point x="663" y="2048" type="line"/>
      <point x="484" y="2048" type="line"/>
    </contour>
    <contour>
      <point x="448" y="767" type="curve" smooth="yes"/>
      <point x="508" y="1135"/>
      <point x="725" y="1395"/>
      <point x="1025" y="1395" type="curve" smooth="yes"/>
      <point x="1333" y="1395"/>
      <point x="1449" y="1121"/>
      <point x="1392" y="767" type="curve" smooth="yes"/>
      <point x="1332" y="409"/>
      <point x="1115" y="131"/>
      <point x="809" y="131" type="curve" smooth="yes"/>
      <point x="511" y="131"/>
      <point x="388" y="396"/>
    </contour>
  </outline>
</glyph>
<glyph name="c" format="2">
  <advance width="1567"/>
  <unicode hex="0063"/>
  <outline>
    <contour>
      <point x="703" y="-32" type="curve" smooth="yes"/>
      <point x="1022" y="-32"/>
      <point x="1279" y="169"/>
      <point x="1369" y="448" type="curve"/>
      <point x="1189" y="448" type="line"/>
      <point x="1114" y="253"/>
      <point x="932" y="131"/>
      <point x="727" y="131" type="curve" smooth="yes"/>
      <point x="425" y="131"/>
      <point x="271" y="393"/>
      <point x="335" y="767" type="curve" smooth="yes"/>
      <point x="395" y="1139"/>
      <point x="645" y="1395"/>
      <point x="943" y="1395" type="curve" smooth="yes"/>
      <point x="1161" y="1395"/>
      <point x="1283" y="1257"/>
      <point x="1292" y="1080" type="curve"/>
      <point x="1472" y="1080" type="line"/>
      <point x="1477" y="1365"/>
      <point x="1272" y="1557"/>
      <point x="964" y="1557" type="curve" smooth="yes"/>
      <point x="562" y="1557"/>
      <point x="231" y="1224"/>
      <point x="156" y="761" type="curve" smooth="yes"/>
      <point x="80" y="304"/>
      <point x="288" y="-32"/>
    </contour>
  </outline>
</glyph>
<glyph name="d" format="2">
  <advance width="1729"/>
  <unicode hex="0064"/>
  <outline>
    <contour>
      <point x="659" y="-32" type="curve" smooth="yes"/>
      <point x="937" y="-32"/>
      <point x="1097" y="145"/>
      <point x="1183" y="285" type="curve"/>
      <point x="1204" y="285" type="line"/>
      <point x="1156" y="0" type="line"/>
      <point x="1329" y="0" type="line"/>
      <point x="1669" y="2048" type="line"/>
      <point x="1491" y="2048" type="line"/>
      <point x="1357" y="1243" type="line"/>
      <point x="1341" y="1243" type="line"/>
      <point x="1303" y="1381"/>
      <point x="1205" y="1557"/>
      <point x="923" y="1557" type="curve" smooth="yes"/>
      <point x="545" y="1557"/>
      <point x="236" y="1237"/>
      <point x="157" y="764" type="curve" smooth="yes"/>
      <point x="79" y="287"/>
      <point x="280" y="-32"/>
    </contour>
    <contour>
      <point x="697" y="131" type="curve" smooth="yes"/>
      <point x="391" y="131"/>
      <point x="277" y="409"/>
      <point x="337" y="767" type="curve" smooth="yes"/>
      <point x="395" y="1121"/>
      <point x="605" y="1395"/>
      <point x="913" y="1395" type="curve" smooth="yes"/>
      <point x="1213" y="1395"/>
      <point x="1342" y="1135"/>
      <point x="1281" y="767" type="curve" smooth="yes"/>
      <point x="1219" y="396"/>
      <point x="995" y="131"/>
    </contour>
  </outline>
</glyph>
<glyph name="e" format="2">
  <advance width="1637"/>
  <unicode hex="0065"/>
  <outline>
    <contour>
      <point x="724" y="-32" type="curve" smooth="yes"/>
      <point x="1033" y="-32"/>
      <point x="1266" y="135"/>
      <point x="1368" y="328" type="curve"/>
      <point x="1209" y="383" type="line"/>
      <point x="1127" y="245"/>
      <point x="969" y="131"/>
      <point x="749" y="131" type="curve" smooth="yes"/>
      <point x="421" y="131"/>
      <point x="264" y="333"/>
      <point x="327" y="723" type="curve" smooth="yes"/>
      <point x="347" y="841" type="line" smooth="yes"/>
      <point x="397" y="1126"/>
      <point x="655" y="1395"/>
      <point x="937" y="1395" type="curve" smooth="yes"/>
      <point x="1213" y="1395"/>
      <point x="1365" y="1168"/>
      <point x="1315" y="872" type="curve"/>
      <point x="296" y="872" type="line"/>
      <point x="271" y="715" type="line"/>
      <point x="1471" y="715" type="line"/>
      <point x="1485" y="803" type="line" smooth="yes"/>
      <point x="1571" y="1316"/>
      <point x="1294" y="1557"/>
      <point x="961" y="1557" type="curve" smooth="yes"/>
      <point x="563" y="1557"/>
      <point x="233" y="1224"/>
      <point x="156" y="759" type="curve" smooth="yes"/>
      <point x="78" y="293"/>
      <point x="294" y="-32"/>
    </contour>
  </outline>
</glyph>
<glyph name="f" format="2">
  <advance width="988"/>
  <unicode hex="0066"/>
  <outline>
    <contour>
      <point x="995" y="1536" type="line"/>
      <point x="240" y="1536" type="line"/>
      <point x="215" y="1381" type="line"/>
      <point x="969" y="1381" type="line"/>
    </contour>
    <component base="_part.f_base"/>
  </outline>
</glyph>
<glyph name="g" format="2">
  <advance width="1692"/>
  <unicode hex="0067"/>
  <outline>
    <contour>
      <point x="597" y="-608" type="curve" smooth="yes"/>
      <point x="960" y="-608"/>
      <point x="1257" y="-431"/>
      <point x="1323" y="-40" type="curve" smooth="yes"/>
      <point x="1583" y="1536" type="line"/>
      <point x="1409" y="1536" type="line"/>
      <point x="1361" y="1243" type="line"/>
      <point x="1343" y="1243" type="line"/>
      <point x="1303" y="1381"/>
      <point x="1205" y="1557"/>
      <point x="923" y="1557" type="curve" smooth="yes"/>
      <point x="543" y="1557"/>
      <point x="235" y="1239"/>
      <point x="159" y="772" type="curve" smooth="yes"/>
      <point x="80" y="301"/>
      <point x="297" y="16"/>
      <point x="665" y="16" type="curve" smooth="yes"/>
      <point x="941" y="16"/>
      <point x="1103" y="176"/>
      <point x="1185" y="317" type="curve"/>
      <point x="1201" y="317" type="line"/>
      <point x="1147" y="-29" type="line" smooth="yes"/>
      <point x="1099" y="-315"/>
      <point x="887" y="-448"/>
      <point x="616" y="-448" type="curve" smooth="yes"/>
      <point x="351" y="-448"/>
      <point x="252" y="-322"/>
      <point x="207" y="-205" type="curve"/>
      <point x="45" y="-300" type="line"/>
      <point x="107" y="-475"/>
      <point x="282" y="-608"/>
    </contour>
    <contour>
      <point x="705" y="179" type="curve" smooth="yes"/>
      <point x="399" y="179"/>
      <point x="279" y="423"/>
      <point x="337" y="775" type="curve" smooth="yes"/>
      <point x="395" y="1121"/>
      <point x="601" y="1395"/>
      <point x="911" y="1395" type="curve" smooth="yes"/>
      <point x="1211" y="1395"/>
      <point x="1341" y="1135"/>
      <point x="1281" y="775" type="curve" smooth="yes"/>
      <point x="1220" y="404"/>
      <point x="1000" y="179"/>
    </contour>
  </outline>
</glyph>
<glyph name="h" format="2">
  <advance width="1643"/>
  <unicode hex="0068"/>
  <note>
based on "n" and made slightly wider, brining the top vertical stem with it out.
</note>
  <outline>
    <contour>
      <point x="444" y="960" type="line" smooth="yes"/>
      <point x="491" y="1228"/>
      <point x="700" y="1393"/>
      <point x="945" y="1393" type="curve" smooth="yes"/>
      <point x="1183" y="1393"/>
      <point x="1307" y="1237"/>
      <point x="1265" y="984" type="curve" smooth="yes"/>
      <point x="1101" y="0" type="line"/>
      <point x="1280" y="0" type="line"/>
      <point x="1447" y="995" type="line" smooth="yes"/>
      <point x="1507" y="1361"/>
      <point x="1327" y="1556"/>
      <point x="1016" y="1556" type="curve" smooth="yes"/>
      <point x="783" y="1556"/>
      <point x="613" y="1455"/>
      <point x="517" y="1295" type="curve"/>
      <point x="501" y="1295" type="line"/>
      <point x="625" y="2048" type="line"/>
      <point x="447" y="2048" type="line"/>
      <point x="107" y="0" type="line"/>
      <point x="285" y="0" type="line"/>
    </contour>
  </outline>
</glyph>
<glyph name="k" format="2">
  <advance width="1479"/>
  <unicode hex="006B"/>
  <outline>
    <contour>
      <point x="365" y="580" type="line"/>
      <point x="663" y="821" type="line"/>
      <point x="679" y="824" type="line"/>
      <point x="1508" y="1536" type="line"/>
      <point x="1280" y="1536" type="line"/>
      <point x="441" y="815" type="line"/>
      <point x="401" y="815" type="line"/>
    </contour>
    <contour>
      <point x="107" y="0" type="line"/>
      <point x="285" y="0" type="line"/>
      <point x="625" y="2048" type="line"/>
      <point x="447" y="2048" type="line"/>
    </contour>
    <contour>
      <point x="1067" y="0" type="line"/>
      <point x="1292" y="0" type="line"/>
      <point x="717" y="912" type="line"/>
      <point x="572" y="789" type="line"/>
    </contour>
  </outline>
</glyph>
<glyph name="l" format="2">
  <advance width="648"/>
  <unicode hex="006C"/>
  <outline>
    <contour>
      <point x="625" y="2048" type="line"/>
      <point x="447" y="2048" type="line"/>
      <point x="107" y="0" type="line"/>
      <point x="285" y="0" type="line"/>
    </contour>
  </outline>
</glyph>
<glyph name="m" format="2">
  <advance width="2416"/>
  <unicode hex="006D"/>
  <outline>
    <contour>
      <point x="107" y="0" type="line"/>
      <point x="285" y="0" type="line"/>
      <point x="449" y="984" type="line" smooth="yes"/>
      <point x="488" y="1223"/>
      <point x="679" y="1393"/>
      <point x="892" y="1393" type="curve" smooth="yes"/>
      <point x="1103" y="1393"/>
      <point x="1197" y="1253"/>
      <point x="1164" y="1045" type="curve" smooth="yes"/>
      <point x="989" y="0" type="line"/>
      <point x="1171" y="0" type="line"/>
      <point x="1340" y="1011" type="line" smooth="yes"/>
      <point x="1376" y="1233"/>
      <point x="1537" y="1393"/>
      <point x="1772" y="1393" type="curve" smooth="yes"/>
      <point x="1975" y="1393"/>
      <point x="2085" y="1272"/>
      <point x="2047" y="1029" type="curve" smooth="yes"/>
      <point x="1875" y="0" type="line"/>
      <point x="2053" y="0" type="line"/>
      <point x="2225" y="1029" type="line" smooth="yes"/>
      <point x="2283" y="1372"/>
      <point x="2135" y="1556"/>
      <point x="1851" y="1556" type="curve" smooth="yes"/>
      <point x="1627" y="1556"/>
      <point x="1445" y="1448"/>
      <point x="1349" y="1277" type="curve"/>
      <point x="1336" y="1277" type="line"/>
      <point x="1296" y="1451"/>
      <point x="1179" y="1556"/>
      <point x="968" y="1556" type="curve" smooth="yes"/>
      <point x="767" y="1556"/>
      <point x="601" y="1459"/>
      <point x="512" y="1300" type="curve"/>
      <point x="496" y="1300" type="line"/>
      <point x="536" y="1536" type="line"/>
      <point x="363" y="1536" type="line"/>
    </contour>
  </outline>
</glyph>
<glyph name="n" format="2">
  <advance width="1632"/>
  <unicode hex="006E"/>
  <outline>
    <contour>
      <point x="444" y="960" type="line" smooth="yes"/>
      <point x="491" y="1228"/>
      <point x="695" y="1393"/>
      <point x="937" y="1393" type="curve" smooth="yes"/>
      <point x="1175" y="1393"/>
      <point x="1296" y="1235"/>
      <point x="1255" y="984" type="curve" smooth="yes"/>
      <point x="1091" y="0" type="line"/>
      <point x="1269" y="0" type="line"/>
      <point x="1436" y="995" type="line" smooth="yes"/>
      <point x="1496" y="1359"/>
      <point x="1316" y="1556"/>
      <point x="1008" y="1556" type="curve" smooth="yes"/>
      <point x="783" y="1556"/>
      <point x="608" y="1452"/>
      <point x="512" y="1295" type="curve"/>
      <point x="496" y="1295" type="line"/>
      <point x="536" y="1536" type="line"/>
      <point x="363" y="1536" type="line"/>
      <point x="107" y="0" type="line"/>
      <point x="285" y="0" type="line"/>
    </contour>
  </outline>
</glyph>
<glyph name="o" format="2">
  <advance width="1664"/>
  <unicode hex="006F"/>
  <outline>
    <contour>
      <point x="712" y="-32" type="curve" smooth="yes"/>
      <point x="1104" y="-32"/>
      <point x="1429" y="287"/>
      <point x="1505" y="748" type="curve" smooth="yes"/>
      <point x="1582" y="1225"/>
      <point x="1356" y="1557"/>
      <point x="951" y="1557" type="curve" smooth="yes"/>
      <point x="560" y="1557"/>
      <point x="235" y="1239"/>
      <point x="159" y="775" type="curve" smooth="yes"/>
      <point x="81" y="299"/>
      <point x="308" y="-32"/>
    </contour>
    <contour>
      <point x="715" y="131" type="curve" smooth="yes"/>
      <point x="403" y="131"/>
      <point x="276" y="411"/>
      <point x="332" y="748" type="curve" smooth="yes"/>
      <point x="389" y="1099"/>
      <point x="624" y="1395"/>
      <point x="949" y="1395" type="curve" smooth="yes"/>
      <point x="1261" y="1395"/>
      <point x="1387" y="1112"/>
      <point x="1332" y="775" type="curve" smooth="yes"/>
      <point x="1275" y="422"/>
      <point x="1041" y="131"/>
    </contour>
  </outline>
</glyph>
<glyph name="p" format="2">
  <advance width="1687"/>
  <unicode hex="0070"/>
  <outline>
    <contour>
      <point x="8" y="-576" type="line"/>
      <point x="187" y="-576" type="line"/>
      <point x="331" y="285" type="line"/>
      <point x="347" y="285" type="line"/>
      <point x="387" y="144"/>
      <point x="488" y="-32"/>
      <point x="767" y="-32" type="curve" smooth="yes"/>
      <point x="1143" y="-32"/>
      <point x="1452" y="288"/>
      <point x="1531" y="764" type="curve" smooth="yes"/>
      <point x="1609" y="1239"/>
      <point x="1408" y="1557"/>
      <point x="1028" y="1557" type="curve" smooth="yes"/>
      <point x="745" y="1557"/>
      <point x="591" y="1381"/>
      <point x="507" y="1243" type="curve"/>
      <point x="485" y="1243" type="line"/>
      <point x="533" y="1536" type="line"/>
      <point x="360" y="1536" type="line"/>
    </contour>
    <contour>
      <point x="408" y="767" type="curve" smooth="yes"/>
      <point x="468" y="1135"/>
      <point x="685" y="1395"/>
      <point x="985" y="1395" type="curve" smooth="yes"/>
      <point x="1295" y="1395"/>
      <point x="1409" y="1121"/>
      <point x="1352" y="767" type="curve" smooth="yes"/>
      <point x="1292" y="409"/>
      <point x="1075" y="131"/>
      <point x="769" y="131" type="curve" smooth="yes"/>
      <point x="472" y="131"/>
      <point x="348" y="396"/>
    </contour>
  </outline>
</glyph>
<glyph name="r" format="2">
  <advance width="1007"/>
  <unicode hex="0072"/>
  <outline>
    <contour>
      <point x="107" y="0" type="line"/>
      <point x="285" y="0" type="line"/>
      <point x="449" y="992" type="line" smooth="yes"/>
      <point x="488" y="1220"/>
      <point x="689" y="1385"/>
      <point x="929" y="1385" type="curve" smooth="yes"/>
      <point x="977" y="1385"/>
      <point x="1020" y="1377"/>
      <point x="1036" y="1375" type="curve"/>
      <point x="1067" y="1556" type="line"/>
      <point x="1043" y="1559"/>
      <point x="1003" y="1559"/>
      <point x="973" y="1559" type="curve" smooth="yes"/>
      <point x="780" y="1559"/>
      <point x="595" y="1455"/>
      <point x="509" y="1300" type="curve"/>
      <point x="496" y="1300" type="line"/>
      <point x="536" y="1536" type="line"/>
      <point x="363" y="1536" type="line"/>
    </contour>
  </outline>
</glyph>
<glyph name="s" format="2">
  <advance width="1444"/>
  <unicode hex="0073"/>
  <outline>
    <contour>
      <point x="1339" y="1199" type="line"/>
      <point x="1300" y="1421"/>
      <point x="1159" y="1557"/>
      <point x="876" y="1557" type="curve" smooth="yes"/>
      <point x="567" y="1557"/>
      <point x="313" y="1382"/>
      <point x="271" y="1129" type="curve" smooth="yes"/>
      <point x="236" y="923"/>
      <point x="340" y="783"/>
      <point x="597" y="717" type="curve" smooth="yes"/>
      <point x="836" y="657" type="line" smooth="yes"/>
      <point x="1000" y="617"/>
      <point x="1067" y="534"/>
      <point x="1045" y="409" type="curve" smooth="yes"/>
      <point x="1020" y="250"/>
      <point x="844" y="128"/>
      <point x="607" y="128" type="curve" smooth="yes"/>
      <point x="399" y="128"/>
      <point x="283" y="223"/>
      <point x="272" y="404" type="curve"/>
      <point x="93" y="364" type="line"/>
      <point x="105" y="108"/>
      <point x="286" y="-32"/>
      <point x="588" y="-32" type="curve" smooth="yes"/>
      <point x="926" y="-32"/>
      <point x="1188" y="153"/>
      <point x="1231" y="412" type="curve" smooth="yes"/>
      <point x="1265" y="619"/>
      <point x="1159" y="756"/>
      <point x="911" y="820" type="curve" smooth="yes"/>
      <point x="687" y="877" type="line" smooth="yes"/>
      <point x="505" y="924"/>
      <point x="430" y="1002"/>
      <point x="452" y="1132" type="curve" smooth="yes"/>
      <point x="477" y="1288"/>
      <point x="644" y="1400"/>
      <point x="853" y="1400" type="curve" smooth="yes"/>
      <point x="1060" y="1400"/>
      <point x="1141" y="1293"/>
      <point x="1168" y="1155" type="curve"/>
    </contour>
  </outline>
</glyph>
<glyph name="t" format="2">
  <advance width="1009"/>
  <unicode hex="0074"/>
  <outline>
    <contour>
      <point x="968" y="1536" type="line"/>
      <point x="235" y="1536" type="line"/>
      <point x="209" y="1381" type="line"/>
      <point x="943" y="1381" type="line"/>
    </contour>
    <component base="_part.t_base"/>
  </outline>
</glyph>
<glyph name="u" format="2">
  <advance width="1624"/>
  <unicode hex="0075"/>
  <outline>
    <contour>
      <point x="1180" y="587" type="line" smooth="yes"/>
      <point x="1133" y="305"/>
      <point x="897" y="153"/>
      <point x="689" y="153" type="curve" smooth="yes"/>
      <point x="468" y="153"/>
      <point x="339" y="312"/>
      <point x="377" y="552" type="curve" smooth="yes"/>
      <point x="541" y="1536" type="line"/>
      <point x="363" y="1536" type="line"/>
      <point x="196" y="541" type="line" smooth="yes"/>
      <point x="136" y="177"/>
      <point x="313" y="-20"/>
      <point x="608" y="-20" type="curve" smooth="yes"/>
      <point x="833" y="-20"/>
      <point x="1016" y="97"/>
      <point x="1112" y="255" type="curve"/>
      <point x="1125" y="255" type="line"/>
      <point x="1083" y="0" type="line"/>
      <point x="1261" y="0" type="line"/>
      <point x="1517" y="1536" type="line"/>
      <point x="1339" y="1536" type="line"/>
    </contour>
  </outline>
</glyph>
<glyph name="w" format="2">
  <advance width="2267"/>
  <unicode hex="0077"/>
  <outline>
    <contour>
      <point x="448" y="0" type="line"/>
      <point x="632" y="0" type="line"/>
      <point x="1204" y="1257" type="line"/>
      <point x="1223" y="1257" type="line"/>
      <point x="1379" y="0" type="line"/>
      <point x="1563" y="0" type="line"/>
      <point x="2283" y="1536" type="line"/>
      <point x="2093" y="1536" type="line"/>
      <point x="1519" y="272" type="line"/>
      <point x="1505" y="272" type="line"/>
      <point x="1356" y="1536" type="line"/>
      <point x="1167" y="1536" type="line"/>
      <point x="593" y="269" type="line"/>
      <point x="580" y="269" type="line"/>
      <point x="427" y="1536" type="line"/>
      <point x="240" y="1536" type="line"/>
    </contour>
  </outline>
</glyph>
<glyph name="x" format="2">
  <advance width="1483"/>
  <unicode hex="0078"/>
  <outline>
    <contour>
      <point x="471" y="1536" type="line"/>
      <point x="267" y="1536" type="line"/>
      <point x="627" y="769" type="line"/>
      <point x="9" y="0" type="line"/>
      <point x="219" y="0" type="line"/>
      <point x="720" y="633" type="line"/>
      <point x="1010" y="0" type="line"/>
      <point x="1215" y="0" type="line"/>
      <point x="849" y="765" type="line"/>
      <point x="1473" y="1536" type="line"/>
      <point x="1265" y="1536" type="line"/>
      <point x="759" y="881" type="line"/>
    </contour>
  </outline>
</glyph>
<glyph name="y" format="2">
  <advance width="1537"/>
  <unicode hex="0079"/>
  <outline>
    <contour>
      <point x="137" y="-575" type="curve" smooth="yes"/>
      <point x="323" y="-575"/>
      <point x="486" y="-470"/>
      <point x="607" y="-241" type="curve" smooth="yes"/>
      <point x="1552" y="1536" type="line"/>
      <point x="1351" y="1536" type="line"/>
      <point x="678" y="232" type="line"/>
      <point x="665" y="232" type="line"/>
      <point x="425" y="1536" type="line"/>
      <point x="240" y="1536" type="line"/>
      <point x="544" y="-8" type="line"/>
      <point x="460" y="-164" type="line" smooth="yes"/>
      <point x="335" y="-393"/>
      <point x="213" y="-443"/>
      <point x="45" y="-385" type="curve"/>
      <point x="-30" y="-543" type="line"/>
      <point x="3" y="-559"/>
      <point x="66" y="-575"/>
    </contour>
  </outline>
</glyph>
<glyph name="z" format="2">
  <advance width="1493"/>
  <unicode hex="007A"/>
  <outline>
    <contour>
      <point x="59" y="0" type="line"/>
      <point x="1208" y="0" type="line"/>
      <point x="1236" y="168" type="line"/>
      <point x="335" y="168" type="line"/>
      <point x="337" y="181" type="line"/>
      <point x="1407" y="1389" type="line"/>
      <point x="1432" y="1536" type="line"/>
      <point x="353" y="1536" type="line"/>
      <point x="325" y="1368" type="line"/>
      <point x="1173" y="1368" type="line"/>
      <point x="1171" y="1355" type="line"/>
      <point x="84" y="141" type="line"/>
    </contour>
  </outline>
</glyph>
<glyph name="braceleft" format="2">
  <advance width="976"/>
  <unicode hex="007B"/>
  <outline>
    <contour>
      <point x="145" y="851" type="line"/>
      <point x="521" y="851"/>
      <point x="631" y="976"/>
      <point x="667" y="1203" type="curve" smooth="yes"/>
      <point x="740" y="1644" type="line" smooth="yes"/>
      <point x="779" y="1887"/>
      <point x="876" y="1992"/>
      <point x="1100" y="1992" type="curve"/>
      <point x="1125" y="2144" type="line"/>
      <point x="781" y="2144"/>
      <point x="631" y="1987"/>
      <point x="575" y="1644" type="curve" smooth="yes"/>
      <point x="512" y="1256" type="line" smooth="yes"/>
      <point x="475" y="1033"/>
      <point x="388" y="955"/>
      <point x="161" y="955" type="curve"/>
    </contour>
    <contour>
      <point x="701" y="-416" type="curve"/>
      <point x="727" y="-264" type="line"/>
      <point x="501" y="-264"/>
      <point x="440" y="-159"/>
      <point x="481" y="84" type="curve" smooth="yes"/>
      <point x="555" y="525" type="line" smooth="yes"/>
      <point x="591" y="752"/>
      <point x="525" y="877"/>
      <point x="148" y="877" type="curve"/>
      <point x="132" y="773" type="line"/>
      <point x="357" y="773"/>
      <point x="416" y="695"/>
      <point x="379" y="472" type="curve" smooth="yes"/>
      <point x="316" y="84" type="line" smooth="yes"/>
      <point x="260" y="-259"/>
      <point x="357" y="-416"/>
    </contour>
    <contour>
      <point x="128" y="773" type="line"/>
      <point x="359" y="773" type="line"/>
      <point x="388" y="955" type="line"/>
      <point x="157" y="955" type="line"/>
    </contour>
  </outline>
</glyph>
<glyph name="asciitilde" format="2">
  <advance width="1835"/>
  <unicode hex="007E"/>
  <outline>
    <contour>
      <point x="219" y="629" type="curve"/>
      <point x="384" y="627" type="line"/>
      <point x="416" y="787"/>
      <point x="519" y="863"/>
      <point x="644" y="863" type="curve" smooth="yes"/>
      <point x="732" y="863"/>
      <point x="791" y="832"/>
      <point x="871" y="757" type="curve" smooth="yes"/>
      <point x="977" y="656"/>
      <point x="1060" y="596"/>
      <point x="1191" y="596" type="curve" smooth="yes"/>
      <point x="1386" y="596"/>
      <point x="1573" y="707"/>
      <point x="1628" y="984" type="curve"/>
      <point x="1464" y="989" type="line"/>
      <point x="1429" y="840"/>
      <point x="1332" y="755"/>
      <point x="1208" y="755" type="curve" smooth="yes"/>
      <point x="1128" y="755"/>
      <point x="1076" y="792"/>
      <point x="996" y="865" type="curve" smooth="yes"/>
      <point x="887" y="967"/>
      <point x="800" y="1028"/>
      <point x="663" y="1028" type="curve" smooth="yes"/>
      <point x="460" y="1028"/>
      <point x="272" y="908"/>
    </contour>
  </outline>
</glyph>
<glyph name="sterling" format="2">
  <advance width="1776"/>
  <unicode hex="00A3"/>
  <outline>
    <contour>
      <point x="1389" y="0" type="line"/>
      <point x="1417" y="168" type="line"/>
      <point x="97" y="168" type="line"/>
      <point x="69" y="0" type="line"/>
    </contour>
    <contour>
      <point x="1108" y="815" type="line"/>
      <point x="1139" y="988" type="line"/>
      <point x="229" y="988" type="line"/>
      <point x="199" y="815" type="line"/>
    </contour>
    <contour>
      <point x="708" y="1455" type="line" smooth="yes"/>
      <point x="756" y="1752"/>
      <point x="975" y="1908"/>
      <point x="1196" y="1908" type="curve" smooth="yes"/>
      <point x="1407" y="1908"/>
      <point x="1565" y="1765"/>
      <point x="1497" y="1551" type="curve"/>
      <point x="1664" y="1503" type="line"/>
      <point x="1783" y="1796"/>
      <point x="1572" y="2076"/>
      <point x="1216" y="2076" type="curve" smooth="yes"/>
      <point x="901" y="2076"/>
      <point x="584" y="1857"/>
      <point x="532" y="1455" type="curve" smooth="yes"/>
      <point x="403" y="507" type="line" smooth="yes"/>
      <point x="383" y="365"/>
      <point x="313" y="168"/>
      <point x="185" y="168" type="curve"/>
      <point x="349" y="111" type="line"/>
      <point x="488" y="168"/>
      <point x="557" y="321"/>
      <point x="581" y="507" type="curve" smooth="yes"/>
    </contour>
  </outline>
</glyph>
<glyph name="currency" format="2">
  <advance width="1997"/>
  <unicode hex="00A4"/>
  <outline>
    <contour>
      <point x="859" y="-28" type="curve" smooth="yes"/>
      <point x="1308" y="-28"/>
      <point x="1736" y="348"/>
      <point x="1816" y="836" type="curve" smooth="yes"/>
      <point x="1896" y="1324"/>
      <point x="1592" y="1696"/>
      <point x="1143" y="1696" type="curve" smooth="yes"/>
      <point x="695" y="1696"/>
      <point x="276" y="1324"/>
      <point x="196" y="836" type="curve"/>
      <point x="116" y="348"/>
      <point x="411" y="-28"/>
    </contour>
    <contour>
      <point x="892" y="179" type="curve" smooth="yes"/>
      <point x="564" y="178"/>
      <point x="343" y="479"/>
      <point x="404" y="836" type="curve"/>
      <point x="464" y="1197"/>
      <point x="780" y="1494"/>
      <point x="1108" y="1493" type="curve" smooth="yes"/>
      <point x="1438" y="1494"/>
      <point x="1658" y="1197"/>
      <point x="1597" y="836" type="curve" smooth="yes"/>
      <point x="1536" y="479"/>
      <point x="1222" y="178"/>
    </contour>
    <contour>
      <point x="1645" y="1277" type="line"/>
      <point x="1972" y="1561" type="line"/>
      <point x="1844" y="1720" type="line"/>
      <point x="1523" y="1436" type="line"/>
    </contour>
    <contour>
      <point x="1553" y="-16" type="line"/>
      <point x="1733" y="144" type="line"/>
      <point x="1504" y="424" type="line"/>
      <point x="1328" y="269" type="line"/>
    </contour>
    <contour>
      <point x="175" y="-16" type="line"/>
      <point x="500" y="269" type="line"/>
      <point x="373" y="424" type="line"/>
      <point x="52" y="144" type="line"/>
    </contour>
    <contour>
      <point x="515" y="1277" type="line"/>
      <point x="695" y="1436" type="line"/>
      <point x="465" y="1720" type="line"/>
      <point x="289" y="1561" type="line"/>
    </contour>
  </outline>
</glyph>
<glyph name="yen" format="2">
  <advance width="1520"/>
  <unicode hex="00A5"/>
  <note>
line up with uni20BD
</note>
  <outline>
    <contour>
      <point x="467" y="2048" type="line"/>
      <point x="259" y="2048" type="line"/>
      <point x="676" y="847" type="line"/>
      <point x="839" y="900" type="line"/>
    </contour>
    <contour>
      <point x="727" y="900" type="line"/>
      <point x="868" y="847" type="line"/>
      <point x="1685" y="2048" type="line"/>
      <point x="1477" y="2048" type="line"/>
    </contour>
    <contour>
      <point x="899" y="1035" type="line"/>
      <point x="712" y="1035" type="line"/>
      <point x="539" y="0" type="line"/>
      <point x="725" y="0" type="line"/>
    </contour>
    <contour>
      <point x="1348" y="989" type="line"/>
      <point x="244" y="989" type="line"/>
      <point x="221" y="848" type="line"/>
      <point x="1325" y="848" type="line"/>
    </contour>
    <contour>
      <point x="1291" y="640" type="line"/>
      <point x="187" y="640" type="line"/>
      <point x="164" y="499" type="line"/>
      <point x="1268" y="499" type="line"/>
    </contour>
  </outline>
</glyph>
<glyph name="brokenbar" format="2">
  <advance width="674"/>
  <unicode hex="00A6"/>
  <outline>
    <contour>
      <point x="217" y="545" type="line"/>
      <point x="61" y="-384" type="line"/>
      <point x="228" y="-384" type="line"/>
      <point x="384" y="545" type="line"/>
    </contour>
    <contour>
      <point x="632" y="2048" type="line"/>
      <point x="465" y="2048" type="line"/>
      <point x="311" y="1123" type="line"/>
      <point x="477" y="1123" type="line"/>
    </contour>
  </outline>
</glyph>
<glyph name="section" format="2">
  <advance width="1532"/>
  <unicode hex="00A7"/>
  <note>
composed of "S" scaled down with RMX Tuner in temporary duplicate file
</note>
  <outline>
    <contour>
      <point x="1381" y="1588" type="line"/>
      <point x="1423" y="1873"/>
      <point x="1272" y="2076"/>
      <point x="980" y="2076" type="curve" smooth="yes"/>
      <point x="704" y="2076"/>
      <point x="477" y="1892"/>
      <point x="435" y="1648" type="curve" smooth="yes"/>
      <point x="413" y="1509"/>
      <point x="463" y="1407"/>
      <point x="549" y="1319" type="curve"/>
      <point x="548" y="1311" type="line"/>
      <point x="364" y="1283"/>
      <point x="216" y="1120"/>
      <point x="189" y="963" type="curve" smooth="yes"/>
      <point x="153" y="737"/>
      <point x="299" y="609"/>
      <point x="467" y="503" type="curve" smooth="yes"/>
      <point x="751" y="320" type="line" smooth="yes"/>
      <point x="891" y="229"/>
      <point x="980" y="156"/>
      <point x="956" y="11" type="curve" smooth="yes"/>
      <point x="928" y="-161"/>
      <point x="764" y="-253"/>
      <point x="587" y="-253" type="curve" smooth="yes"/>
      <point x="383" y="-253"/>
      <point x="257" y="-129"/>
      <point x="287" y="77" type="curve"/>
      <point x="111" y="77" type="line"/>
      <point x="65" y="-225"/>
      <point x="255" y="-416"/>
      <point x="559" y="-416" type="curve" smooth="yes"/>
      <point x="828" y="-416"/>
      <point x="1084" y="-272"/>
      <point x="1129" y="11" type="curve" smooth="yes"/>
      <point x="1151" y="140"/>
      <point x="1121" y="247"/>
      <point x="1001" y="351" type="curve"/>
      <point x="1001" y="355" type="line"/>
      <point x="1172" y="387"/>
      <point x="1336" y="539"/>
      <point x="1363" y="697" type="curve" smooth="yes"/>
      <point x="1404" y="941"/>
      <point x="1219" y="1069"/>
      <point x="1092" y="1153" type="curve" smooth="yes"/>
      <point x="807" y="1339" type="line" smooth="yes"/>
      <point x="697" y="1409"/>
      <point x="584" y="1503"/>
      <point x="608" y="1648" type="curve" smooth="yes"/>
      <point x="633" y="1781"/>
      <point x="757" y="1915"/>
      <point x="953" y="1915" type="curve" smooth="yes"/>
      <point x="1156" y="1915"/>
      <point x="1235" y="1772"/>
      <point x="1208" y="1588" type="curve"/>
    </contour>
    <contour>
      <point x="1195" y="697" type="curve" smooth="yes"/>
      <point x="1168" y="528"/>
      <point x="971" y="427"/>
      <point x="855" y="464" type="curve"/>
      <point x="576" y="643" type="line" smooth="yes"/>
      <point x="428" y="740"/>
      <point x="336" y="827"/>
      <point x="357" y="963" type="curve" smooth="yes"/>
      <point x="385" y="1129"/>
      <point x="548" y="1247"/>
      <point x="684" y="1207" type="curve"/>
      <point x="981" y="1013" type="line" smooth="yes"/>
      <point x="1099" y="937"/>
      <point x="1219" y="840"/>
    </contour>
  </outline>
</glyph>
<glyph name="dieresis" format="2">
  <advance width="1728"/>
  <unicode hex="00A8"/>
  <outline>
    <contour>
      <point x="789" y="1800" type="curve" smooth="yes"/>
      <point x="859" y="1800"/>
      <point x="917" y="1855"/>
      <point x="927" y="1915" type="curve" smooth="yes"/>
      <point x="939" y="1995"/>
      <point x="888" y="2056"/>
      <point x="808" y="2056" type="curve" smooth="yes"/>
      <point x="747" y="2056"/>
      <point x="683" y="2007"/>
      <point x="673" y="1941" type="curve" smooth="yes"/>
      <point x="662" y="1867"/>
      <point x="717" y="1800"/>
    </contour>
    <contour>
      <point x="1301" y="1800" type="curve" smooth="yes"/>
      <point x="1371" y="1800"/>
      <point x="1428" y="1853"/>
      <point x="1439" y="1915" type="curve" smooth="yes"/>
      <point x="1453" y="1994"/>
      <point x="1400" y="2056"/>
      <point x="1320" y="2056" type="curve" smooth="yes"/>
      <point x="1259" y="2056"/>
      <point x="1197" y="2007"/>
      <point x="1185" y="1941" type="curve" smooth="yes"/>
      <point x="1172" y="1865"/>
      <point x="1229" y="1800"/>
    </contour>
  </outline>
</glyph>
<glyph name="copyright" format="2">
  <advance width="2576"/>
  <unicode hex="00A9"/>
  <note>
Stroke R: 116
Stroke B: 160
</note>
  <outline>
    <contour>
      <point x="752" y="1024" type="curve" smooth="yes"/>
      <point x="698" y="696"/>
      <point x="920" y="430"/>
      <point x="1248" y="430" type="curve" smooth="yes"/>
      <point x="1516" y="430"/>
      <point x="1753" y="609"/>
      <point x="1844" y="853" type="curve"/>
      <point x="1659" y="853" type="line"/>
      <point x="1591" y="708"/>
      <point x="1429" y="606"/>
      <point x="1259" y="606" type="curve" smooth="yes"/>
      <point x="1029" y="606"/>
      <point x="892" y="802"/>
      <point x="928" y="1024" type="curve" smooth="yes"/>
      <point x="967" y="1264"/>
      <point x="1204" y="1442"/>
      <point x="1432" y="1442" type="curve" smooth="yes"/>
      <point x="1604" y="1442"/>
      <point x="1711" y="1341"/>
      <point x="1728" y="1195" type="curve"/>
      <point x="1913" y="1195" type="line"/>
      <point x="1903" y="1439"/>
      <point x="1712" y="1618"/>
      <point x="1444" y="1618" type="curve" smooth="yes"/>
      <point x="1116" y="1618"/>
      <point x="806" y="1352"/>
    </contour>
    <component base="circlewhite" xOffset="1"/>
  </outline>
</glyph>
<glyph name="ordfeminine" format="2">
  <advance width="1228"/>
  <unicode hex="00AA"/>
  <outline>
    <contour>
      <point x="849" y="1184" type="line"/>
      <point x="837" y="1114"/>
      <point x="836" y="1038"/>
      <point x="844" y="973" type="curve"/>
      <point x="1085" y="973" type="line"/>
      <point x="1075" y="1050"/>
      <point x="1078" y="1129"/>
      <point x="1095" y="1220" type="curve" smooth="yes"/>
      <point x="1167" y="1652" type="line"/>
      <point x="1206" y="1904"/>
      <point x="1068" y="2032"/>
      <point x="831" y="2032" type="curve" smooth="yes"/>
      <point x="572" y="2032"/>
      <point x="386" y="1896"/>
      <point x="355" y="1713" type="curve"/>
      <point x="584" y="1692" type="line"/>
      <point x="599" y="1780"/>
      <point x="679" y="1828"/>
      <point x="799" y="1828" type="curve" smooth="yes"/>
      <point x="905" y="1828"/>
      <point x="945" y="1770"/>
      <point x="929" y="1652" type="curve"/>
    </contour>
    <contour>
      <point x="976" y="1585" type="line"/>
      <point x="777" y="1585" type="line"/>
      <point x="465" y="1585"/>
      <point x="290" y="1468"/>
      <point x="257" y="1264" type="curve" smooth="yes"/>
      <point x="226" y="1076"/>
      <point x="329" y="952"/>
      <point x="548" y="952" type="curve" smooth="yes"/>
      <point x="734" y="952"/>
      <point x="853" y="1062"/>
      <point x="908" y="1149" type="curve"/>
      <point x="908" y="1308" type="line"/>
      <point x="900" y="1240"/>
      <point x="750" y="1153"/>
      <point x="639" y="1153" type="curve" smooth="yes"/>
      <point x="527" y="1153"/>
      <point x="488" y="1196"/>
      <point x="500" y="1273" type="curve" smooth="yes"/>
      <point x="512" y="1353"/>
      <point x="590" y="1425"/>
      <point x="749" y="1425" type="curve"/>
      <point x="948" y="1425" type="line"/>
    </contour>
  </outline>
</glyph>
<glyph name="registered" format="2">
  <advance width="1888"/>
  <unicode hex="00AE"/>
  <note>
Stroke L: 32
Stroke R: 96
Stroke B: 112
</note>
  <outline>
    <contour>
      <point x="698" y="916" type="line"/>
      <point x="827" y="916" type="line"/>
      <point x="933" y="1553" type="line"/>
      <point x="1119" y="1553" type="line" smooth="yes"/>
      <point x="1182" y="1553"/>
      <point x="1240" y="1516"/>
      <point x="1227" y="1423" type="curve" smooth="yes"/>
      <point x="1213" y="1332"/>
      <point x="1139" y="1282"/>
      <point x="1072" y="1282" type="curve" smooth="yes"/>
      <point x="832" y="1282" type="line"/>
      <point x="815" y="1181" type="line"/>
      <point x="1089" y="1181" type="line" smooth="yes"/>
      <point x="1204" y="1181"/>
      <point x="1340" y="1273"/>
      <point x="1367" y="1423" type="curve" smooth="yes"/>
      <point x="1393" y="1573"/>
      <point x="1284" y="1654"/>
      <point x="1175" y="1654" type="curve" smooth="yes"/>
      <point x="820" y="1654" type="line"/>
    </contour>
    <contour>
      <point x="1186" y="1259" type="line"/>
      <point x="1047" y="1259" type="line"/>
      <point x="1169" y="916" type="line"/>
      <point x="1312" y="916" type="line"/>
    </contour>
    <contour>
      <point x="1028" y="476" type="curve" smooth="yes"/>
      <point x="1469" y="476"/>
      <point x="1827" y="834"/>
      <point x="1828" y="1276" type="curve" smooth="yes"/>
      <point x="1829" y="1718"/>
      <point x="1469" y="2076"/>
      <point x="1028" y="2076" type="curve" smooth="yes"/>
      <point x="585" y="2076"/>
      <point x="227" y="1718"/>
      <point x="228" y="1276" type="curve" smooth="yes"/>
      <point x="229" y="834"/>
      <point x="585" y="476"/>
    </contour>
    <contour>
      <point x="1028" y="625" type="curve" smooth="yes"/>
      <point x="667" y="625"/>
      <point x="376" y="916"/>
      <point x="377" y="1276" type="curve" smooth="yes"/>
      <point x="378" y="1636"/>
      <point x="667" y="1927"/>
      <point x="1028" y="1927" type="curve" smooth="yes"/>
      <point x="1387" y="1927"/>
      <point x="1678" y="1636"/>
      <point x="1679" y="1276" type="curve" smooth="yes"/>
      <point x="1680" y="916"/>
      <point x="1387" y="625"/>
    </contour>
  </outline>
</glyph>
<glyph name="degree" format="2">
  <advance width="1280"/>
  <unicode hex="00B0"/>
  <outline>
    <contour>
      <point x="781" y="1177" type="curve" smooth="yes"/>
      <point x="1027" y="1177"/>
      <point x="1226" y="1377"/>
      <point x="1226" y="1623" type="curve" smooth="yes"/>
      <point x="1226" y="1869"/>
      <point x="1027" y="2068"/>
      <point x="781" y="2068" type="curve" smooth="yes"/>
      <point x="535" y="2068"/>
      <point x="335" y="1869"/>
      <point x="335" y="1623" type="curve" smooth="yes"/>
      <point x="335" y="1377"/>
      <point x="535" y="1177"/>
    </contour>
    <contour>
      <point x="781" y="1332" type="curve" smooth="yes"/>
      <point x="620" y="1332"/>
      <point x="490" y="1462"/>
      <point x="490" y="1623" type="curve" smooth="yes"/>
      <point x="490" y="1784"/>
      <point x="620" y="1913"/>
      <point x="781" y="1913" type="curve" smooth="yes"/>
      <point x="942" y="1913"/>
      <point x="1071" y="1784"/>
      <point x="1071" y="1623" type="curve" smooth="yes"/>
      <point x="1071" y="1462"/>
      <point x="942" y="1332"/>
    </contour>
  </outline>
</glyph>
<glyph name="plusminus" format="2">
  <advance width="1835"/>
  <unicode hex="00B1"/>
  <outline>
    <contour>
      <point x="188" y="128" type="line"/>
      <point x="1433" y="128" type="line"/>
      <point x="1461" y="299" type="line"/>
      <point x="216" y="299" type="line"/>
    </contour>
    <contour>
      <point x="321" y="923" type="line"/>
      <point x="1567" y="923" type="line"/>
      <point x="1595" y="1093" type="line"/>
      <point x="349" y="1093" type="line"/>
    </contour>
    <contour>
      <point x="785" y="480" type="line"/>
      <point x="956" y="480" type="line"/>
      <point x="1131" y="1536" type="line"/>
      <point x="960" y="1536" type="line"/>
    </contour>
  </outline>
</glyph>
<glyph name="two.sups" format="2">
  <advance width="1173"/>
  <unicode hex="00B2"/>
  <outline>
    <contour>
      <point x="191" y="1024" type="line"/>
      <point x="1083" y="1024" type="line"/>
      <point x="1105" y="1161" type="line"/>
      <point x="452" y="1161" type="line"/>
      <point x="452" y="1168" type="line"/>
      <point x="805" y="1453" type="line" smooth="yes"/>
      <point x="1065" y="1661"/>
      <point x="1156" y="1764"/>
      <point x="1180" y="1913" type="curve" smooth="yes"/>
      <point x="1212" y="2113"/>
      <point x="1071" y="2268"/>
      <point x="820" y="2268" type="curve" smooth="yes"/>
      <point x="569" y="2268"/>
      <point x="373" y="2113"/>
      <point x="339" y="1904" type="curve"/>
      <point x="501" y="1904" type="line"/>
      <point x="523" y="2039"/>
      <point x="652" y="2135"/>
      <point x="805" y="2135" type="curve" smooth="yes"/>
      <point x="956" y="2135"/>
      <point x="1051" y="2047"/>
      <point x="1029" y="1919" type="curve" smooth="yes"/>
      <point x="1012" y="1809"/>
      <point x="931" y="1728"/>
      <point x="741" y="1575" type="curve" smooth="yes"/>
      <point x="209" y="1144" type="line"/>
    </contour>
  </outline>
</glyph>
<glyph name="three.sups" format="2">
  <advance width="1191"/>
  <unicode hex="00B3"/>
  <outline>
    <contour>
      <point x="643" y="1008" type="curve" smooth="yes"/>
      <point x="912" y="1008"/>
      <point x="1125" y="1148"/>
      <point x="1160" y="1353" type="curve" smooth="yes"/>
      <point x="1184" y="1508"/>
      <point x="1087" y="1625"/>
      <point x="909" y="1656" type="curve"/>
      <point x="909" y="1663" type="line"/>
      <point x="1075" y="1696"/>
      <point x="1184" y="1781"/>
      <point x="1208" y="1927" type="curve" smooth="yes"/>
      <point x="1240" y="2124"/>
      <point x="1093" y="2268"/>
      <point x="839" y="2268" type="curve" smooth="yes"/>
      <point x="604" y="2268"/>
      <point x="397" y="2131"/>
      <point x="360" y="1923" type="curve"/>
      <point x="519" y="1923" type="line"/>
      <point x="541" y="2051"/>
      <point x="689" y="2135"/>
      <point x="837" y="2135" type="curve" smooth="yes"/>
      <point x="1001" y="2135"/>
      <point x="1071" y="2049"/>
      <point x="1049" y="1929" type="curve" smooth="yes"/>
      <point x="1031" y="1813"/>
      <point x="896" y="1717"/>
      <point x="720" y="1717" type="curve" smooth="yes"/>
      <point x="645" y="1717" type="line"/>
      <point x="627" y="1591" type="line"/>
      <point x="705" y="1591" type="line" smooth="yes"/>
      <point x="903" y="1591"/>
      <point x="1015" y="1508"/>
      <point x="992" y="1373" type="curve" smooth="yes"/>
      <point x="971" y="1249"/>
      <point x="827" y="1148"/>
      <point x="649" y="1148" type="curve" smooth="yes"/>
      <point x="488" y="1148"/>
      <point x="381" y="1232"/>
      <point x="400" y="1356" type="curve"/>
      <point x="235" y="1356" type="line"/>
      <point x="204" y="1152"/>
      <point x="375" y="1008"/>
    </contour>
  </outline>
</glyph>
<glyph name="acute" format="2">
  <advance width="1400"/>
  <unicode hex="00B4"/>
  <outline>
    <contour>
      <point x="757" y="1749" type="line"/>
      <point x="917" y="1749" type="line"/>
      <point x="1298" y="2203" type="line"/>
      <point x="1087" y="2203" type="line"/>
    </contour>
  </outline>
</glyph>
<glyph name="micro" format="2">
  <advance width="1710"/>
  <unicode hex="00B5"/>
  <outline>
    <contour>
      <point x="5" y="-583" type="line"/>
      <point x="184" y="-583" type="line"/>
      <point x="323" y="232" type="line"/>
      <point x="335" y="232" type="line"/>
      <point x="396" y="62"/>
      <point x="548" y="-30"/>
      <point x="721" y="-29" type="curve" smooth="yes"/>
      <point x="899" y="-30"/>
      <point x="1081" y="62"/>
      <point x="1201" y="232" type="curve"/>
      <point x="1213" y="232" type="line"/>
      <point x="1173" y="0" type="line"/>
      <point x="1352" y="0" type="line"/>
      <point x="1608" y="1536" type="line"/>
      <point x="1435" y="1536" type="line"/>
      <point x="1281" y="620" type="line" smooth="yes"/>
      <point x="1237" y="350"/>
      <point x="1029" y="164"/>
      <point x="756" y="164" type="curve" smooth="yes"/>
      <point x="482" y="164"/>
      <point x="335" y="350"/>
      <point x="379" y="620" type="curve" smooth="yes"/>
      <point x="532" y="1536" type="line"/>
      <point x="360" y="1536" type="line"/>
    </contour>
  </outline>
</glyph>
<glyph name="paragraph" format="2">
  <advance width="1645"/>
  <unicode hex="00B6"/>
  <note>
aka PILCROW SIGN
</note>
  <outline>
    <contour>
      <point x="1555" y="1880" type="line"/>
      <point x="1583" y="2048" type="line"/>
      <point x="1055" y="2048" type="line" smooth="yes"/>
      <point x="619" y="2048"/>
      <point x="335" y="1772"/>
      <point x="271" y="1404" type="curve" smooth="yes"/>
      <point x="209" y="1032"/>
      <point x="407" y="760"/>
      <point x="843" y="760" type="curve" smooth="yes"/>
      <point x="959" y="760" type="line"/>
      <point x="1143" y="1880" type="line"/>
    </contour>
    <contour>
      <point x="1060" y="0" type="line"/>
      <point x="1247" y="0" type="line"/>
      <point x="1587" y="2048" type="line"/>
      <point x="1400" y="2048" type="line"/>
    </contour>
  </outline>
</glyph>
<glyph name="cedilla" format="2">
  <advance width="693"/>
  <unicode hex="00B8"/>
  <outline>
    <contour>
      <point x="150" y="8" type="line"/>
      <point x="82" y="-169" type="line"/>
      <point x="233" y="-177"/>
      <point x="294" y="-213"/>
      <point x="277" y="-312" type="curve" smooth="yes"/>
      <point x="262" y="-406"/>
      <point x="175" y="-445"/>
      <point x="43" y="-447" type="curve"/>
      <point x="27" y="-572" type="line"/>
      <point x="269" y="-570"/>
      <point x="413" y="-468"/>
      <point x="440" y="-307" type="curve" smooth="yes"/>
      <point x="466" y="-161"/>
      <point x="385" y="-90"/>
      <point x="271" y="-72" type="curve"/>
      <point x="302" y="8" type="line"/>
    </contour>
  </outline>
</glyph>
<glyph name="one.sups" format="2">
  <advance width="821"/>
  <unicode hex="00B9"/>
  <outline>
    <contour>
      <point x="817" y="2252" type="line"/>
      <point x="660" y="2252" type="line"/>
      <point x="645" y="2203"/>
      <point x="508" y="2057"/>
      <point x="328" y="2053" type="curve"/>
      <point x="309" y="1919" type="line"/>
      <point x="463" y="1920"/>
      <point x="579" y="2000"/>
      <point x="608" y="2032" type="curve"/>
      <point x="620" y="2032" type="line"/>
      <point x="452" y="1024" type="line"/>
      <point x="613" y="1024" type="line"/>
    </contour>
  </outline>
</glyph>
<glyph name="ordmasculine" format="2">
  <advance width="1230"/>
  <unicode hex="00BA"/>
  <outline>
    <contour>
      <point x="256" y="1436" type="line"/>
      <point x="208" y="1152"/>
      <point x="359" y="953"/>
      <point x="652" y="953" type="curve" smooth="yes"/>
      <point x="941" y="953"/>
      <point x="1150" y="1152"/>
      <point x="1199" y="1436" type="curve"/>
      <point x="1215" y="1545" type="line"/>
      <point x="1262" y="1828"/>
      <point x="1117" y="2032"/>
      <point x="824" y="2032" type="curve" smooth="yes"/>
      <point x="534" y="2032"/>
      <point x="320" y="1828"/>
      <point x="272" y="1545" type="curve"/>
    </contour>
    <contour>
      <point x="509" y="1545" type="line"/>
      <point x="538" y="1705"/>
      <point x="637" y="1828"/>
      <point x="792" y="1828" type="curve" smooth="yes"/>
      <point x="950" y="1828"/>
      <point x="1005" y="1705"/>
      <point x="977" y="1545" type="curve"/>
      <point x="961" y="1436" type="line"/>
      <point x="933" y="1272"/>
      <point x="838" y="1152"/>
      <point x="684" y="1152" type="curve" smooth="yes"/>
      <point x="525" y="1152"/>
      <point x="466" y="1272"/>
      <point x="493" y="1436" type="curve"/>
    </contour>
  </outline>
</glyph>
<glyph name="AE" format="2">
  <advance width="2759"/>
  <unicode hex="00C6"/>
  <outline>
    <contour>
      <point x="-49" y="0" type="line"/>
      <point x="157" y="0" type="line"/>
      <point x="1380" y="1880" type="line"/>
      <point x="1544" y="1880" type="line"/>
      <point x="1232" y="0" type="line"/>
      <point x="2440" y="0" type="line"/>
      <point x="2468" y="168" type="line"/>
      <point x="1447" y="168" type="line"/>
      <point x="1575" y="941" type="line"/>
      <point x="2513" y="941" type="line"/>
      <point x="2541" y="1109" type="line"/>
      <point x="1603" y="1109" type="line"/>
      <point x="1731" y="1880" type="line"/>
      <point x="2732" y="1880" type="line"/>
      <point x="2760" y="2048" type="line"/>
      <point x="1300" y="2048" type="line"/>
    </contour>
    <contour>
      <point x="480" y="617" type="line"/>
      <point x="1432" y="617" type="line"/>
      <point x="1460" y="785" type="line"/>
      <point x="508" y="785" type="line"/>
    </contour>
  </outline>
</glyph>
<glyph name="multiply" format="2">
  <advance width="1835"/>
  <unicode hex="00D7"/>
  <outline>
    <contour>
      <point x="1326" y="179" type="line"/>
      <point x="1452" y="285" type="line"/>
      <point x="512" y="1413" type="line"/>
      <point x="386" y="1307" type="line"/>
    </contour>
    <contour>
      <point x="330" y="180" type="line"/>
      <point x="1624" y="1287" type="line"/>
      <point x="1517" y="1412" type="line"/>
      <point x="222" y="305" type="line"/>
    </contour>
  </outline>
</glyph>
<glyph name="Oslash" format="2">
  <advance width="2133"/>
  <unicode hex="00D8"/>
  <outline>
    <contour>
      <point x="404" y="-72" type="line"/>
      <point x="1929" y="2036" type="line"/>
      <point x="1813" y="2117" type="line"/>
      <point x="287" y="9" type="line"/>
    </contour>
    <component base="O" yOffset="-5"/>
  </outline>
</glyph>
<glyph name="Thorn" format="2">
  <advance width="1738"/>
  <unicode hex="00DE"/>
  <outline>
    <contour>
      <point x="464" y="2048" type="line"/>
      <point x="124" y="0" type="line"/>
      <point x="309" y="0" type="line"/>
      <point x="649" y="2048" type="line"/>
    </contour>
    <contour>
      <point x="476" y="1608" type="line"/>
      <point x="447" y="1427" type="line"/>
      <point x="973" y="1427" type="line" smooth="yes"/>
      <point x="1270" y="1426"/>
      <point x="1423" y="1285"/>
      <point x="1379" y="1029" type="curve" smooth="yes"/>
      <point x="1334" y="772"/>
      <point x="1142" y="639"/>
      <point x="845" y="640" type="curve" smooth="yes"/>
      <point x="319" y="640" type="line"/>
      <point x="289" y="457" type="line"/>
      <point x="816" y="457" type="line" smooth="yes"/>
      <point x="1232" y="457"/>
      <point x="1506" y="721"/>
      <point x="1556" y="1033" type="curve" smooth="yes"/>
      <point x="1610" y="1345"/>
      <point x="1419" y="1608"/>
      <point x="1003" y="1608" type="curve" smooth="yes"/>
    </contour>
  </outline>
</glyph>
<glyph name="germandbls" format="2">
  <advance width="1665"/>
  <unicode hex="00DF"/>
  <outline>
    <contour>
      <point x="144" y="0" type="line"/>
      <point x="316" y="0" type="line"/>
      <point x="572" y="1551" type="line" smooth="yes"/>
      <point x="606" y="1756"/>
      <point x="793" y="1902"/>
      <point x="1013" y="1901" type="curve" smooth="yes"/>
      <point x="1248" y="1902"/>
      <point x="1367" y="1736"/>
      <point x="1335" y="1529" type="curve" smooth="yes"/>
      <point x="1301" y="1329"/>
      <point x="1132" y="1135"/>
      <point x="912" y="1136" type="curve" smooth="yes"/>
      <point x="776" y="1136" type="line"/>
      <point x="745" y="948" type="line"/>
      <point x="933" y="948" type="line" smooth="yes"/>
      <point x="1187" y="947"/>
      <point x="1321" y="778"/>
      <point x="1285" y="551" type="curve" smooth="yes"/>
      <point x="1251" y="333"/>
      <point x="1074" y="178"/>
      <point x="844" y="177" type="curve" smooth="yes"/>
      <point x="608" y="177" type="line"/>
      <point x="579" y="0" type="line"/>
      <point x="788" y="0" type="line" smooth="yes"/>
      <point x="1139" y="0"/>
      <point x="1406" y="244"/>
      <point x="1459" y="564" type="curve" smooth="yes"/>
      <point x="1506" y="853"/>
      <point x="1345" y="1031"/>
      <point x="1091" y="1060" type="curve"/>
      <point x="1095" y="1080" type="line"/>
      <point x="1301" y="1151"/>
      <point x="1469" y="1303"/>
      <point x="1507" y="1557" type="curve" smooth="yes"/>
      <point x="1552" y="1874"/>
      <point x="1363" y="2076"/>
      <point x="1041" y="2076" type="curve" smooth="yes"/>
      <point x="721" y="2076"/>
      <point x="452" y="1870"/>
      <point x="396" y="1529" type="curve" smooth="yes"/>
    </contour>
  </outline>
</glyph>
<glyph name="ae" format="2">
  <advance width="2601"/>
  <unicode hex="00E6"/>
  <outline>
    <contour>
      <point x="1691" y="-32" type="curve" smooth="yes"/>
      <point x="1999" y="-32"/>
      <point x="2232" y="135"/>
      <point x="2335" y="328" type="curve"/>
      <point x="2176" y="383" type="line"/>
      <point x="2093" y="245"/>
      <point x="1936" y="131"/>
      <point x="1719" y="131" type="curve" smooth="yes"/>
      <point x="1400" y="131"/>
      <point x="1236" y="371"/>
      <point x="1296" y="737" type="curve" smooth="yes"/>
      <point x="1312" y="831" type="line" smooth="yes"/>
      <point x="1364" y="1135"/>
      <point x="1605" y="1395"/>
      <point x="1900" y="1395" type="curve" smooth="yes"/>
      <point x="2175" y="1395"/>
      <point x="2331" y="1168"/>
      <point x="2281" y="872" type="curve"/>
      <point x="1267" y="872" type="line"/>
      <point x="1241" y="715" type="line"/>
      <point x="2437" y="715" type="line"/>
      <point x="2452" y="803" type="line" smooth="yes"/>
      <point x="2537" y="1316"/>
      <point x="2260" y="1557"/>
      <point x="1928" y="1557" type="curve" smooth="yes"/>
      <point x="1660" y="1557"/>
      <point x="1436" y="1407"/>
      <point x="1295" y="1164" type="curve"/>
      <point x="1139" y="433" type="line"/>
      <point x="1159" y="157"/>
      <point x="1361" y="-32"/>
    </contour>
    <contour>
      <point x="581" y="128" type="curve" smooth="yes"/>
      <point x="380" y="128"/>
      <point x="249" y="235"/>
      <point x="280" y="421" type="curve" smooth="yes"/>
      <point x="311" y="607"/>
      <point x="477" y="685"/>
      <point x="743" y="717" type="curve" smooth="yes"/>
      <point x="868" y="732"/>
      <point x="1097" y="760"/>
      <point x="1157" y="811" type="curve"/>
      <point x="1120" y="589" type="line" smooth="yes"/>
      <point x="1079" y="337"/>
      <point x="865" y="128"/>
    </contour>
    <contour>
      <point x="532" y="-35" type="curve" smooth="yes"/>
      <point x="788" y="-35"/>
      <point x="1053" y="109"/>
      <point x="1163" y="347" type="curve"/>
      <point x="1180" y="347" type="line"/>
      <point x="1380" y="1181" type="line" smooth="yes"/>
      <point x="1365" y="1465"/>
      <point x="1129" y="1557"/>
      <point x="916" y="1557" type="curve" smooth="yes"/>
      <point x="681" y="1557"/>
      <point x="421" y="1464"/>
      <point x="277" y="1213" type="curve"/>
      <point x="435" y="1152" type="line"/>
      <point x="513" y="1284"/>
      <point x="672" y="1397"/>
      <point x="893" y="1397" type="curve" smooth="yes"/>
      <point x="1125" y="1397"/>
      <point x="1233" y="1268"/>
      <point x="1199" y="1059" type="curve" smooth="yes"/>
      <point x="1193" y="1023" type="line" smooth="yes"/>
      <point x="1173" y="908"/>
      <point x="1028" y="905"/>
      <point x="767" y="873" type="curve" smooth="yes"/>
      <point x="412" y="831"/>
      <point x="153" y="733"/>
      <point x="101" y="429" type="curve" smooth="yes"/>
      <point x="55" y="133"/>
      <point x="253" y="-35"/>
    </contour>
  </outline>
</glyph>
<glyph name="eth" format="2">
  <advance width="1639"/>
  <unicode hex="00F0"/>
  <outline>
    <contour>
      <point x="1545" y="1972" type="line"/>
      <point x="1513" y="2097" type="line"/>
      <point x="644" y="1715" type="line"/>
      <point x="672" y="1589" type="line"/>
    </contour>
    <contour>
      <point x="688" y="-32" type="curve" smooth="yes"/>
      <point x="1088" y="-32"/>
      <point x="1401" y="256"/>
      <point x="1481" y="752" type="curve" smooth="yes"/>
      <point x="1597" y="1453"/>
      <point x="1206" y="1944"/>
      <point x="799" y="2176" type="curve"/>
      <point x="700" y="2041" type="line"/>
      <point x="1169" y="1783"/>
      <point x="1317" y="1388"/>
      <point x="1349" y="1136" type="curve"/>
      <point x="1329" y="1136" type="line"/>
      <point x="1287" y="1264"/>
      <point x="1174" y="1439"/>
      <point x="913" y="1445" type="curve" smooth="yes"/>
      <point x="549" y="1461"/>
      <point x="215" y="1146"/>
      <point x="143" y="704" type="curve" smooth="yes"/>
      <point x="74" y="276"/>
      <point x="279" y="-32"/>
    </contour>
    <contour>
      <point x="712" y="140" type="curve" smooth="yes"/>
      <point x="366" y="140"/>
      <point x="277" y="430"/>
      <point x="321" y="704" type="curve" smooth="yes"/>
      <point x="370" y="996"/>
      <point x="575" y="1289"/>
      <point x="903" y="1289" type="curve" smooth="yes"/>
      <point x="1260" y="1289"/>
      <point x="1331" y="939"/>
      <point x="1292" y="683" type="curve" smooth="yes"/>
      <point x="1243" y="393"/>
      <point x="1038" y="140"/>
    </contour>
  </outline>
</glyph>
<glyph name="divide" format="2">
  <advance width="1835"/>
  <unicode hex="00F7"/>
  <outline>
    <contour>
      <point x="1557" y="885" type="line"/>
      <point x="317" y="885" type="line"/>
      <point x="289" y="715" type="line"/>
      <point x="1529" y="715" type="line"/>
    </contour>
    <contour>
      <point x="829" y="160" type="curve" smooth="yes"/>
      <point x="901" y="160"/>
      <point x="971" y="219"/>
      <point x="979" y="293" type="curve" smooth="yes"/>
      <point x="988" y="377"/>
      <point x="931" y="445"/>
      <point x="851" y="445" type="curve" smooth="yes"/>
      <point x="773" y="445"/>
      <point x="707" y="387"/>
      <point x="699" y="315" type="curve" smooth="yes"/>
      <point x="689" y="229"/>
      <point x="744" y="160"/>
    </contour>
    <contour>
      <point x="995" y="1155" type="curve" smooth="yes"/>
      <point x="1067" y="1155"/>
      <point x="1133" y="1213"/>
      <point x="1144" y="1288" type="curve" smooth="yes"/>
      <point x="1156" y="1371"/>
      <point x="1096" y="1440"/>
      <point x="1016" y="1440" type="curve" smooth="yes"/>
      <point x="939" y="1440"/>
      <point x="872" y="1381"/>
      <point x="861" y="1309" type="curve" smooth="yes"/>
      <point x="849" y="1225"/>
      <point x="909" y="1155"/>
    </contour>
  </outline>
</glyph>
<glyph name="oslash" format="2">
  <advance width="1664"/>
  <unicode hex="00F8"/>
  <outline>
    <contour>
      <point x="220" y="-69" type="line"/>
      <point x="1549" y="1516" type="line"/>
      <point x="1444" y="1597" type="line"/>
      <point x="112" y="12" type="line"/>
    </contour>
    <component base="o" yOffset="1"/>
  </outline>
</glyph>
<glyph name="thorn" format="2">
  <advance width="1713"/>
  <unicode hex="00FE"/>
  <outline>
    <contour>
      <point x="444" y="2048" type="line"/>
      <point x="8" y="-576" type="line"/>
      <point x="180" y="-576" type="line"/>
      <point x="324" y="284" type="line"/>
      <point x="380" y="796" type="line"/>
      <point x="468" y="1144" type="line"/>
      <point x="616" y="2048" type="line"/>
    </contour>
    <contour>
      <point x="417" y="1269" type="line"/>
      <point x="249" y="259" type="line"/>
      <point x="341" y="259" type="line"/>
      <point x="381" y="183"/>
      <point x="435" y="-34"/>
      <point x="765" y="-35" type="curve" smooth="yes"/>
      <point x="1161" y="-34"/>
      <point x="1480" y="285"/>
      <point x="1559" y="764" type="curve" smooth="yes"/>
      <point x="1636" y="1233"/>
      <point x="1429" y="1556"/>
      <point x="1024" y="1556" type="curve" smooth="yes"/>
      <point x="691" y="1556"/>
      <point x="572" y="1341"/>
      <point x="509" y="1269" type="curve"/>
    </contour>
    <contour>
      <point x="1379" y="768" type="curve" smooth="yes"/>
      <point x="1319" y="423"/>
      <point x="1110" y="135"/>
      <point x="791" y="136" type="curve" smooth="yes"/>
      <point x="490" y="135"/>
      <point x="352" y="387"/>
      <point x="413" y="768" type="curve" smooth="yes"/>
      <point x="473" y="1142"/>
      <point x="690" y="1386"/>
      <point x="997" y="1387" type="curve" smooth="yes"/>
      <point x="1321" y="1386"/>
      <point x="1433" y="1108"/>
    </contour>
  </outline>
</glyph>
<glyph name="Hbar" format="2">
  <advance width="2157"/>
  <unicode hex="0126"/>
  <outline>
    <contour>
      <point x="2145" y="1591" type="line"/>
      <point x="284" y="1591" type="line"/>
      <point x="255" y="1393" type="line"/>
      <point x="2116" y="1393" type="line"/>
    </contour>
    <component base="H" xOffset="40"/>
  </outline>
</glyph>
<glyph name="kgreenlandic" format="2">
  <advance width="1738"/>
  <unicode hex="0138"/>
  <outline>
    <contour>
      <point x="600" y="1488" type="line"/>
      <point x="373" y="1488" type="line"/>
      <point x="125" y="0" type="line"/>
      <point x="352" y="0" type="line"/>
    </contour>
    <contour>
      <point x="1555" y="1488" type="line"/>
      <point x="1289" y="1488" type="line"/>
      <point x="600" y="840" type="line"/>
      <point x="352" y="840" type="line"/>
      <point x="363" y="659" type="line"/>
      <point x="663" y="659" type="line"/>
    </contour>
    <contour>
      <point x="1073" y="0" type="line"/>
      <point x="1357" y="0" type="line"/>
      <point x="707" y="881" type="line"/>
      <point x="561" y="685" type="line"/>
    </contour>
  </outline>
</glyph>
<glyph name="lslash" format="2">
  <advance width="635"/>
  <unicode hex="0142"/>
  <outline>
    <contour>
      <point x="715" y="1263" type="line"/>
      <point x="44" y="1008" type="line"/>
      <point x="13" y="852" type="line"/>
      <point x="691" y="1107" type="line"/>
    </contour>
    <component base="l"/>
  </outline>
</glyph>
<glyph name="Eng" format="2">
  <advance width="2137"/>
  <unicode hex="014A"/>
  <outline>
    <contour>
      <point x="1543" y="0" type="line"/>
      <point x="1505" y="-184" type="line" smooth="yes"/>
      <point x="1470" y="-352"/>
      <point x="1371" y="-398"/>
      <point x="1248" y="-397" type="curve" smooth="yes"/>
      <point x="1227" y="-398"/>
      <point x="1208" y="-394"/>
      <point x="1195" y="-392" type="curve"/>
      <point x="1169" y="-557" type="line"/>
      <point x="1199" y="-568"/>
      <point x="1248" y="-566"/>
      <point x="1296" y="-565" type="curve" smooth="yes"/>
      <point x="1474" y="-566"/>
      <point x="1652" y="-411"/>
      <point x="1700" y="-192" type="curve" smooth="yes"/>
      <point x="1737" y="0" type="line"/>
    </contour>
    <component base="N"/>
  </outline>
</glyph>
<glyph name="eng" format="2">
  <advance width="1607"/>
  <unicode hex="014B"/>
  <outline>
    <contour>
      <point x="1080" y="0" type="line"/>
      <point x="1047" y="-193" type="line" smooth="yes"/>
      <point x="1018" y="-364"/>
      <point x="908" y="-414"/>
      <point x="776" y="-413" type="curve" smooth="yes"/>
      <point x="754" y="-414"/>
      <point x="730" y="-410"/>
      <point x="716" y="-408" type="curve"/>
      <point x="701" y="-560" type="line"/>
      <point x="722" y="-570"/>
      <point x="768" y="-570"/>
      <point x="808" y="-569" type="curve" smooth="yes"/>
      <point x="997" y="-570"/>
      <point x="1187" y="-421"/>
      <point x="1221" y="-188" type="curve" smooth="yes"/>
      <point x="1252" y="0" type="line"/>
    </contour>
    <component base="n"/>
  </outline>
</glyph>
<glyph name="OE" format="2">
  <advance width="2655"/>
  <unicode hex="0152"/>
  <note>
!post:RemoveOverlap
</note>
  <outline>
    <contour>
      <point x="933" y="0" type="curve" smooth="yes"/>
      <point x="1201" y="0" type="line"/>
      <point x="1232" y="168" type="line"/>
      <point x="964" y="168" type="line" smooth="yes"/>
      <point x="538" y="168"/>
      <point x="315" y="511"/>
      <point x="401" y="1024" type="curve" smooth="yes"/>
      <point x="487" y="1538"/>
      <point x="827" y="1881"/>
      <point x="1245" y="1880" type="curve" smooth="yes"/>
      <point x="1513" y="1880" type="line"/>
      <point x="1541" y="2048" type="line"/>
      <point x="1273" y="2048" type="line" smooth="yes"/>
      <point x="743" y="2048"/>
      <point x="321" y="1641"/>
      <point x="220" y="1024" type="curve" smooth="yes"/>
      <point x="119" y="413"/>
      <point x="407" y="0"/>
    </contour>
    <component base="E" xOffset="980"/>
  </outline>
</glyph>
<glyph name="longs" format="2">
  <advance width="731"/>
  <unicode hex="017F"/>
  <outline>
    <contour>
      <point x="149" y="0" type="line"/>
      <point x="424" y="1649" type="line"/>
      <point x="454" y="1842"/>
      <point x="564" y="1958"/>
      <point x="733" y="1959" type="curve" smooth="yes"/>
      <point x="776" y="1958"/>
      <point x="819" y="1954"/>
      <point x="844" y="1947" type="curve"/>
      <point x="905" y="2112" type="line"/>
      <point x="845" y="2128"/>
      <point x="783" y="2140"/>
      <point x="723" y="2140" type="curve" smooth="yes"/>
      <point x="448" y="2140"/>
      <point x="247" y="1966"/>
      <point x="196" y="1649" type="curve"/>
      <point x="-77" y="0" type="line"/>
    </contour>
  </outline>
</glyph>
<glyph name="Bhook" format="2">
  <advance width="2201"/>
  <unicode hex="0181"/>
  <outline>
    <contour>
      <point x="848" y="1873" type="line"/>
      <point x="877" y="2048" type="line"/>
      <point x="709" y="2048" type="line" smooth="yes"/>
      <point x="480" y="2048"/>
      <point x="326" y="1872"/>
      <point x="300" y="1680" type="curve" smooth="yes"/>
      <point x="284" y="1565" type="line"/>
      <point x="464" y="1565" type="line"/>
      <point x="473" y="1628" type="line" smooth="yes"/>
      <point x="494" y="1757"/>
      <point x="529" y="1873"/>
      <point x="685" y="1873" type="curve" smooth="yes"/>
    </contour>
    <component base="B" xOffset="379"/>
  </outline>
</glyph>
<glyph name="Btopbar" format="2">
  <advance width="1838"/>
  <unicode hex="0182"/>
  <outline>
    <contour>
      <point x="144" y="0" type="line"/>
      <point x="912" y="0" type="line" smooth="yes"/>
      <point x="1338" y="0"/>
      <point x="1597" y="242"/>
      <point x="1653" y="588" type="curve" smooth="yes"/>
      <point x="1712" y="933"/>
      <point x="1529" y="1154"/>
      <point x="1101" y="1153" type="curve" smooth="yes"/>
      <point x="520" y="1153" type="line"/>
      <point x="641" y="1873" type="line"/>
      <point x="1651" y="1873" type="line"/>
      <point x="1679" y="2048" type="line"/>
      <point x="484" y="2048" type="line"/>
    </contour>
    <contour>
      <point x="359" y="172" type="line"/>
      <point x="491" y="975" type="line"/>
      <point x="1073" y="975" type="line" smooth="yes"/>
      <point x="1370" y="974"/>
      <point x="1507" y="798"/>
      <point x="1471" y="592" type="curve" smooth="yes"/>
      <point x="1437" y="381"/>
      <point x="1238" y="172"/>
      <point x="941" y="172" type="curve" smooth="yes"/>
    </contour>
  </outline>
</glyph>
<glyph name="btopbar" format="2">
  <advance width="1727"/>
  <unicode hex="0183"/>
  <note>
!post:RemoveOverlap
</note>
  <outline>
    <contour>
      <point x="1593" y="2048" type="line"/>
      <point x="631" y="2048" type="line"/>
      <point x="600" y="1880" type="line"/>
      <point x="1565" y="1880" type="line"/>
    </contour>
    <component base="b"/>
  </outline>
</glyph>
<glyph name="Tonesix" format="2">
  <advance width="1946"/>
  <unicode hex="0184"/>
  <outline>
    <contour>
      <point x="924" y="2048" type="line"/>
      <point x="237" y="2048" type="line"/>
      <point x="209" y="1873" type="line"/>
      <point x="896" y="1873" type="line"/>
    </contour>
    <contour>
      <point x="716" y="1153" type="line"/>
      <point x="687" y="975" type="line"/>
      <point x="1303" y="975" type="line"/>
      <point x="1599" y="974"/>
      <point x="1734" y="798"/>
      <point x="1700" y="592" type="curve"/>
      <point x="1667" y="381"/>
      <point x="1467" y="172"/>
      <point x="1171" y="172" type="curve"/>
      <point x="588" y="172" type="line"/>
      <point x="900" y="2048" type="line"/>
      <point x="713" y="2048" type="line"/>
      <point x="373" y="0" type="line"/>
      <point x="1141" y="0" type="line"/>
      <point x="1567" y="0"/>
      <point x="1824" y="242"/>
      <point x="1883" y="588" type="curve"/>
      <point x="1941" y="933"/>
      <point x="1756" y="1154"/>
      <point x="1332" y="1153" type="curve"/>
    </contour>
  </outline>
</glyph>
<glyph name="tonesix" format="2">
  <advance width="1741"/>
  <unicode hex="0185"/>
  <outline>
    <contour>
      <point x="537" y="2112" type="line"/>
      <point x="276" y="1817" type="line"/>
      <point x="261" y="1736" type="line"/>
      <point x="425" y="1440" type="line"/>
      <point x="488" y="1440" type="line"/>
      <point x="600" y="2112" type="line"/>
    </contour>
    <contour>
      <point x="528" y="1269" type="line"/>
      <point x="360" y="259" type="line"/>
      <point x="452" y="259" type="line"/>
      <point x="493" y="182"/>
      <point x="548" y="-34"/>
      <point x="876" y="-35" type="curve" smooth="yes"/>
      <point x="1272" y="-34"/>
      <point x="1591" y="285"/>
      <point x="1669" y="764" type="curve" smooth="yes"/>
      <point x="1747" y="1233"/>
      <point x="1540" y="1556"/>
      <point x="1135" y="1556" type="curve" smooth="yes"/>
      <point x="796" y="1556"/>
      <point x="681" y="1338"/>
      <point x="620" y="1269" type="curve"/>
    </contour>
    <contour>
      <point x="1489" y="768" type="curve" smooth="yes"/>
      <point x="1430" y="422"/>
      <point x="1221" y="135"/>
      <point x="901" y="136" type="curve" smooth="yes"/>
      <point x="601" y="135"/>
      <point x="463" y="387"/>
      <point x="524" y="768" type="curve" smooth="yes"/>
      <point x="584" y="1143"/>
      <point x="802" y="1386"/>
      <point x="1108" y="1387" type="curve" smooth="yes"/>
      <point x="1432" y="1386"/>
      <point x="1544" y="1109"/>
    </contour>
    <contour>
      <point x="553" y="2048" type="line"/>
      <point x="213" y="0" type="line"/>
      <point x="377" y="0" type="line"/>
      <point x="425" y="284" type="line"/>
      <point x="465" y="796" type="line"/>
      <point x="577" y="1144" type="line"/>
      <point x="727" y="2048" type="line"/>
    </contour>
  </outline>
</glyph>
<glyph name="Oopen" format="2">
  <advance width="2025"/>
  <unicode hex="0186"/>
  <outline>
    <contour>
      <point x="833" y="-28" type="curve" smooth="yes"/>
      <point x="1347" y="-28"/>
      <point x="1784" y="379"/>
      <point x="1892" y="1017" type="curve"/>
      <point x="1994" y="1661"/>
      <point x="1692" y="2076"/>
      <point x="1169" y="2076" type="curve" smooth="yes"/>
      <point x="782" y="2076"/>
      <point x="417" y="1836"/>
      <point x="265" y="1433" type="curve"/>
      <point x="452" y="1433" type="line"/>
      <point x="572" y="1737"/>
      <point x="872" y="1894"/>
      <point x="1157" y="1895" type="curve" smooth="yes"/>
      <point x="1546" y="1894"/>
      <point x="1812" y="1594"/>
      <point x="1720" y="1031" type="curve"/>
      <point x="1626" y="464"/>
      <point x="1252" y="154"/>
      <point x="856" y="153" type="curve" smooth="yes"/>
      <point x="574" y="154"/>
      <point x="335" y="314"/>
      <point x="320" y="620" type="curve"/>
      <point x="135" y="620" type="line"/>
      <point x="145" y="186"/>
      <point x="456" y="-28"/>
    </contour>
  </outline>
</glyph>
<glyph name="Chook" format="2">
  <advance width="2111"/>
  <unicode hex="0187"/>
  <outline>
    <contour>
      <point x="1976" y="1433" type="line"/>
      <point x="2025" y="1717" type="line" smooth="yes"/>
      <point x="2051" y="1866"/>
      <point x="2134" y="1910"/>
      <point x="2260" y="1909" type="curve"/>
      <point x="2289" y="1910"/>
      <point x="2306" y="1906"/>
      <point x="2321" y="1901" type="curve"/>
      <point x="2345" y="2053" type="line"/>
      <point x="2323" y="2065"/>
      <point x="2275" y="2065"/>
      <point x="2236" y="2065" type="curve" smooth="yes"/>
      <point x="2044" y="2065"/>
      <point x="1887" y="1932"/>
      <point x="1845" y="1700" type="curve" smooth="yes"/>
      <point x="1800" y="1433" type="line"/>
    </contour>
    <component base="C"/>
  </outline>
</glyph>
<glyph name="chook" format="2">
  <advance width="1689"/>
  <unicode hex="0188"/>
  <outline>
    <contour>
      <point x="1467" y="1112" type="line"/>
      <point x="1495" y="1271" type="line" smooth="yes"/>
      <point x="1525" y="1438"/>
      <point x="1638" y="1528"/>
      <point x="1773" y="1528" type="curve" smooth="yes"/>
      <point x="1799" y="1528"/>
      <point x="1823" y="1525"/>
      <point x="1843" y="1523" type="curve"/>
      <point x="1868" y="1677" type="line"/>
      <point x="1839" y="1685"/>
      <point x="1793" y="1685"/>
      <point x="1761" y="1685" type="curve" smooth="yes"/>
      <point x="1542" y="1685"/>
      <point x="1359" y="1513"/>
      <point x="1316" y="1271" type="curve" smooth="yes"/>
      <point x="1288" y="1112" type="line"/>
    </contour>
    <component base="c"/>
  </outline>
</glyph>
<glyph name="Dhook" format="2">
  <advance width="2413"/>
  <unicode hex="018A"/>
  <outline>
    <contour>
      <point x="284" y="1565" type="line"/>
      <point x="464" y="1565" type="line"/>
      <point x="473" y="1628" type="line" smooth="yes"/>
      <point x="494" y="1757"/>
      <point x="529" y="1878"/>
      <point x="688" y="1879" type="curve" smooth="yes"/>
      <point x="849" y="1879" type="line"/>
      <point x="877" y="2048" type="line"/>
      <point x="709" y="2048" type="line" smooth="yes"/>
      <point x="479" y="2048"/>
      <point x="325" y="1871"/>
      <point x="300" y="1680" type="curve" smooth="yes"/>
    </contour>
    <component base="D" xOffset="397"/>
  </outline>
</glyph>
<glyph name="Dtopbar" format="2">
  <advance width="1738"/>
  <unicode hex="018B"/>
  <outline>
    <contour>
      <point x="1448" y="0" type="line"/>
      <point x="1777" y="1992" type="line"/>
      <point x="587" y="1992" type="line"/>
      <point x="557" y="1801" type="line"/>
      <point x="1515" y="1801" type="line"/>
      <point x="1408" y="1164" type="line"/>
      <point x="877" y="1164" type="line" smooth="yes"/>
      <point x="453" y="1163"/>
      <point x="190" y="934"/>
      <point x="132" y="588" type="curve" smooth="yes"/>
      <point x="73" y="241"/>
      <point x="258" y="0"/>
      <point x="684" y="0" type="curve" smooth="yes"/>
    </contour>
    <contour>
      <point x="1248" y="188" type="line"/>
      <point x="717" y="188" type="line" smooth="yes"/>
      <point x="417" y="188"/>
      <point x="336" y="381"/>
      <point x="369" y="592" type="curve" smooth="yes"/>
      <point x="403" y="798"/>
      <point x="544" y="970"/>
      <point x="844" y="969" type="curve" smooth="yes"/>
      <point x="1375" y="969" type="line"/>
    </contour>
  </outline>
</glyph>
<glyph name="deltaturn" format="2">
  <advance width="1412"/>
  <unicode hex="018D"/>
  <outline>
    <contour>
      <point x="945" y="-516" type="line"/>
      <point x="972" y="-369" type="line"/>
      <point x="853" y="-200"/>
      <point x="700" y="-66"/>
      <point x="556" y="97" type="curve"/>
      <point x="575" y="97"/>
      <point x="569" y="97"/>
      <point x="608" y="101" type="curve" smooth="yes"/>
      <point x="1032" y="149"/>
      <point x="1298" y="428"/>
      <point x="1352" y="740" type="curve" smooth="yes"/>
      <point x="1356" y="768" type="line" smooth="yes"/>
      <point x="1425" y="1192"/>
      <point x="1235" y="1516"/>
      <point x="829" y="1516" type="curve" smooth="yes"/>
      <point x="425" y="1516"/>
      <point x="133" y="1199"/>
      <point x="65" y="784" type="curve" smooth="yes"/>
      <point x="61" y="756" type="line" smooth="yes"/>
      <point x="9" y="439"/>
      <point x="181" y="203"/>
      <point x="436" y="-64" type="curve" smooth="yes"/>
      <point x="505" y="-131"/>
      <point x="641" y="-297"/>
      <point x="667" y="-344" type="curve"/>
      <point x="48" y="-344" type="line"/>
      <point x="19" y="-516" type="line"/>
    </contour>
    <contour>
      <point x="1127" y="756" type="line"/>
      <point x="1081" y="494"/>
      <point x="897" y="254"/>
      <point x="589" y="255" type="curve" smooth="yes"/>
      <point x="534" y="254"/>
      <point x="499" y="259"/>
      <point x="460" y="272" type="curve"/>
      <point x="345" y="362"/>
      <point x="249" y="537"/>
      <point x="285" y="756" type="curve" smooth="yes"/>
      <point x="289" y="784" type="line" smooth="yes"/>
      <point x="336" y="1082"/>
      <point x="514" y="1334"/>
      <point x="800" y="1335" type="curve" smooth="yes"/>
      <point x="1087" y="1334"/>
      <point x="1178" y="1086"/>
      <point x="1131" y="784" type="curve" smooth="yes"/>
    </contour>
  </outline>
</glyph>
<glyph name="Schwa" format="2">
  <advance width="1992"/>
  <unicode hex="018F"/>
  <outline>
    <contour>
      <point x="863" y="-28" type="curve" smooth="yes"/>
      <point x="1309" y="-28"/>
      <point x="1741" y="374"/>
      <point x="1840" y="957" type="curve" smooth="yes"/>
      <point x="1855" y="1040" type="line" smooth="yes"/>
      <point x="1952" y="1622"/>
      <point x="1698" y="2032"/>
      <point x="1128" y="2032" type="curve" smooth="yes"/>
      <point x="808" y="2032"/>
      <point x="639" y="1930"/>
      <point x="580" y="1892" type="curve"/>
      <point x="620" y="1733" type="line"/>
      <point x="725" y="1781"/>
      <point x="878" y="1846"/>
      <point x="1108" y="1845" type="curve" smooth="yes"/>
      <point x="1558" y="1846"/>
      <point x="1689" y="1490"/>
      <point x="1616" y="1040" type="curve" smooth="yes"/>
      <point x="1601" y="957" type="line" smooth="yes"/>
      <point x="1527" y="512"/>
      <point x="1260" y="154"/>
      <point x="895" y="155" type="curve" smooth="yes"/>
      <point x="461" y="154"/>
      <point x="370" y="448"/>
      <point x="428" y="821" type="curve" smooth="yes"/>
      <point x="436" y="865" type="line"/>
      <point x="1696" y="865" type="line"/>
      <point x="1724" y="1036" type="line"/>
      <point x="232" y="1036" type="line"/>
      <point x="207" y="884" type="line" smooth="yes"/>
      <point x="116" y="325"/>
      <point x="326" y="-28"/>
    </contour>
  </outline>
</glyph>
<glyph name="Epsilon1" format="2">
  <advance width="1739"/>
  <unicode hex="0190"/>
  <outline>
    <contour>
      <point x="1119" y="960" type="line"/>
      <point x="1144" y="1119" type="line"/>
      <point x="928" y="1119" type="line" smooth="yes"/>
      <point x="604" y="1118"/>
      <point x="515" y="1270"/>
      <point x="548" y="1469" type="curve" smooth="yes"/>
      <point x="583" y="1675"/>
      <point x="747" y="1840"/>
      <point x="1071" y="1840" type="curve" smooth="yes"/>
      <point x="1315" y="1840"/>
      <point x="1464" y="1688"/>
      <point x="1429" y="1485" type="curve"/>
      <point x="1664" y="1485" type="line"/>
      <point x="1723" y="1822"/>
      <point x="1456" y="2032"/>
      <point x="1100" y="2032" type="curve" smooth="yes"/>
      <point x="681" y="2032"/>
      <point x="374" y="1832"/>
      <point x="315" y="1460" type="curve" smooth="yes"/>
      <point x="262" y="1141"/>
      <point x="510" y="960"/>
      <point x="913" y="960" type="curve"/>
    </contour>
    <contour>
      <point x="933" y="1080" type="line"/>
      <point x="484" y="1080"/>
      <point x="186" y="896"/>
      <point x="131" y="560" type="curve" smooth="yes"/>
      <point x="61" y="135"/>
      <point x="355" y="-28"/>
      <point x="760" y="-28" type="curve" smooth="yes"/>
      <point x="1093" y="-28"/>
      <point x="1469" y="148"/>
      <point x="1537" y="556" type="curve"/>
      <point x="1305" y="556" type="line"/>
      <point x="1269" y="341"/>
      <point x="1065" y="160"/>
      <point x="788" y="160" type="curve" smooth="yes"/>
      <point x="485" y="160"/>
      <point x="323" y="290"/>
      <point x="368" y="552" type="curve" smooth="yes"/>
      <point x="408" y="805"/>
      <point x="586" y="926"/>
      <point x="899" y="925" type="curve" smooth="yes"/>
      <point x="1113" y="925" type="line"/>
      <point x="1139" y="1080" type="line"/>
    </contour>
  </outline>
</glyph>
<glyph name="Fhook" format="2">
  <advance width="1628"/>
  <unicode hex="0191"/>
  <outline>
    <contour>
      <point x="121" y="0" type="line"/>
      <point x="93" y="-184" type="line" smooth="yes"/>
      <point x="67" y="-357"/>
      <point x="-35" y="-415"/>
      <point x="-163" y="-415" type="curve" smooth="yes"/>
      <point x="-196" y="-415"/>
      <point x="-216" y="-412"/>
      <point x="-235" y="-405" type="curve"/>
      <point x="-271" y="-560" type="line"/>
      <point x="-236" y="-573"/>
      <point x="-211" y="-575"/>
      <point x="-181" y="-575" type="curve" smooth="yes"/>
      <point x="68" y="-575"/>
      <point x="236" y="-439"/>
      <point x="277" y="-187" type="curve" smooth="yes"/>
      <point x="308" y="0" type="line"/>
    </contour>
    <component base="F" xOffset="-23"/>
  </outline>
</glyph>
<glyph name="florin" format="2">
  <advance width="1010"/>
  <unicode hex="0192"/>
  <outline>
    <contour>
      <point x="960" y="1488" type="line"/>
      <point x="685" y="1488" type="line"/>
      <point x="712" y="1649" type="line" smooth="yes"/>
      <point x="741" y="1842"/>
      <point x="845" y="1938"/>
      <point x="1016" y="1937" type="curve" smooth="yes"/>
      <point x="1058" y="1938"/>
      <point x="1094" y="1929"/>
      <point x="1115" y="1921" type="curve"/>
      <point x="1212" y="2101" type="line"/>
      <point x="1169" y="2123"/>
      <point x="1057" y="2140"/>
      <point x="985" y="2140" type="curve" smooth="yes"/>
      <point x="769" y="2140"/>
      <point x="568" y="1966"/>
      <point x="519" y="1649" type="curve" smooth="yes"/>
      <point x="493" y="1488" type="line"/>
      <point x="240" y="1488" type="line"/>
      <point x="208" y="1317" type="line"/>
      <point x="461" y="1317" type="line"/>
      <point x="221" y="-145" type="line" smooth="yes"/>
      <point x="191" y="-317"/>
      <point x="80" y="-418"/>
      <point x="-23" y="-419" type="curve" smooth="yes"/>
      <point x="-43" y="-418"/>
      <point x="-129" y="-415"/>
      <point x="-156" y="-403" type="curve"/>
      <point x="-205" y="-580" type="line"/>
      <point x="-161" y="-596"/>
      <point x="-122" y="-600"/>
      <point x="-71" y="-600" type="curve" smooth="yes"/>
      <point x="193" y="-600"/>
      <point x="364" y="-439"/>
      <point x="413" y="-145" type="curve" smooth="yes"/>
      <point x="655" y="1317" type="line"/>
      <point x="928" y="1317" type="line"/>
    </contour>
  </outline>
</glyph>
<glyph name="Ghook" format="2">
  <advance width="2118"/>
  <unicode hex="0193"/>
  <outline>
    <contour>
      <point x="1980" y="1416" type="line"/>
      <point x="2009" y="1600" type="line" smooth="yes"/>
      <point x="2036" y="1757"/>
      <point x="2130" y="1810"/>
      <point x="2257" y="1809" type="curve" smooth="yes"/>
      <point x="2278" y="1810"/>
      <point x="2303" y="1806"/>
      <point x="2315" y="1803" type="curve"/>
      <point x="2339" y="1956" type="line"/>
      <point x="2317" y="1966"/>
      <point x="2269" y="1964"/>
      <point x="2228" y="1964" type="curve" smooth="yes"/>
      <point x="1998" y="1964"/>
      <point x="1893" y="1832"/>
      <point x="1836" y="1600" type="curve" smooth="yes"/>
      <point x="1791" y="1416" type="line"/>
    </contour>
    <component base="G"/>
  </outline>
</glyph>
<glyph name="Gamma1" format="2">
  <advance width="1669"/>
  <unicode hex="0194"/>
  <outline>
    <contour>
      <point x="213" y="2060" type="line"/>
      <point x="697" y="153" type="line" smooth="yes"/>
      <point x="762" y="-104"/>
      <point x="803" y="-217"/>
      <point x="792" y="-297" type="curve" smooth="yes"/>
      <point x="783" y="-350"/>
      <point x="717" y="-402"/>
      <point x="643" y="-401" type="curve" smooth="yes"/>
      <point x="567" y="-402"/>
      <point x="518" y="-353"/>
      <point x="525" y="-297" type="curve" smooth="yes"/>
      <point x="537" y="-218"/>
      <point x="628" y="-95"/>
      <point x="776" y="153" type="curve" smooth="yes"/>
      <point x="1885" y="2060" type="line"/>
      <point x="1692" y="2060" type="line"/>
      <point x="643" y="289" type="line" smooth="yes"/>
      <point x="437" y="-64"/>
      <point x="358" y="-155"/>
      <point x="333" y="-292" type="curve" smooth="yes"/>
      <point x="301" y="-478"/>
      <point x="388" y="-600"/>
      <point x="607" y="-600" type="curve" smooth="yes"/>
      <point x="825" y="-600"/>
      <point x="956" y="-478"/>
      <point x="989" y="-292" type="curve" smooth="yes"/>
      <point x="1008" y="-166"/>
      <point x="945" y="-66"/>
      <point x="853" y="289" type="curve" smooth="yes"/>
      <point x="407" y="2060" type="line"/>
    </contour>
  </outline>
</glyph>
<glyph name="hv" format="2">
  <advance width="2629"/>
  <unicode hex="0195"/>
  <note>
Note: Must be split in two, or conversion to quadratic curves will fail.
</note>
  <outline>
    <contour>
      <point x="103" y="0" type="line"/>
      <point x="276" y="0" type="line"/>
      <point x="429" y="936" type="line" smooth="yes"/>
      <point x="481" y="1227"/>
      <point x="696" y="1391"/>
      <point x="948" y="1392" type="curve" smooth="yes"/>
      <point x="1183" y="1391"/>
      <point x="1305" y="1242"/>
      <point x="1261" y="980" type="curve" smooth="yes"/>
      <point x="1227" y="768" type="line"/>
      <point x="1400" y="768" type="line"/>
      <point x="1436" y="976" type="line" smooth="yes"/>
      <point x="1501" y="1383"/>
      <point x="1319" y="1556"/>
      <point x="1009" y="1556" type="curve" smooth="yes"/>
      <point x="763" y="1556"/>
      <point x="613" y="1459"/>
      <point x="517" y="1307" type="curve"/>
      <point x="497" y="1307" type="line"/>
      <point x="620" y="2048" type="line"/>
      <point x="443" y="2048" type="line"/>
    </contour>
    <contour>
      <point x="1571" y="-28" type="curve" smooth="yes"/>
      <point x="1930" y="-28"/>
      <point x="2326" y="348"/>
      <point x="2488" y="1316" type="curve"/>
      <point x="2525" y="1536" type="line"/>
      <point x="2353" y="1536" type="line"/>
      <point x="2315" y="1316" type="line" smooth="yes"/>
      <point x="2167" y="418"/>
      <point x="1866" y="132"/>
      <point x="1615" y="132" type="curve" smooth="yes"/>
      <point x="1490" y="132"/>
      <point x="1303" y="201"/>
      <point x="1372" y="612" type="curve"/>
      <point x="1400" y="768" type="line"/>
      <point x="1227" y="768" type="line"/>
      <point x="1199" y="612" type="line" smooth="yes"/>
      <point x="1124" y="152"/>
      <point x="1323" y="-28"/>
    </contour>
  </outline>
</glyph>
<glyph name="Iota1" format="2">
  <advance width="979"/>
  <unicode hex="0196"/>
  <outline>
    <contour>
      <point x="625" y="2112" type="line"/>
      <point x="399" y="2112" type="line"/>
      <point x="125" y="464" type="line" smooth="yes"/>
      <point x="74" y="150"/>
      <point x="212" y="-28"/>
      <point x="487" y="-28" type="curve" smooth="yes"/>
      <point x="547" y="-28"/>
      <point x="617" y="-16"/>
      <point x="677" y="0" type="curve"/>
      <point x="675" y="169" type="line"/>
      <point x="641" y="162"/>
      <point x="598" y="153"/>
      <point x="556" y="153" type="curve" smooth="yes"/>
      <point x="387" y="153"/>
      <point x="321" y="274"/>
      <point x="352" y="464" type="curve" smooth="yes"/>
    </contour>
  </outline>
</glyph>
<glyph name="Khook" format="2">
  <advance width="1838"/>
  <unicode hex="0198"/>
  <outline>
    <contour>
      <point x="144" y="0" type="line"/>
      <point x="329" y="0" type="line"/>
      <point x="449" y="709" type="line"/>
      <point x="757" y="1004" type="line"/>
      <point x="1336" y="0" type="line"/>
      <point x="1564" y="0" type="line"/>
      <point x="888" y="1132" type="line"/>
      <point x="1616" y="1801" type="line" smooth="yes"/>
      <point x="1740" y="1915"/>
      <point x="1838" y="1913"/>
      <point x="1905" y="1857" type="curve"/>
      <point x="2017" y="2001" type="line"/>
      <point x="1903" y="2105"/>
      <point x="1702" y="2107"/>
      <point x="1533" y="1945" type="curve" smooth="yes"/>
      <point x="517" y="988" type="line"/>
      <point x="495" y="988" type="line"/>
      <point x="669" y="2048" type="line"/>
      <point x="484" y="2048" type="line"/>
    </contour>
  </outline>
</glyph>
<glyph name="khook" format="2">
  <advance width="1458"/>
  <unicode hex="0199"/>
  <outline>
    <contour>
      <point x="1057" y="0" type="line"/>
      <point x="1280" y="0" type="line"/>
      <point x="743" y="880" type="line"/>
      <point x="1463" y="1536" type="line"/>
      <point x="1228" y="1536" type="line"/>
      <point x="428" y="793" type="line"/>
      <point x="408" y="793" type="line"/>
      <point x="545" y="1636" type="line"/>
      <point x="373" y="1636" type="line"/>
      <point x="104" y="0" type="line"/>
      <point x="276" y="0" type="line"/>
      <point x="365" y="540" type="line"/>
      <point x="600" y="752" type="line"/>
    </contour>
    <contour>
      <point x="528" y="1505" type="line"/>
      <point x="556" y="1688" type="line" smooth="yes"/>
      <point x="586" y="1861"/>
      <point x="688" y="1914"/>
      <point x="823" y="1915" type="curve" smooth="yes"/>
      <point x="848" y="1914"/>
      <point x="873" y="1910"/>
      <point x="884" y="1907" type="curve"/>
      <point x="915" y="2065" type="line"/>
      <point x="883" y="2078"/>
      <point x="839" y="2076"/>
      <point x="805" y="2076" type="curve" smooth="yes"/>
      <point x="593" y="2076"/>
      <point x="420" y="1907"/>
      <point x="384" y="1688" type="curve" smooth="yes"/>
      <point x="355" y="1505" type="line"/>
    </contour>
  </outline>
</glyph>
<glyph name="lambdabar" format="2">
  <advance width="1741"/>
  <unicode hex="019B"/>
  <outline>
    <contour>
      <point x="1093" y="1973" type="line"/>
      <point x="416" y="1712" type="line"/>
      <point x="383" y="1493" type="line"/>
      <point x="1056" y="1749" type="line"/>
    </contour>
    <contour>
      <point x="884" y="1140" type="line"/>
      <point x="1009" y="1496" type="line"/>
      <point x="856" y="1512" type="line"/>
      <point x="25" y="0" type="line"/>
      <point x="280" y="0" type="line"/>
    </contour>
    <contour>
      <point x="659" y="2073" type="curve"/>
      <point x="625" y="2074"/>
      <point x="563" y="2066"/>
      <point x="552" y="2061" type="curve"/>
      <point x="519" y="1889" type="line"/>
      <point x="533" y="1893"/>
      <point x="567" y="1893"/>
      <point x="581" y="1893" type="curve" smooth="yes"/>
      <point x="640" y="1893"/>
      <point x="676" y="1868"/>
      <point x="701" y="1763" type="curve" smooth="yes"/>
      <point x="796" y="1353" type="line"/>
      <point x="1051" y="241" type="line" smooth="yes"/>
      <point x="1106" y="-24"/>
      <point x="1183" y="-23"/>
      <point x="1324" y="-24" type="curve" smooth="yes"/>
      <point x="1361" y="-23"/>
      <point x="1407" y="-13"/>
      <point x="1421" y="-4" type="curve"/>
      <point x="1440" y="179" type="line"/>
      <point x="1428" y="178"/>
      <point x="1407" y="178"/>
      <point x="1392" y="179" type="curve" smooth="yes"/>
      <point x="1337" y="178"/>
      <point x="1309" y="185"/>
      <point x="1289" y="277" type="curve" smooth="yes"/>
      <point x="948" y="1849" type="line" smooth="yes"/>
      <point x="918" y="1990"/>
      <point x="861" y="2074"/>
    </contour>
  </outline>
</glyph>
<glyph name="mcapturn" format="2">
  <advance width="2497"/>
  <unicode hex="019C"/>
  <outline>
    <contour>
      <point x="1960" y="272" type="line"/>
      <point x="1917" y="0" type="line"/>
      <point x="2137" y="0" type="line"/>
      <point x="2469" y="2004" type="line"/>
      <point x="2248" y="2004" type="line"/>
    </contour>
    <contour>
      <point x="2041" y="692" type="line"/>
      <point x="1990" y="396"/>
      <point x="1846" y="163"/>
      <point x="1533" y="164" type="curve" smooth="yes"/>
      <point x="1405" y="163"/>
      <point x="1275" y="244"/>
      <point x="1333" y="616" type="curve"/>
      <point x="1565" y="2004" type="line"/>
      <point x="1341" y="2004" type="line"/>
      <point x="1109" y="616" type="line"/>
      <point x="1033" y="126"/>
      <point x="1199" y="-28"/>
      <point x="1485" y="-28" type="curve" smooth="yes"/>
      <point x="1901" y="-28"/>
      <point x="2100" y="280"/>
      <point x="2168" y="696" type="curve"/>
    </contour>
    <contour>
      <point x="1140" y="692" type="line"/>
      <point x="1089" y="397"/>
      <point x="940" y="163"/>
      <point x="627" y="164" type="curve" smooth="yes"/>
      <point x="498" y="163"/>
      <point x="374" y="244"/>
      <point x="432" y="616" type="curve" smooth="yes"/>
      <point x="664" y="2004" type="line"/>
      <point x="435" y="2004" type="line"/>
      <point x="204" y="616" type="line" smooth="yes"/>
      <point x="126" y="130"/>
      <point x="297" y="-28"/>
      <point x="580" y="-28" type="curve" smooth="yes"/>
      <point x="991" y="-28"/>
      <point x="1198" y="282"/>
      <point x="1265" y="696" type="curve"/>
    </contour>
  </outline>
</glyph>
<glyph name="Nhook" format="2">
  <advance width="2163"/>
  <unicode hex="019D"/>
  <outline>
    <contour>
      <point x="169" y="0" type="line"/>
      <point x="137" y="-183" type="line" smooth="yes"/>
      <point x="106" y="-356"/>
      <point x="8" y="-410"/>
      <point x="-129" y="-409" type="curve"/>
      <point x="-155" y="-410"/>
      <point x="-179" y="-404"/>
      <point x="-203" y="-400" type="curve"/>
      <point x="-228" y="-564" type="line"/>
      <point x="-186" y="-572"/>
      <point x="-142" y="-581"/>
      <point x="-77" y="-581" type="curve"/>
      <point x="133" y="-581"/>
      <point x="267" y="-431"/>
      <point x="320" y="-188" type="curve" smooth="yes"/>
      <point x="356" y="0" type="line"/>
    </contour>
    <component base="N" xOffset="27"/>
  </outline>
</glyph>
<glyph name="Ohorn" format="2">
  <advance width="2143"/>
  <unicode hex="01A0"/>
  <outline>
    <contour>
      <point x="2121" y="2212" type="line"/>
      <point x="2083" y="1986"/>
      <point x="1959" y="1853"/>
      <point x="1748" y="1853" type="curve"/>
      <point x="1717" y="1665" type="line"/>
      <point x="2068" y="1665"/>
      <point x="2286" y="1862"/>
      <point x="2345" y="2212" type="curve"/>
    </contour>
    <component base="O"/>
  </outline>
</glyph>
<glyph name="ohorn" format="2">
  <advance width="1657"/>
  <unicode hex="01A1"/>
  <outline>
    <contour>
      <point x="1593" y="1661" type="line"/>
      <point x="1557" y="1475"/>
      <point x="1516" y="1346"/>
      <point x="1320" y="1345" type="curve"/>
      <point x="1293" y="1179" type="line"/>
      <point x="1616" y="1178"/>
      <point x="1751" y="1368"/>
      <point x="1801" y="1661" type="curve"/>
    </contour>
    <component base="o"/>
  </outline>
</glyph>
<glyph name="OI" format="2">
  <advance width="2177"/>
  <unicode hex="01A2"/>
  <outline>
    <contour>
      <point x="1660" y="944" type="line"/>
      <point x="1437" y="944" type="line"/>
      <point x="1329" y="320" type="line"/>
      <point x="1268" y="258"/>
      <point x="1157" y="160"/>
      <point x="856" y="160" type="curve" smooth="yes"/>
      <point x="467" y="160"/>
      <point x="313" y="466"/>
      <point x="389" y="929" type="curve" smooth="yes"/>
      <point x="409" y="1072" type="line"/>
      <point x="180" y="1068" type="line"/>
      <point x="157" y="929" type="line" smooth="yes"/>
      <point x="53" y="303"/>
      <point x="351" y="-28"/>
      <point x="820" y="-28" type="curve" smooth="yes"/>
      <point x="1277" y="-28"/>
      <point x="1465" y="166"/>
      <point x="1545" y="277" type="curve"/>
    </contour>
    <contour>
      <point x="1788" y="1727" type="line"/>
      <point x="1743" y="1838"/>
      <point x="1616" y="2032"/>
      <point x="1160" y="2032" type="curve" smooth="yes"/>
      <point x="687" y="2032"/>
      <point x="282" y="1676"/>
      <point x="183" y="1076" type="curve" smooth="yes"/>
      <point x="161" y="956" type="line"/>
      <point x="393" y="956" type="line"/>
      <point x="413" y="1076" type="line" smooth="yes"/>
      <point x="494" y="1562"/>
      <point x="786" y="1839"/>
      <point x="1123" y="1840" type="curve" smooth="yes"/>
      <point x="1444" y="1839"/>
      <point x="1516" y="1742"/>
      <point x="1557" y="1680" type="curve"/>
      <point x="1451" y="1025" type="line"/>
      <point x="1672" y="1024" type="line"/>
    </contour>
    <contour>
      <point x="2252" y="2004" type="line"/>
      <point x="2073" y="2004" type="line"/>
      <point x="1724" y="1879" type="line"/>
      <point x="1696" y="1720" type="line"/>
      <point x="1992" y="1808" type="line"/>
      <point x="1599" y="-572" type="line"/>
      <point x="1828" y="-572" type="line"/>
    </contour>
  </outline>
</glyph>
<glyph name="oi" format="2">
  <advance width="1670"/>
  <unicode hex="01A3"/>
  <outline>
    <contour>
      <point x="645" y="153" type="curve" smooth="yes"/>
      <point x="390" y="153"/>
      <point x="249" y="346"/>
      <point x="311" y="713" type="curve" smooth="yes"/>
      <point x="320" y="776" type="line" smooth="yes"/>
      <point x="367" y="1042"/>
      <point x="511" y="1334"/>
      <point x="844" y="1335" type="curve"/>
      <point x="921" y="1334"/>
      <point x="988" y="1312"/>
      <point x="1036" y="1276" type="curve"/>
      <point x="936" y="673" type="line"/>
      <point x="1165" y="683" type="line"/>
      <point x="1276" y="1347" type="line"/>
      <point x="1189" y="1472"/>
      <point x="1046" y="1516"/>
      <point x="869" y="1516" type="curve" smooth="yes"/>
      <point x="425" y="1516"/>
      <point x="158" y="1162"/>
      <point x="91" y="776" type="curve" smooth="yes"/>
      <point x="81" y="713" type="line" smooth="yes"/>
      <point x="15" y="326"/>
      <point x="164" y="-28"/>
      <point x="613" y="-28" type="curve"/>
      <point x="763" y="-28"/>
      <point x="953" y="43"/>
      <point x="1080" y="157" type="curve"/>
      <point x="1172" y="717" type="line"/>
      <point x="944" y="717" type="line"/>
      <point x="863" y="212" type="line"/>
      <point x="794" y="178"/>
      <point x="720" y="153"/>
    </contour>
    <contour>
      <point x="1700" y="1488" type="line"/>
      <point x="1508" y="1488" type="line"/>
      <point x="1156" y="1309" type="line"/>
      <point x="1103" y="980" type="line"/>
      <point x="1424" y="1171" type="line"/>
      <point x="1137" y="-572" type="line"/>
      <point x="1360" y="-572" type="line"/>
    </contour>
  </outline>
</glyph>
<glyph name="Phook" format="2">
  <advance width="2116"/>
  <unicode hex="01A4"/>
  <note>
!post:RemoveOverlap
</note>
  <outline>
    <contour>
      <point x="460" y="1579" type="line"/>
      <point x="469" y="1640" type="line" smooth="yes"/>
      <point x="491" y="1777"/>
      <point x="546" y="1880"/>
      <point x="703" y="1880" type="curve" smooth="yes"/>
      <point x="852" y="1880" type="line"/>
      <point x="880" y="2048" type="line"/>
      <point x="728" y="2048" type="line" smooth="yes"/>
      <point x="489" y="2048"/>
      <point x="331" y="1893"/>
      <point x="299" y="1680" type="curve" smooth="yes"/>
      <point x="284" y="1579" type="line"/>
    </contour>
    <component base="P" xOffset="340"/>
  </outline>
</glyph>
<glyph name="phook" format="2">
  <advance width="1694"/>
  <unicode hex="01A5"/>
  <outline>
    <contour>
      <point x="524" y="1536" type="line"/>
      <point x="544" y="1659"/>
      <point x="631" y="1709"/>
      <point x="792" y="1709" type="curve" smooth="yes"/>
      <point x="806" y="1710"/>
      <point x="825" y="1709"/>
      <point x="849" y="1705" type="curve"/>
      <point x="876" y="1877" type="line"/>
      <point x="862" y="1885"/>
      <point x="818" y="1886"/>
      <point x="772" y="1885" type="curve" smooth="yes"/>
      <point x="563" y="1886"/>
      <point x="393" y="1751"/>
      <point x="360" y="1536" type="curve"/>
    </contour>
    <component base="p"/>
  </outline>
</glyph>
<glyph name="YR" format="2">
  <advance width="1994"/>
  <unicode hex="01A6"/>
  <outline>
    <contour>
      <point x="336" y="1864" type="line"/>
      <point x="575" y="1864" type="line"/>
      <point x="623" y="2144" type="line"/>
      <point x="384" y="2144" type="line"/>
    </contour>
    <contour>
      <point x="361" y="2004" type="line"/>
      <point x="29" y="0" type="line"/>
      <point x="267" y="0" type="line"/>
      <point x="569" y="1812" type="line"/>
      <point x="964" y="1812" type="line" smooth="yes"/>
      <point x="1290" y="1812"/>
      <point x="1383" y="1652"/>
      <point x="1345" y="1413" type="curve" smooth="yes"/>
      <point x="1312" y="1199"/>
      <point x="1132" y="1024"/>
      <point x="831" y="1024" type="curve" smooth="yes"/>
      <point x="401" y="1024" type="line"/>
      <point x="372" y="836" type="line"/>
      <point x="961" y="836" type="line"/>
      <point x="1017" y="848" type="line"/>
      <point x="1327" y="922"/>
      <point x="1536" y="1144"/>
      <point x="1577" y="1401" type="curve" smooth="yes"/>
      <point x="1641" y="1792"/>
      <point x="1443" y="2004"/>
      <point x="993" y="2004" type="curve" smooth="yes"/>
    </contour>
    <contour>
      <point x="1379" y="-501" type="line"/>
      <point x="1628" y="-501" type="line"/>
      <point x="1628" y="-485" type="line"/>
      <point x="1103" y="919" type="line"/>
      <point x="856" y="919" type="line"/>
    </contour>
  </outline>
</glyph>
<glyph name="eshlooprev" format="2">
  <advance width="1414"/>
  <unicode hex="01AA"/>
  <outline>
    <contour>
      <point x="925" y="1616" type="line"/>
      <point x="641" y="-97" type="line" smooth="yes"/>
      <point x="591" y="-391"/>
      <point x="670" y="-549"/>
      <point x="905" y="-549" type="curve" smooth="yes"/>
      <point x="945" y="-549"/>
      <point x="1017" y="-540"/>
      <point x="1053" y="-524" type="curve"/>
      <point x="1084" y="-345" type="line"/>
      <point x="1063" y="-354"/>
      <point x="1023" y="-358"/>
      <point x="1004" y="-357" type="curve" smooth="yes"/>
      <point x="884" y="-358"/>
      <point x="835" y="-296"/>
      <point x="869" y="-97" type="curve" smooth="yes"/>
      <point x="1168" y="1700" type="line"/>
    </contour>
    <contour>
      <point x="303" y="1700" type="curve" smooth="yes"/>
      <point x="262" y="1462"/>
      <point x="419" y="1263"/>
      <point x="660" y="1264" type="curve" smooth="yes"/>
      <point x="896" y="1263"/>
      <point x="1126" y="1461"/>
      <point x="1168" y="1700" type="curve" smooth="yes"/>
      <point x="1204" y="1943"/>
      <point x="1042" y="2135"/>
      <point x="805" y="2136" type="curve" smooth="yes"/>
      <point x="565" y="2135"/>
      <point x="339" y="1943"/>
    </contour>
    <contour>
      <point x="697" y="1480" type="curve" smooth="yes"/>
      <point x="578" y="1480"/>
      <point x="497" y="1553"/>
      <point x="521" y="1704" type="curve" smooth="yes"/>
      <point x="546" y="1850"/>
      <point x="651" y="1928"/>
      <point x="772" y="1928" type="curve" smooth="yes"/>
      <point x="890" y="1928"/>
      <point x="970" y="1850"/>
      <point x="945" y="1704" type="curve" smooth="yes"/>
      <point x="921" y="1553"/>
      <point x="815" y="1480"/>
    </contour>
  </outline>
</glyph>
<glyph name="tpalatalhook" format="2">
  <advance width="1017"/>
  <unicode hex="01AB"/>
  <outline>
    <contour>
      <point x="568" y="148" type="line"/>
      <point x="509" y="-188" type="line" smooth="yes"/>
      <point x="481" y="-348"/>
      <point x="392" y="-402"/>
      <point x="257" y="-403" type="curve" smooth="yes"/>
      <point x="235" y="-402"/>
      <point x="208" y="-398"/>
      <point x="192" y="-395" type="curve"/>
      <point x="164" y="-568" type="line"/>
      <point x="188" y="-578"/>
      <point x="239" y="-577"/>
      <point x="281" y="-577" type="curve" smooth="yes"/>
      <point x="486" y="-577"/>
      <point x="681" y="-436"/>
      <point x="724" y="-188" type="curve" smooth="yes"/>
      <point x="789" y="191" type="line"/>
    </contour>
    <component base="t"/>
  </outline>
</glyph>
<glyph name="Thook" format="2">
  <advance width="1900"/>
  <unicode hex="01AC"/>
  <note>
!post:RemoveOverlap
</note>
  <outline>
    <contour>
      <point x="1221" y="2048" type="line"/>
      <point x="717" y="2048" type="line" smooth="yes"/>
      <point x="501" y="2048"/>
      <point x="332" y="1897"/>
      <point x="299" y="1685" type="curve" smooth="yes"/>
      <point x="284" y="1592" type="line"/>
      <point x="463" y="1592" type="line"/>
      <point x="472" y="1653" type="line" smooth="yes"/>
      <point x="490" y="1766"/>
      <point x="556" y="1874"/>
      <point x="689" y="1873" type="curve" smooth="yes"/>
      <point x="1193" y="1873" type="line"/>
    </contour>
    <contour>
      <point x="1964" y="2048" type="line"/>
      <point x="895" y="2048" type="line"/>
      <point x="867" y="1873" type="line"/>
      <point x="1099" y="1873" type="line"/>
      <point x="787" y="0" type="line"/>
      <point x="975" y="0" type="line"/>
      <point x="1287" y="1873" type="line"/>
      <point x="1936" y="1873" type="line"/>
    </contour>
  </outline>
</glyph>
<glyph name="thook" format="2">
  <advance width="907"/>
  <unicode hex="01AD"/>
  <outline>
    <contour>
      <point x="713" y="1565" type="line"/>
      <point x="743" y="1752" type="line" smooth="yes"/>
      <point x="771" y="1914"/>
      <point x="844" y="1975"/>
      <point x="977" y="1976" type="curve" smooth="yes"/>
      <point x="991" y="1975"/>
      <point x="1021" y="1972"/>
      <point x="1045" y="1964" type="curve"/>
      <point x="1068" y="2116" type="line"/>
      <point x="1038" y="2127"/>
      <point x="984" y="2135"/>
      <point x="963" y="2136" type="curve" smooth="yes"/>
      <point x="756" y="2135"/>
      <point x="551" y="1975"/>
      <point x="513" y="1752" type="curve" smooth="yes"/>
      <point x="485" y="1565" type="line"/>
    </contour>
    <contour>
      <point x="976" y="1488" type="line"/>
      <point x="188" y="1488" type="line"/>
      <point x="156" y="1317" type="line"/>
      <point x="944" y="1317" type="line"/>
    </contour>
    <contour>
      <point x="483" y="1569" type="line"/>
      <point x="291" y="408" type="line"/>
      <point x="238" y="94"/>
      <point x="375" y="-28"/>
      <point x="536" y="-28" type="curve" smooth="yes"/>
      <point x="631" y="-28"/>
      <point x="699" y="-10"/>
      <point x="727" y="-4" type="curve"/>
      <point x="757" y="185" type="line"/>
      <point x="736" y="182"/>
      <point x="679" y="167"/>
      <point x="637" y="168" type="curve" smooth="yes"/>
      <point x="566" y="167"/>
      <point x="486" y="214"/>
      <point x="517" y="392" type="curve"/>
      <point x="712" y="1569" type="line"/>
    </contour>
  </outline>
</glyph>
<glyph name="Trthook" format="2">
  <advance width="1783"/>
  <unicode hex="01AE"/>
  <outline>
    <contour>
      <point x="857" y="0" type="line"/>
      <point x="669" y="0" type="line"/>
      <point x="637" y="-193" type="line" smooth="yes"/>
      <point x="601" y="-415"/>
      <point x="756" y="-576"/>
      <point x="967" y="-576" type="curve"/>
      <point x="1081" y="-576" type="line"/>
      <point x="1112" y="-395" type="line"/>
      <point x="1039" y="-395" type="line"/>
      <point x="904" y="-394"/>
      <point x="796" y="-361"/>
      <point x="825" y="-188" type="curve" smooth="yes"/>
    </contour>
    <component base="T"/>
  </outline>
</glyph>
<glyph name="Uhorn" format="2">
  <advance width="2431"/>
  <unicode hex="01AF"/>
  <outline>
    <contour>
      <point x="2300" y="2189" type="line"/>
      <point x="2256" y="1925"/>
      <point x="2141" y="1791"/>
      <point x="1869" y="1792" type="curve"/>
      <point x="1840" y="1605" type="line"/>
      <point x="2249" y="1605"/>
      <point x="2455" y="1802"/>
      <point x="2517" y="2189" type="curve"/>
    </contour>
    <component base="U"/>
  </outline>
</glyph>
<glyph name="uhorn" format="2">
  <advance width="1671"/>
  <unicode hex="01B0"/>
  <outline>
    <contour>
      <point x="1665" y="1599" type="line"/>
      <point x="1634" y="1397"/>
      <point x="1626" y="1316"/>
      <point x="1388" y="1316" type="curve"/>
      <point x="1361" y="1161" type="line"/>
      <point x="1701" y="1161"/>
      <point x="1814" y="1309"/>
      <point x="1861" y="1599" type="curve"/>
    </contour>
    <component base="u" xOffset="-3"/>
  </outline>
</glyph>
<glyph name="Upsilon2" format="2">
  <advance width="2128"/>
  <unicode hex="01B1"/>
  <outline>
    <contour>
      <point x="216" y="979" type="curve" smooth="yes"/>
      <point x="118" y="388"/>
      <point x="417" y="-28"/>
      <point x="932" y="-28" type="curve" smooth="yes"/>
      <point x="1447" y="-28"/>
      <point x="1883" y="388"/>
      <point x="1980" y="979" type="curve"/>
      <point x="2046" y="1382"/>
      <point x="1932" y="1683"/>
      <point x="1683" y="1857" type="curve"/>
      <point x="1688" y="1873" type="line"/>
      <point x="2131" y="1873" type="line"/>
      <point x="2159" y="2048" type="line"/>
      <point x="1459" y="2048" type="line"/>
      <point x="1420" y="1824" type="line"/>
      <point x="1682" y="1704"/>
      <point x="1873" y="1380"/>
      <point x="1804" y="968" type="curve" smooth="yes"/>
      <point x="1732" y="514"/>
      <point x="1378" y="153"/>
      <point x="964" y="153" type="curve" smooth="yes"/>
      <point x="550" y="153"/>
      <point x="316" y="514"/>
      <point x="388" y="968" type="curve"/>
      <point x="457" y="1380"/>
      <point x="758" y="1704"/>
      <point x="1055" y="1824" type="curve"/>
      <point x="1093" y="2048" type="line"/>
      <point x="393" y="2048" type="line"/>
      <point x="365" y="1873" type="line"/>
      <point x="809" y="1873" type="line"/>
      <point x="805" y="1857" type="line"/>
      <point x="502" y="1678"/>
      <point x="282" y="1382"/>
    </contour>
  </outline>
</glyph>
<glyph name="Vcursive" format="2">
  <advance width="1741"/>
  <unicode hex="01B2"/>
  <outline>
    <contour>
      <point x="737" y="-28" type="curve" smooth="yes"/>
      <point x="1101" y="-28"/>
      <point x="1483" y="186"/>
      <point x="1559" y="635" type="curve" smooth="yes"/>
      <point x="1713" y="1581" type="line" smooth="yes"/>
      <point x="1762" y="1870"/>
      <point x="1613" y="2033"/>
      <point x="1373" y="2033" type="curve" smooth="yes"/>
      <point x="1341" y="2033"/>
      <point x="1265" y="2019"/>
      <point x="1231" y="2009" type="curve"/>
      <point x="1201" y="1831" type="line"/>
      <point x="1223" y="1838"/>
      <point x="1262" y="1838"/>
      <point x="1283" y="1837" type="curve" smooth="yes"/>
      <point x="1433" y="1838"/>
      <point x="1510" y="1769"/>
      <point x="1477" y="1581" type="curve" smooth="yes"/>
      <point x="1321" y="635" type="line" smooth="yes"/>
      <point x="1265" y="304"/>
      <point x="1044" y="160"/>
      <point x="767" y="160" type="curve" smooth="yes"/>
      <point x="489" y="160"/>
      <point x="319" y="304"/>
      <point x="376" y="635" type="curve" smooth="yes"/>
      <point x="601" y="2004" type="line"/>
      <point x="368" y="2004" type="line"/>
      <point x="141" y="635" type="line" smooth="yes"/>
      <point x="66" y="187"/>
      <point x="343" y="-28"/>
    </contour>
  </outline>
</glyph>
<glyph name="Yhook" format="2">
  <advance width="1910"/>
  <unicode hex="01B3"/>
  <note>
!post:RemoveOverlap
</note>
  <outline>
    <contour>
      <point x="1665" y="1725" type="line"/>
      <point x="1719" y="1795" type="line" smooth="yes"/>
      <point x="1802" y="1909"/>
      <point x="1903" y="1915"/>
      <point x="1977" y="1876" type="curve"/>
      <point x="2057" y="2035" type="line"/>
      <point x="1896" y="2125"/>
      <point x="1711" y="2058"/>
      <point x="1561" y="1864" type="curve" smooth="yes"/>
      <point x="1515" y="1805" type="line"/>
    </contour>
    <contour>
      <point x="908" y="1020" type="line"/>
      <point x="956" y="1020" type="line"/>
      <point x="964" y="1068" type="line"/>
      <point x="916" y="1068" type="line"/>
    </contour>
    <contour>
      <point x="511" y="2048" type="line"/>
      <point x="289" y="2048" type="line"/>
      <point x="813" y="861" type="line"/>
      <point x="671" y="0" type="line"/>
      <point x="857" y="0" type="line"/>
      <point x="1000" y="861" type="line"/>
      <point x="1665" y="1725" type="line"/>
      <point x="1515" y="1805" type="line"/>
      <point x="940" y="1048" type="line"/>
    </contour>
  </outline>
</glyph>
<glyph name="yhook" format="2">
  <advance width="1717"/>
  <unicode hex="01B4"/>
  <outline>
    <contour>
      <point x="1396" y="1313" type="line"/>
      <point x="1428" y="1368" type="line" smooth="yes"/>
      <point x="1562" y="1628"/>
      <point x="1641" y="1744"/>
      <point x="1773" y="1736" type="curve" smooth="yes"/>
      <point x="1831" y="1732"/>
      <point x="1897" y="1703"/>
      <point x="1945" y="1669" type="curve"/>
      <point x="2040" y="1779" type="line"/>
      <point x="1989" y="1846"/>
      <point x="1911" y="1894"/>
      <point x="1817" y="1908" type="curve" smooth="yes"/>
      <point x="1558" y="1924"/>
      <point x="1393" y="1670"/>
      <point x="1265" y="1425" type="curve" smooth="yes"/>
      <point x="1248" y="1389" type="line"/>
    </contour>
    <contour>
      <point x="436" y="-168" type="line" smooth="yes"/>
      <point x="328" y="-370"/>
      <point x="203" y="-408"/>
      <point x="36" y="-408" type="curve"/>
      <point x="-46" y="-408"/>
      <point x="-87" y="-403"/>
      <point x="-95" y="-400" type="curve"/>
      <point x="-125" y="-583" type="line"/>
      <point x="-108" y="-586"/>
      <point x="21" y="-600"/>
      <point x="48" y="-600" type="curve" smooth="yes"/>
      <point x="241" y="-600"/>
      <point x="449" y="-490"/>
      <point x="587" y="-231" type="curve" smooth="yes"/>
      <point x="1396" y="1313" type="line"/>
      <point x="1248" y="1389" type="line"/>
      <point x="657" y="245" type="line"/>
      <point x="427" y="1536" type="line"/>
      <point x="233" y="1536" type="line"/>
      <point x="513" y="-13" type="line"/>
    </contour>
  </outline>
</glyph>
<glyph name="Ezh" format="2">
  <advance width="1931"/>
  <unicode hex="01B7"/>
  <outline>
    <contour>
      <point x="39" y="105" type="line"/>
      <point x="-12" y="-292"/>
      <point x="288" y="-579"/>
      <point x="723" y="-579" type="curve" smooth="yes"/>
      <point x="1217" y="-579"/>
      <point x="1589" y="-211"/>
      <point x="1665" y="249" type="curve" smooth="yes"/>
      <point x="1744" y="727"/>
      <point x="1463" y="1072"/>
      <point x="979" y="1093" type="curve"/>
      <point x="981" y="1109" type="line"/>
      <point x="1885" y="1911" type="line"/>
      <point x="1907" y="2048" type="line"/>
      <point x="473" y="2048" type="line"/>
      <point x="445" y="1877" type="line"/>
      <point x="1628" y="1877" type="line"/>
      <point x="1628" y="1879" type="line"/>
      <point x="747" y="1101" type="line"/>
      <point x="719" y="941" type="line"/>
      <point x="852" y="941" type="line" smooth="yes"/>
      <point x="1287" y="935"/>
      <point x="1548" y="653"/>
      <point x="1481" y="249" type="curve" smooth="yes"/>
      <point x="1421" y="-128"/>
      <point x="1125" y="-408"/>
      <point x="756" y="-408" type="curve" smooth="yes"/>
      <point x="423" y="-408"/>
      <point x="191" y="-191"/>
      <point x="228" y="105" type="curve"/>
    </contour>
  </outline>
</glyph>
<glyph name="ezhtail" format="2">
  <advance width="1486"/>
  <unicode hex="01BA"/>
  <outline>
    <contour>
      <point x="313" y="1488" type="line"/>
      <point x="284" y="1307" type="line"/>
      <point x="1164" y="1307" type="line"/>
      <point x="484" y="840" type="line"/>
      <point x="460" y="692" type="line"/>
      <point x="651" y="692" type="line"/>
      <point x="1469" y="1343" type="line"/>
      <point x="1493" y="1488" type="line"/>
    </contour>
    <contour>
      <point x="192" y="-181" type="curve" smooth="yes"/>
      <point x="210" y="-63"/>
      <point x="287" y="20"/>
      <point x="563" y="77" type="curve" smooth="yes"/>
      <point x="927" y="155"/>
      <point x="1140" y="254"/>
      <point x="1184" y="513" type="curve" smooth="yes"/>
      <point x="1223" y="745"/>
      <point x="1026" y="888"/>
      <point x="701" y="888" type="curve" smooth="yes"/>
      <point x="644" y="888" type="line"/>
      <point x="612" y="692" type="line"/>
      <point x="669" y="692" type="line" smooth="yes"/>
      <point x="898" y="691"/>
      <point x="970" y="625"/>
      <point x="949" y="517" type="curve" smooth="yes"/>
      <point x="927" y="384"/>
      <point x="855" y="332"/>
      <point x="595" y="277" type="curve" smooth="yes"/>
      <point x="219" y="198"/>
      <point x="8" y="72"/>
      <point x="-32" y="-161" type="curve" smooth="yes"/>
      <point x="-75" y="-425"/>
      <point x="113" y="-600"/>
      <point x="451" y="-600" type="curve" smooth="yes"/>
      <point x="835" y="-600"/>
      <point x="1084" y="-362"/>
      <point x="1129" y="-112" type="curve"/>
      <point x="900" y="-112" type="line"/>
      <point x="847" y="-335"/>
      <point x="644" y="-405"/>
      <point x="485" y="-405" type="curve" smooth="yes"/>
      <point x="264" y="-405"/>
      <point x="171" y="-310"/>
    </contour>
  </outline>
</glyph>
<glyph name="tonefive" format="2">
  <advance width="1412"/>
  <unicode hex="01BD"/>
  <outline>
    <contour>
      <point x="431" y="653" type="line"/>
      <point x="501" y="742"/>
      <point x="599" y="822"/>
      <point x="767" y="823" type="curve" smooth="yes"/>
      <point x="986" y="822"/>
      <point x="1072" y="688"/>
      <point x="1041" y="492" type="curve" smooth="yes"/>
      <point x="1011" y="302"/>
      <point x="881" y="162"/>
      <point x="644" y="161" type="curve" smooth="yes"/>
      <point x="454" y="162"/>
      <point x="335" y="274"/>
      <point x="369" y="437" type="curve"/>
      <point x="152" y="412" type="line"/>
      <point x="100" y="121"/>
      <point x="387" y="-24"/>
      <point x="613" y="-24" type="curve" smooth="yes"/>
      <point x="1017" y="-24"/>
      <point x="1218" y="208"/>
      <point x="1265" y="501" type="curve" smooth="yes"/>
      <point x="1319" y="838"/>
      <point x="1157" y="1033"/>
      <point x="829" y="1024" type="curve" smooth="yes"/>
      <point x="735" y="1018"/>
      <point x="599" y="976"/>
      <point x="536" y="933" type="curve"/>
      <point x="632" y="1284" type="line"/>
      <point x="1328" y="1284" type="line"/>
      <point x="1363" y="1488" type="line"/>
      <point x="472" y="1488" type="line"/>
      <point x="247" y="673" type="line"/>
    </contour>
    <contour>
      <point x="632" y="1488" type="line"/>
      <point x="224" y="1488" type="line"/>
      <point x="188" y="1284" type="line"/>
      <point x="597" y="1284" type="line"/>
    </contour>
  </outline>
</glyph>
<glyph name="glottalstopbarinv" format="2">
  <advance width="1486"/>
  <unicode hex="01BE"/>
  <outline>
    <contour>
      <point x="1032" y="389" type="curve" smooth="yes"/>
      <point x="1009" y="266"/>
      <point x="877" y="167"/>
      <point x="664" y="168" type="curve" smooth="yes"/>
      <point x="499" y="167"/>
      <point x="323" y="241"/>
      <point x="355" y="465" type="curve"/>
      <point x="120" y="465" type="line"/>
      <point x="73" y="209"/>
      <point x="245" y="-28"/>
      <point x="635" y="-28" type="curve" smooth="yes"/>
      <point x="967" y="-28"/>
      <point x="1224" y="153"/>
      <point x="1268" y="417" type="curve" smooth="yes"/>
      <point x="1333" y="816"/>
      <point x="821" y="746"/>
      <point x="876" y="1071" type="curve" smooth="yes"/>
      <point x="1005" y="1840" type="line"/>
      <point x="777" y="1840" type="line"/>
      <point x="648" y="1059" type="line" smooth="yes"/>
      <point x="576" y="634"/>
      <point x="1077" y="677"/>
    </contour>
    <contour>
      <point x="1221" y="1488" type="line"/>
      <point x="433" y="1488" type="line"/>
      <point x="403" y="1317" type="line"/>
      <point x="1191" y="1317" type="line"/>
    </contour>
  </outline>
</glyph>
<glyph name="wynn" format="2">
  <advance width="1735"/>
  <unicode hex="01BF"/>
  <outline>
    <contour>
      <point x="551" y="1204" type="line"/>
      <point x="576" y="1488" type="line"/>
      <point x="372" y="1488" type="line"/>
      <point x="32" y="-572" type="line"/>
      <point x="259" y="-572" type="line"/>
    </contour>
    <contour>
      <point x="424" y="931" type="line"/>
      <point x="514" y="1123"/>
      <point x="676" y="1324"/>
      <point x="924" y="1324" type="curve" smooth="yes"/>
      <point x="1215" y="1324"/>
      <point x="1303" y="1062"/>
      <point x="1257" y="753" type="curve" smooth="yes"/>
      <point x="1248" y="728" type="line" smooth="yes"/>
      <point x="1175" y="270"/>
      <point x="785" y="76"/>
      <point x="284" y="-56" type="curve"/>
      <point x="241" y="-240" type="line"/>
      <point x="931" y="-45"/>
      <point x="1385" y="158"/>
      <point x="1476" y="728" type="curve" smooth="yes"/>
      <point x="1484" y="753" type="line" smooth="yes"/>
      <point x="1555" y="1206"/>
      <point x="1407" y="1516"/>
      <point x="1029" y="1516" type="curve" smooth="yes"/>
      <point x="649" y="1516"/>
      <point x="404" y="1258"/>
      <point x="287" y="797" type="curve"/>
    </contour>
  </outline>
</glyph>
<glyph name="pipe" format="2">
  <advance width="716"/>
  <unicode hex="01C0"/>
  <outline>
    <contour>
      <point x="677" y="2060" type="line"/>
      <point x="468" y="2060" type="line"/>
      <point x="125" y="0" type="line"/>
      <point x="336" y="0" type="line"/>
    </contour>
  </outline>
</glyph>
<glyph name="Gbar" format="2">
  <advance width="2067"/>
  <unicode hex="01E4"/>
  <outline>
    <contour>
      <point x="2001" y="629" type="line"/>
      <point x="1095" y="629" type="line"/>
      <point x="1069" y="475" type="line"/>
      <point x="1976" y="475" type="line"/>
    </contour>
    <component base="G"/>
  </outline>
</glyph>
<glyph name="uni01F6" format="2">
  <advance width="3131"/>
  <unicode hex="01F6"/>
  <outline>
    <contour>
      <point x="2133" y="-28" type="curve" smooth="yes"/>
      <point x="2498" y="-28"/>
      <point x="2798" y="184"/>
      <point x="2873" y="635" type="curve" smooth="yes"/>
      <point x="3027" y="1549" type="line"/>
      <point x="2840" y="1549" type="line"/>
      <point x="2688" y="635" type="line" smooth="yes"/>
      <point x="2631" y="301"/>
      <point x="2452" y="154"/>
      <point x="2161" y="155" type="curve" smooth="yes"/>
      <point x="1871" y="154"/>
      <point x="1729" y="301"/>
      <point x="1785" y="635" type="curve" smooth="yes"/>
      <point x="2020" y="2048" type="line"/>
      <point x="1833" y="2048" type="line"/>
      <point x="1677" y="1113" type="line"/>
      <point x="513" y="1113" type="line"/>
      <point x="669" y="2048" type="line"/>
      <point x="484" y="2048" type="line"/>
      <point x="144" y="0" type="line"/>
      <point x="329" y="0" type="line"/>
      <point x="485" y="940" type="line"/>
      <point x="1649" y="940" type="line"/>
      <point x="1599" y="635" type="line" smooth="yes"/>
      <point x="1527" y="194"/>
      <point x="1754" y="-28"/>
    </contour>
  </outline>
</glyph>
<glyph name="uni01F7" format="2">
  <advance width="1666"/>
  <unicode hex="01F7"/>
  <outline>
    <contour>
      <point x="573" y="2004" type="line"/>
      <point x="335" y="2004" type="line"/>
      <point x="-89" y="-572" type="line"/>
      <point x="149" y="-572" type="line"/>
    </contour>
    <contour>
      <point x="64" y="-245" type="line"/>
      <point x="775" y="-200"/>
      <point x="1476" y="410"/>
      <point x="1599" y="1140" type="curve" smooth="yes"/>
      <point x="1611" y="1212" type="line" smooth="yes"/>
      <point x="1701" y="1769"/>
      <point x="1440" y="2032"/>
      <point x="948" y="2032" type="curve" smooth="yes"/>
      <point x="760" y="2032"/>
      <point x="608" y="1986"/>
      <point x="475" y="1901" type="curve"/>
      <point x="384" y="1367" type="line"/>
      <point x="469" y="1658"/>
      <point x="590" y="1839"/>
      <point x="919" y="1840" type="curve" smooth="yes"/>
      <point x="1276" y="1839"/>
      <point x="1455" y="1678"/>
      <point x="1380" y="1216" type="curve" smooth="yes"/>
      <point x="1368" y="1140" type="line" smooth="yes"/>
      <point x="1284" y="658"/>
      <point x="856" y="33"/>
      <point x="93" y="-59" type="curve"/>
    </contour>
  </outline>
</glyph>
<glyph name="uni021C" format="2">
  <advance width="1739"/>
  <unicode hex="021C"/>
  <outline>
    <contour>
      <point x="247" y="453" type="line"/>
      <point x="949" y="618"/>
      <point x="1570" y="1002"/>
      <point x="1645" y="1460" type="curve" smooth="yes"/>
      <point x="1706" y="1832"/>
      <point x="1471" y="2033"/>
      <point x="1044" y="2033" type="curve" smooth="yes"/>
      <point x="683" y="2033"/>
      <point x="353" y="1814"/>
      <point x="299" y="1481" type="curve"/>
      <point x="532" y="1481" type="line"/>
      <point x="566" y="1690"/>
      <point x="786" y="1840"/>
      <point x="1016" y="1840" type="curve" smooth="yes"/>
      <point x="1335" y="1840"/>
      <point x="1443" y="1670"/>
      <point x="1415" y="1484" type="curve" smooth="yes"/>
      <point x="1336" y="1023"/>
      <point x="906" y="803"/>
      <point x="272" y="621" type="curve"/>
    </contour>
    <contour>
      <point x="1144" y="912" type="line"/>
      <point x="1283" y="835"/>
      <point x="1312" y="693"/>
      <point x="1271" y="441" type="curve" smooth="yes"/>
      <point x="1184" y="-84"/>
      <point x="764" y="-280"/>
      <point x="103" y="-412" type="curve"/>
      <point x="69" y="-600" type="line"/>
      <point x="830" y="-434"/>
      <point x="1399" y="-225"/>
      <point x="1509" y="440" type="curve" smooth="yes"/>
      <point x="1561" y="748"/>
      <point x="1489" y="928"/>
      <point x="1325" y="1036" type="curve"/>
    </contour>
  </outline>
</glyph>
<glyph name="uni021D" format="2">
  <advance width="1486"/>
  <unicode hex="021D"/>
  <outline>
    <contour>
      <point x="212" y="313" type="line"/>
      <point x="669" y="378"/>
      <point x="1259" y="676"/>
      <point x="1325" y="1080" type="curve" smooth="yes"/>
      <point x="1374" y="1364"/>
      <point x="1199" y="1516"/>
      <point x="869" y="1516" type="curve" smooth="yes"/>
      <point x="567" y="1516"/>
      <point x="285" y="1344"/>
      <point x="241" y="1077" type="curve"/>
      <point x="464" y="1077" type="line"/>
      <point x="486" y="1210"/>
      <point x="651" y="1327"/>
      <point x="832" y="1328" type="curve" smooth="yes"/>
      <point x="1052" y="1327"/>
      <point x="1117" y="1210"/>
      <point x="1101" y="1100" type="curve" smooth="yes"/>
      <point x="1039" y="713"/>
      <point x="559" y="546"/>
      <point x="243" y="484" type="curve"/>
    </contour>
    <contour>
      <point x="884" y="649" type="line"/>
      <point x="995" y="583"/>
      <point x="1018" y="426"/>
      <point x="989" y="252" type="curve" smooth="yes"/>
      <point x="919" y="-182"/>
      <point x="553" y="-335"/>
      <point x="89" y="-416" type="curve"/>
      <point x="60" y="-600" type="line"/>
      <point x="741" y="-527"/>
      <point x="1126" y="-282"/>
      <point x="1217" y="261" type="curve" smooth="yes"/>
      <point x="1250" y="465"/>
      <point x="1213" y="671"/>
      <point x="1080" y="779" type="curve"/>
    </contour>
  </outline>
</glyph>
<glyph name="uni0220" format="2">
  <advance width="1738"/>
  <unicode hex="0220"/>
  <outline>
    <contour>
      <point x="1367" y="-572" type="line"/>
      <point x="1680" y="1337" type="line" smooth="yes"/>
      <point x="1759" y="1808"/>
      <point x="1434" y="2032"/>
      <point x="1056" y="2032" type="curve" smooth="yes"/>
      <point x="871" y="2032"/>
      <point x="693" y="1990"/>
      <point x="568" y="1929" type="curve"/>
      <point x="541" y="1764" type="line"/>
      <point x="659" y="1804"/>
      <point x="813" y="1840"/>
      <point x="1043" y="1840" type="curve" smooth="yes"/>
      <point x="1330" y="1840"/>
      <point x="1512" y="1694"/>
      <point x="1453" y="1337" type="curve" smooth="yes"/>
      <point x="1140" y="-572" type="line"/>
    </contour>
    <contour>
      <point x="581" y="2004" type="line"/>
      <point x="360" y="2004" type="line"/>
      <point x="28" y="0" type="line"/>
      <point x="249" y="0" type="line"/>
    </contour>
  </outline>
</glyph>
<glyph name="uni0221" format="2">
  <advance width="2026"/>
  <unicode hex="0221"/>
  <outline>
    <contour>
      <point x="1217" y="348" type="line"/>
      <point x="1133" y="-169" type="line"/>
      <point x="1106" y="-347"/>
      <point x="1176" y="-576"/>
      <point x="1449" y="-576" type="curve" smooth="yes"/>
      <point x="1666" y="-576"/>
      <point x="1842" y="-425"/>
      <point x="1880" y="-209" type="curve" smooth="yes"/>
      <point x="1917" y="7"/>
      <point x="1781" y="146"/>
      <point x="1599" y="147" type="curve" smooth="yes"/>
      <point x="1465" y="146"/>
      <point x="1284" y="76"/>
      <point x="1140" y="-65" type="curve"/>
      <point x="801" y="-388" type="line"/>
      <point x="924" y="-511" type="line"/>
      <point x="1351" y="-115" type="line" smooth="yes"/>
      <point x="1399" y="-63"/>
      <point x="1472" y="-26"/>
      <point x="1569" y="-45" type="curve" smooth="yes"/>
      <point x="1645" y="-64"/>
      <point x="1689" y="-123"/>
      <point x="1676" y="-213" type="curve" smooth="yes"/>
      <point x="1660" y="-314"/>
      <point x="1578" y="-389"/>
      <point x="1475" y="-389" type="curve" smooth="yes"/>
      <point x="1367" y="-389"/>
      <point x="1285" y="-309"/>
      <point x="1312" y="-164" type="curve"/>
      <point x="1391" y="348" type="line"/>
    </contour>
    <component base="d" xOffset="-1"/>
  </outline>
</glyph>
<glyph name="uni0222" format="2">
  <advance width="1738"/>
  <unicode hex="0222"/>
  <outline>
    <contour>
      <point x="920" y="1192" type="line"/>
      <point x="499" y="1192"/>
      <point x="138" y="982"/>
      <point x="71" y="583" type="curve" smooth="yes"/>
      <point x="-1" y="166"/>
      <point x="300" y="-28"/>
      <point x="720" y="-28" type="curve" smooth="yes"/>
      <point x="753" y="-28" type="line" smooth="yes"/>
      <point x="1174" y="-28"/>
      <point x="1535" y="166"/>
      <point x="1608" y="587" type="curve" smooth="yes"/>
      <point x="1675" y="982"/>
      <point x="1375" y="1192"/>
      <point x="953" y="1192" type="curve" smooth="yes"/>
    </contour>
    <contour>
      <point x="923" y="1008" type="line"/>
      <point x="1234" y="1007"/>
      <point x="1424" y="878"/>
      <point x="1376" y="587" type="curve" smooth="yes"/>
      <point x="1328" y="286"/>
      <point x="1099" y="171"/>
      <point x="788" y="172" type="curve" smooth="yes"/>
      <point x="755" y="172" type="line" smooth="yes"/>
      <point x="443" y="171"/>
      <point x="254" y="286"/>
      <point x="301" y="583" type="curve" smooth="yes"/>
      <point x="350" y="877"/>
      <point x="577" y="1007"/>
      <point x="889" y="1008" type="curve" smooth="yes"/>
    </contour>
    <contour>
      <point x="909" y="1204" type="line"/>
      <point x="653" y="1204"/>
      <point x="416" y="1265"/>
      <point x="461" y="1535" type="curve" smooth="yes"/>
      <point x="492" y="1728"/>
      <point x="605" y="1806"/>
      <point x="803" y="1856" type="curve"/>
      <point x="832" y="2032" type="line"/>
      <point x="550" y="2011"/>
      <point x="280" y="1862"/>
      <point x="229" y="1535" type="curve" smooth="yes"/>
      <point x="165" y="1146"/>
      <point x="497" y="1018"/>
      <point x="879" y="1019" type="curve" smooth="yes"/>
      <point x="940" y="1019" type="line" smooth="yes"/>
      <point x="1323" y="1018"/>
      <point x="1700" y="1146"/>
      <point x="1765" y="1535" type="curve" smooth="yes"/>
      <point x="1815" y="1862"/>
      <point x="1608" y="2011"/>
      <point x="1321" y="2032" type="curve"/>
      <point x="1292" y="1856" type="line"/>
      <point x="1481" y="1806"/>
      <point x="1565" y="1728"/>
      <point x="1533" y="1535" type="curve" smooth="yes"/>
      <point x="1489" y="1267"/>
      <point x="1237" y="1204"/>
      <point x="972" y="1204" type="curve" smooth="yes"/>
    </contour>
  </outline>
</glyph>
<glyph name="uni0223" format="2">
  <advance width="1739"/>
  <unicode hex="0223"/>
  <outline>
    <contour>
      <point x="923" y="1195" type="line"/>
      <point x="502" y="1194"/>
      <point x="140" y="985"/>
      <point x="73" y="585" type="curve" smooth="yes"/>
      <point x="2" y="168"/>
      <point x="300" y="-28"/>
      <point x="721" y="-28" type="curve" smooth="yes"/>
      <point x="753" y="-28" type="line" smooth="yes"/>
      <point x="1175" y="-28"/>
      <point x="1534" y="168"/>
      <point x="1607" y="589" type="curve" smooth="yes"/>
      <point x="1673" y="985"/>
      <point x="1378" y="1194"/>
      <point x="956" y="1195" type="curve" smooth="yes"/>
    </contour>
    <contour>
      <point x="929" y="1017" type="line"/>
      <point x="1233" y="1017"/>
      <point x="1427" y="882"/>
      <point x="1380" y="589" type="curve" smooth="yes"/>
      <point x="1331" y="288"/>
      <point x="1087" y="153"/>
      <point x="784" y="153" type="curve" smooth="yes"/>
      <point x="751" y="153" type="line" smooth="yes"/>
      <point x="440" y="153"/>
      <point x="253" y="288"/>
      <point x="301" y="585" type="curve" smooth="yes"/>
      <point x="349" y="882"/>
      <point x="586" y="1017"/>
      <point x="896" y="1017" type="curve" smooth="yes"/>
    </contour>
    <contour>
      <point x="973" y="1199" type="curve" smooth="yes"/>
      <point x="912" y="1199" type="line" smooth="yes"/>
      <point x="653" y="1198"/>
      <point x="415" y="1270"/>
      <point x="463" y="1575" type="curve" smooth="yes"/>
      <point x="502" y="1792"/>
      <point x="618" y="1896"/>
      <point x="824" y="1976" type="curve"/>
      <point x="853" y="2140" type="line"/>
      <point x="565" y="2125"/>
      <point x="294" y="1923"/>
      <point x="236" y="1572" type="curve" smooth="yes"/>
      <point x="168" y="1166"/>
      <point x="498" y="1025"/>
      <point x="880" y="1025" type="curve" smooth="yes"/>
      <point x="943" y="1025" type="line" smooth="yes"/>
      <point x="1324" y="1025"/>
      <point x="1701" y="1166"/>
      <point x="1768" y="1572" type="curve" smooth="yes"/>
      <point x="1827" y="1922"/>
      <point x="1622" y="2125"/>
      <point x="1343" y="2140" type="curve"/>
      <point x="1313" y="1976" type="line"/>
      <point x="1498" y="1896"/>
      <point x="1579" y="1792"/>
      <point x="1540" y="1575" type="curve" smooth="yes"/>
      <point x="1492" y="1270"/>
      <point x="1236" y="1198"/>
    </contour>
  </outline>
</glyph>
<glyph name="uni0224" format="2">
  <advance width="1721"/>
  <unicode hex="0224"/>
  <note>
!post:RemoveOverlap
</note>
  <outline>
    <contour>
      <point x="896" y="175" type="line"/>
      <point x="868" y="0" type="line"/>
      <point x="1075" y="0" type="line" smooth="yes"/>
      <point x="1205" y="0"/>
      <point x="1236" y="-110"/>
      <point x="1217" y="-221" type="curve"/>
      <point x="1207" y="-288" type="line"/>
      <point x="1387" y="-288" type="line"/>
      <point x="1403" y="-189" type="line"/>
      <point x="1438" y="22"/>
      <point x="1318" y="174"/>
      <point x="1103" y="175" type="curve" smooth="yes"/>
    </contour>
    <contour>
      <point x="896" y="175" type="line"/>
      <point x="305" y="175" type="line"/>
      <point x="1721" y="1893" type="line"/>
      <point x="1745" y="2048" type="line"/>
      <point x="385" y="2048" type="line"/>
      <point x="357" y="1873" type="line"/>
      <point x="1500" y="1873" type="line"/>
      <point x="88" y="155" type="line"/>
      <point x="60" y="0" type="line"/>
      <point x="868" y="0" type="line"/>
    </contour>
  </outline>
</glyph>
<glyph name="zhook" format="2">
  <advance width="1494"/>
  <unicode hex="0225"/>
  <outline>
    <contour>
      <point x="1029" y="-303" type="line"/>
      <point x="1195" y="-303" type="line"/>
      <point x="1216" y="-181" type="line"/>
      <point x="1246" y="14"/>
      <point x="1142" y="181"/>
      <point x="916" y="181" type="curve" smooth="yes"/>
      <point x="317" y="181" type="line"/>
      <point x="1417" y="1368" type="line"/>
      <point x="1445" y="1536" type="line"/>
      <point x="281" y="1536" type="line"/>
      <point x="252" y="1356" type="line"/>
      <point x="1187" y="1356" type="line"/>
      <point x="81" y="184" type="line"/>
      <point x="53" y="0" type="line"/>
      <point x="887" y="0" type="line" smooth="yes"/>
      <point x="1040" y="0"/>
      <point x="1059" y="-106"/>
      <point x="1040" y="-236" type="curve" smooth="yes"/>
    </contour>
  </outline>
</glyph>
<glyph name="lcurl" format="2">
  <advance width="890"/>
  <unicode hex="0234"/>
  <outline>
    <contour>
      <point x="164" y="319" type="line"/>
      <point x="80" y="-185" type="line"/>
      <point x="58" y="-334"/>
      <point x="73" y="-576"/>
      <point x="393" y="-576" type="curve" smooth="yes"/>
      <point x="632" y="-576"/>
      <point x="808" y="-446"/>
      <point x="839" y="-229" type="curve" smooth="yes"/>
      <point x="880" y="-6"/>
      <point x="740" y="127"/>
      <point x="529" y="128" type="curve" smooth="yes"/>
      <point x="407" y="127"/>
      <point x="276" y="89"/>
      <point x="157" y="-35" type="curve" smooth="yes"/>
      <point x="-244" y="-399" type="line"/>
      <point x="-129" y="-527" type="line"/>
      <point x="201" y="-216" type="line" smooth="yes"/>
      <point x="265" y="-143"/>
      <point x="349" y="-58"/>
      <point x="469" y="-57" type="curve" smooth="yes"/>
      <point x="584" y="-58"/>
      <point x="647" y="-114"/>
      <point x="628" y="-225" type="curve" smooth="yes"/>
      <point x="615" y="-328"/>
      <point x="532" y="-401"/>
      <point x="424" y="-401" type="curve" smooth="yes"/>
      <point x="321" y="-401"/>
      <point x="232" y="-321"/>
      <point x="248" y="-229" type="curve" smooth="yes"/>
      <point x="262" y="-134"/>
      <point x="337" y="318"/>
      <point x="337" y="319" type="curve"/>
    </contour>
    <contour>
      <point x="624" y="2048" type="line"/>
      <point x="452" y="2048" type="line"/>
      <point x="112" y="0" type="line"/>
      <point x="284" y="0" type="line"/>
    </contour>
  </outline>
</glyph>
<glyph name="ncurl" format="2">
  <advance width="2115"/>
  <unicode hex="0235"/>
  <outline>
    <contour>
      <point x="1104" y="157" type="line"/>
      <point x="1099" y="105" type="line" smooth="yes"/>
      <point x="1067" y="-64"/>
      <point x="1109" y="-316"/>
      <point x="1424" y="-316" type="curve" smooth="yes"/>
      <point x="1650" y="-316"/>
      <point x="1817" y="-176"/>
      <point x="1852" y="32" type="curve" smooth="yes"/>
      <point x="1887" y="244"/>
      <point x="1754" y="380"/>
      <point x="1545" y="380" type="curve" smooth="yes"/>
      <point x="1422" y="380"/>
      <point x="1259" y="293"/>
      <point x="1156" y="212" type="curve" smooth="yes"/>
      <point x="759" y="-133" type="line"/>
      <point x="864" y="-277" type="line"/>
      <point x="1209" y="24" type="line" smooth="yes"/>
      <point x="1288" y="92"/>
      <point x="1340" y="185"/>
      <point x="1479" y="185" type="curve" smooth="yes"/>
      <point x="1593" y="186"/>
      <point x="1656" y="126"/>
      <point x="1640" y="24" type="curve" smooth="yes"/>
      <point x="1624" y="-74"/>
      <point x="1538" y="-147"/>
      <point x="1433" y="-148" type="curve" smooth="yes"/>
      <point x="1325" y="-147"/>
      <point x="1244" y="-64"/>
      <point x="1257" y="33" type="curve" smooth="yes"/>
      <point x="1277" y="157" type="line"/>
    </contour>
    <component base="n"/>
  </outline>
</glyph>
